{"glyphs":{"0":{"ha":804,"x_min":75,"x_max":735,"o":"m 75 456 q 96 654 75 565 q 158 805 117 743 q 260 902 199 868 q 401 936 321 936 q 545 902 482 936 q 649 805 607 868 q 713 654 692 743 q 735 456 735 565 q 713 259 735 346 q 649 111 692 172 q 545 19 607 51 q 401 -14 482 -14 q 260 19 321 -14 q 158 111 199 51 q 96 259 117 172 q 75 456 75 346 m 208 456 q 220 300 208 369 q 257 184 233 232 q 317 111 281 136 q 401 85 353 85 q 487 111 450 85 q 550 184 524 136 q 589 300 576 232 q 602 456 602 369 q 589 614 602 543 q 550 734 576 684 q 487 810 524 783 q 401 837 450 837 q 317 810 353 837 q 257 734 281 783 q 220 614 233 684 q 208 456 208 543 z "},"1":{"ha":804,"x_min":158,"x_max":719,"o":"m 166 0 l 166 99 l 378 99 l 378 807 l 158 753 l 158 846 l 421 922 l 511 922 l 511 99 l 719 99 l 719 0 l 166 0 z "},"2":{"ha":804,"x_min":102,"x_max":719,"o":"m 719 99 l 719 0 l 107 0 l 107 45 q 125 194 107 130 q 181 308 144 257 q 276 399 219 358 q 412 483 334 441 q 484 529 454 506 q 533 578 514 553 q 562 629 553 603 q 570 685 570 656 q 557 746 570 718 q 520 794 544 774 q 463 826 496 814 q 389 837 430 837 q 319 830 352 837 q 255 812 286 823 q 196 787 224 801 q 140 758 168 773 l 102 844 q 156 875 124 859 q 226 905 187 891 q 308 927 264 918 q 399 936 352 936 q 524 918 467 936 q 620 868 580 901 q 682 789 660 836 q 703 684 703 742 q 685 588 703 630 q 634 513 666 547 q 559 451 602 479 q 470 396 517 422 q 381 339 422 368 q 309 275 340 310 q 261 198 279 241 q 240 99 243 155 l 719 99 z "},"3":{"ha":804,"x_min":82,"x_max":705,"o":"m 674 681 q 634 553 674 607 q 521 473 595 500 q 657 387 609 446 q 705 248 705 329 q 681 142 705 190 q 611 59 656 94 q 501 5 566 24 q 355 -14 436 -14 q 279 -9 317 -14 q 204 3 240 -5 q 137 23 168 12 q 82 50 105 35 l 123 133 q 222 99 170 113 q 341 85 274 85 q 436 96 393 85 q 512 126 480 106 q 561 178 543 147 q 578 251 578 209 q 562 328 578 296 q 514 381 545 360 q 443 412 484 402 q 353 422 401 422 l 230 422 l 230 521 l 353 521 q 430 530 395 521 q 492 559 466 540 q 533 609 518 579 q 548 681 548 640 q 532 752 548 722 q 488 801 516 782 q 421 828 460 819 q 338 837 383 837 q 280 833 307 837 q 230 823 254 829 q 183 808 205 817 q 138 789 161 800 l 94 869 q 146 897 116 884 q 211 918 176 909 q 283 931 246 926 q 355 936 320 936 q 488 918 429 936 q 589 867 547 900 q 652 786 630 833 q 674 681 674 739 z "},"4":{"ha":804,"x_min":43,"x_max":764,"o":"m 631 198 l 631 0 l 498 0 l 498 198 l 43 198 l 43 273 l 471 922 l 631 922 l 631 297 l 764 297 l 764 198 l 631 198 m 498 297 l 498 774 l 186 297 l 498 297 z "},"5":{"ha":804,"x_min":101,"x_max":724,"o":"m 724 289 q 702 165 724 221 q 634 70 679 110 q 524 8 590 31 q 372 -14 458 -14 q 293 -9 332 -14 q 218 3 254 -5 q 152 20 182 10 q 101 42 122 31 l 132 133 q 176 113 153 122 q 226 98 199 104 q 284 89 253 92 q 353 85 315 85 q 530 135 468 85 q 591 289 591 185 q 575 372 591 337 q 530 430 559 408 q 462 464 501 453 q 377 475 422 475 q 287 468 332 475 q 210 445 242 460 l 102 472 l 171 922 l 670 922 l 670 823 l 274 823 l 228 552 q 311 568 264 562 q 416 574 357 574 q 544 553 487 574 q 641 496 601 533 q 703 406 682 458 q 724 289 724 353 z "},"6":{"ha":804,"x_min":82,"x_max":743,"o":"m 469 586 q 590 565 538 586 q 676 504 642 543 q 727 410 710 465 q 743 288 743 355 q 722 175 743 229 q 661 79 701 121 q 561 12 620 37 q 425 -14 501 -14 q 276 18 340 -14 q 169 109 212 50 q 104 250 125 168 q 82 435 82 333 q 109 641 82 549 q 186 799 136 734 q 309 900 236 865 q 473 936 381 936 q 541 933 511 936 q 595 924 571 930 q 640 911 620 919 q 677 895 659 904 l 650 807 q 576 829 615 821 q 490 837 537 837 q 383 816 431 837 q 299 752 334 795 q 241 641 263 709 q 216 481 220 574 q 328 559 262 533 q 469 586 393 586 m 450 487 q 387 482 418 487 q 326 466 355 477 q 268 435 296 455 q 216 387 240 416 q 279 158 223 231 q 438 85 336 85 q 513 102 481 85 q 567 145 546 118 q 600 208 589 173 q 610 281 610 243 q 602 362 610 324 q 573 427 593 399 q 524 471 554 455 q 450 487 493 487 z "},"7":{"ha":804,"x_min":74,"x_max":728,"o":"m 728 922 l 728 841 l 361 0 l 222 0 l 585 823 l 74 823 l 74 922 l 728 922 z "},"8":{"ha":804,"x_min":68,"x_max":740,"o":"m 68 254 q 113 387 68 330 q 240 473 159 444 q 135 553 172 501 q 97 678 97 604 q 119 786 97 739 q 180 867 140 834 q 275 918 220 901 q 399 936 331 936 q 526 918 469 936 q 624 867 583 901 q 688 786 665 834 q 711 678 711 739 q 671 553 711 604 q 562 473 632 501 q 636 437 604 459 q 692 387 669 415 q 728 326 715 359 q 740 254 740 292 q 715 140 740 189 q 646 56 690 90 q 538 4 601 22 q 399 -14 475 -14 q 263 4 324 -14 q 159 56 202 22 q 92 140 115 90 q 68 254 68 189 m 201 254 q 215 181 201 213 q 256 129 230 150 q 319 96 283 107 q 399 85 356 85 q 482 96 444 85 q 548 129 520 107 q 591 181 576 150 q 607 254 607 213 q 591 322 607 291 q 548 377 576 354 q 482 412 520 399 q 399 425 444 425 q 319 412 356 425 q 256 377 283 399 q 215 322 230 354 q 201 254 201 291 m 230 678 q 242 611 230 640 q 278 562 255 582 q 332 531 300 542 q 399 521 363 521 q 470 531 437 521 q 526 562 503 542 q 564 611 550 582 q 578 678 578 640 q 564 746 578 716 q 526 795 550 775 q 470 826 503 816 q 399 837 437 837 q 332 826 363 837 q 278 795 300 816 q 242 746 255 775 q 230 678 230 716 z "},"9":{"ha":804,"x_min":72,"x_max":718,"o":"m 348 342 q 232 364 283 342 q 145 425 181 386 q 91 517 110 464 q 72 633 72 571 q 93 746 72 692 q 155 843 114 801 q 255 910 195 885 q 391 936 315 936 q 637 820 557 936 q 718 463 718 705 q 693 268 718 355 q 622 117 668 180 q 510 21 576 55 q 361 -14 444 -14 q 289 -11 320 -14 q 232 -2 257 -7 q 185 11 206 3 q 146 27 165 18 l 169 119 q 250 94 206 103 q 344 85 293 85 q 439 106 395 85 q 514 169 482 126 q 564 278 545 212 q 584 435 582 344 q 477 365 538 389 q 348 342 416 342 m 366 441 q 423 445 394 441 q 480 461 452 450 q 534 491 508 472 q 583 541 560 511 q 561 688 577 630 q 517 779 545 745 q 454 824 490 812 q 373 837 418 837 q 299 820 331 837 q 247 775 268 804 q 215 710 226 747 q 205 632 205 673 q 213 557 205 592 q 241 496 222 522 q 290 456 260 471 q 366 441 321 441 z "}," ":{"ha":338,"x_min":0,"x_max":0,"o":""},"$":{"ha":804,"x_min":111,"x_max":715,"o":"m 351 -12 q 283 -6 317 -10 q 218 5 249 -1 q 160 20 187 12 q 113 39 134 29 l 146 137 q 204 117 175 127 q 264 101 233 108 q 329 90 295 94 q 401 85 363 85 q 477 96 444 85 q 533 126 510 106 q 569 175 557 146 q 582 239 582 203 q 567 298 582 272 q 524 344 552 323 q 457 381 496 365 q 370 412 418 398 q 268 453 315 429 q 185 511 220 477 q 131 586 151 544 q 111 678 111 627 q 127 772 111 729 q 175 847 144 814 q 251 901 206 880 q 351 930 295 922 l 351 1082 l 484 1082 l 484 932 q 600 910 548 926 q 684 882 652 895 l 654 780 q 601 800 627 790 q 548 819 575 810 q 490 832 520 827 q 422 837 459 837 q 344 826 378 837 q 288 794 311 814 q 255 746 266 774 q 243 685 243 718 q 288 587 243 629 q 434 514 333 545 q 557 465 504 492 q 645 406 610 439 q 697 333 680 373 q 715 243 715 292 q 699 152 715 193 q 653 78 683 110 q 580 24 623 45 q 484 -7 537 2 l 484 -176 l 351 -176 l 351 -12 z "},"%":{"ha":1149,"x_min":93,"x_max":1060,"o":"m 93 730 q 110 816 93 778 q 156 881 127 854 q 226 922 186 907 q 312 936 266 936 q 399 922 359 936 q 469 881 439 907 q 516 816 499 854 q 533 730 533 778 q 516 643 533 681 q 469 578 499 604 q 399 537 439 551 q 312 524 359 524 q 226 537 266 524 q 156 578 186 551 q 110 643 127 604 q 93 730 93 681 m 211 730 q 218 682 211 703 q 239 646 226 661 q 272 624 253 631 q 312 616 290 616 q 386 646 358 616 q 414 730 414 677 q 386 812 414 783 q 312 842 358 842 q 272 834 290 842 q 239 812 253 827 q 218 777 226 798 q 211 730 211 756 m 621 197 q 637 283 621 245 q 684 348 654 321 q 752 389 713 374 q 838 403 792 403 q 926 389 886 403 q 996 348 966 374 q 1043 283 1026 321 q 1060 197 1060 245 q 1043 110 1060 148 q 996 45 1026 71 q 926 4 966 18 q 838 -9 886 -9 q 752 4 792 -9 q 684 45 713 18 q 637 110 654 71 q 621 197 621 148 m 738 197 q 745 149 738 170 q 766 113 753 128 q 798 91 779 98 q 838 83 816 83 q 913 113 885 83 q 941 197 941 144 q 913 279 941 250 q 838 309 885 309 q 798 301 816 309 q 766 279 779 294 q 745 244 753 265 q 738 197 738 223 m 827 922 l 934 922 l 313 0 l 205 0 l 827 922 z "},"&":{"ha":866,"x_min":61,"x_max":838,"o":"m 838 42 l 743 -23 l 639 92 q 511 15 580 43 q 365 -14 443 -14 q 241 4 297 -14 q 145 53 185 21 q 83 130 105 85 q 61 229 61 174 q 76 314 61 276 q 118 384 91 351 q 182 447 144 417 q 266 509 220 477 l 222 559 q 161 648 178 606 q 144 730 144 689 q 162 814 144 777 q 214 878 180 852 q 293 919 247 905 q 395 933 339 933 q 487 920 444 933 q 560 881 529 906 q 609 821 591 856 q 627 742 627 785 q 614 678 627 707 q 579 624 602 650 q 526 574 556 598 q 460 522 495 549 l 429 498 l 646 256 q 691 321 669 287 q 734 392 713 355 l 817 324 q 771 246 795 283 q 719 174 747 208 l 838 42 m 193 225 q 205 167 193 193 q 240 124 217 142 q 294 98 262 107 q 366 90 326 90 q 478 111 429 90 q 570 170 528 132 l 336 431 q 279 385 305 408 q 234 337 253 362 q 203 284 214 312 q 193 225 193 257 m 395 598 q 439 631 420 616 q 471 663 458 646 q 490 697 484 679 q 496 742 496 716 q 489 780 496 763 q 467 809 481 797 q 433 828 452 821 q 391 834 414 834 q 352 827 372 834 q 314 807 331 821 q 286 775 297 794 q 275 731 275 756 q 280 696 275 713 q 291 664 284 679 q 308 636 298 649 q 326 614 317 624 l 361 574 l 395 598 z "},"'":{"ha":253,"x_min":43,"x_max":182,"o":"m 43 922 l 182 922 l 133 639 l 43 646 l 43 922 z "},"(":{"ha":467,"x_min":73,"x_max":405,"o":"m 204 380 q 221 188 204 276 q 266 27 239 100 q 328 -103 294 -45 q 397 -205 362 -161 l 312 -245 q 217 -112 260 -182 q 141 38 173 -41 q 91 201 109 116 q 73 380 73 287 q 92 569 73 476 q 143 746 111 662 q 221 902 176 830 q 319 1027 267 973 l 405 986 q 332 882 368 941 q 268 747 296 822 q 222 580 239 671 q 204 380 204 488 z "},")":{"ha":467,"x_min":66,"x_max":397,"o":"m 266 401 q 249 593 266 505 q 204 754 231 681 q 142 884 176 827 q 73 986 108 942 l 158 1027 q 334 744 271 901 q 397 401 397 587 q 378 212 397 305 q 327 35 359 119 q 249 -120 294 -49 q 152 -245 204 -192 l 66 -205 q 137 -101 102 -160 q 201 34 173 -41 q 248 201 230 109 q 266 401 266 292 z "},"*":{"ha":627,"x_min":58,"x_max":581,"o":"m 376 922 l 357 714 l 530 816 l 581 714 l 387 635 l 532 482 l 442 413 l 326 590 l 212 404 l 119 472 l 258 631 l 58 701 l 107 806 l 282 710 l 263 922 l 376 922 z "},"+":{"ha":723,"x_min":73,"x_max":651,"o":"m 308 397 l 73 397 l 73 496 l 308 496 l 308 711 l 417 711 l 417 496 l 651 496 l 651 397 l 417 397 l 417 182 l 308 182 l 308 397 z "},",":{"ha":352,"x_min":84,"x_max":286,"o":"m 133 119 l 286 119 l 180 -198 l 84 -184 l 133 119 z "},"-":{"ha":529,"x_min":73,"x_max":457,"o":"m 73 411 l 73 524 l 457 524 l 457 411 l 73 411 z "},".":{"ha":357,"x_min":102,"x_max":256,"o":"m 102 133 l 256 133 l 256 0 l 102 0 l 102 133 z "},"/":{"ha":586,"x_min":29,"x_max":545,"o":"m 412 922 l 545 922 l 162 -95 l 29 -95 l 412 922 z "},":":{"ha":427,"x_min":121,"x_max":274,"o":"m 121 604 l 274 604 l 274 471 l 121 471 l 121 604 m 121 134 l 274 134 l 274 1 l 121 1 l 121 134 z "},";":{"ha":390,"x_min":84,"x_max":286,"o":"m 133 119 l 286 119 l 180 -198 l 84 -184 l 133 119 m 121 609 l 274 609 l 274 476 l 121 476 l 121 609 z "},"<":{"ha":723,"x_min":73,"x_max":651,"o":"m 651 175 l 651 50 l 73 286 l 73 395 l 651 631 l 651 506 l 218 340 l 651 175 z "},"=":{"ha":811,"x_min":90,"x_max":724,"o":"m 90 465 l 90 564 l 724 564 l 724 465 l 90 465 m 90 221 l 90 320 l 724 320 l 724 221 l 90 221 z "},">":{"ha":723,"x_min":73,"x_max":651,"o":"m 73 506 l 73 631 l 651 395 l 651 286 l 73 50 l 73 175 l 505 340 l 73 506 z "},"?":{"ha":692,"x_min":62,"x_max":618,"o":"m 242 245 q 249 337 242 298 q 269 409 255 377 q 305 466 283 440 q 359 517 327 492 q 414 562 390 541 q 453 605 437 583 q 477 649 469 626 q 486 699 486 671 q 474 754 486 728 q 440 798 462 779 q 389 826 419 816 q 321 836 358 836 q 256 830 286 836 q 199 814 227 824 q 147 790 172 804 q 96 762 121 777 l 62 848 q 111 879 83 863 q 174 907 139 894 q 250 928 209 920 q 338 936 291 936 q 456 919 404 936 q 544 872 508 903 q 600 797 581 841 q 618 697 618 753 q 599 611 618 649 q 551 542 580 573 q 487 484 522 511 q 420 433 452 458 q 393 401 404 418 q 376 362 382 384 q 367 311 370 340 q 365 245 365 283 l 242 245 m 236 119 l 368 119 l 368 0 l 236 0 l 236 119 z "},"@":{"ha":1244,"x_min":77,"x_max":1163,"o":"m 1162 327 q 1152 246 1160 287 q 1129 168 1144 205 q 1090 97 1114 130 q 1034 39 1067 64 q 959 1 1001 15 q 863 -14 916 -14 q 780 16 814 -14 q 731 98 746 45 q 519 -11 660 -11 q 446 6 479 -11 q 390 53 413 22 q 355 127 368 83 q 343 225 343 171 q 345 271 343 248 q 378 420 353 353 q 440 534 403 487 q 527 607 478 581 q 631 632 575 632 q 711 627 677 632 q 773 612 746 621 q 824 590 801 602 q 871 563 847 577 l 868 560 l 871 560 l 836 191 q 835 177 836 184 q 835 165 835 171 q 840 116 835 135 q 854 86 846 97 q 873 72 863 75 q 895 68 884 68 q 966 88 935 68 q 1019 143 997 109 q 1052 225 1040 178 q 1066 327 1064 273 q 1067 348 1067 338 q 1067 370 1067 359 q 1042 572 1067 482 q 965 726 1017 663 q 834 824 913 790 q 648 859 755 859 q 461 820 545 859 q 319 710 378 781 q 227 538 260 639 q 188 312 193 437 q 187 289 187 300 q 186 267 186 278 q 214 64 186 155 q 295 -89 242 -26 q 426 -187 349 -153 q 601 -221 503 -221 q 670 -217 635 -221 q 738 -205 705 -212 q 801 -187 771 -197 q 855 -165 831 -177 l 868 -237 q 810 -263 842 -252 q 741 -281 777 -274 q 668 -292 705 -288 q 597 -296 631 -296 q 378 -256 475 -296 q 215 -143 282 -216 q 113 36 149 -69 q 77 274 77 142 q 77 293 77 283 q 78 312 77 302 q 127 569 84 454 q 243 766 170 684 q 420 891 317 847 q 651 935 524 935 q 868 895 773 935 q 1029 783 964 856 q 1129 605 1095 709 q 1163 371 1163 500 q 1163 349 1163 360 q 1162 327 1163 338 m 475 271 q 473 229 473 249 q 566 88 473 88 q 609 92 587 88 q 650 108 630 96 q 688 140 669 119 q 722 192 706 160 l 755 525 q 712 538 736 533 q 659 544 688 544 q 585 527 616 544 q 531 475 553 509 q 496 389 509 440 q 475 271 482 338 z "},"A":{"ha":905,"x_min":49,"x_max":859,"o":"m 644 235 l 263 235 l 182 0 l 49 0 l 385 922 l 521 922 l 859 0 l 726 0 l 644 235 m 298 334 l 610 334 l 454 780 l 298 334 z "},"B":{"ha":869,"x_min":124,"x_max":791,"o":"m 124 922 l 394 922 q 532 905 471 922 q 633 854 592 887 q 696 777 675 822 q 718 675 718 731 q 706 607 718 637 q 676 552 694 576 q 636 511 658 528 q 596 481 615 493 q 740 404 688 460 q 791 260 791 347 q 767 154 791 202 q 697 72 743 106 q 586 19 651 37 q 438 0 520 0 l 124 0 l 124 922 m 257 429 l 257 99 l 422 99 q 518 109 475 99 q 592 139 562 119 q 641 189 623 159 q 658 260 658 219 q 645 333 658 302 q 607 386 631 364 q 547 418 582 407 q 469 429 512 429 l 257 429 m 257 823 l 257 528 l 524 528 q 543 551 532 538 q 563 580 553 563 q 578 620 572 597 q 585 675 585 643 q 530 787 585 751 q 378 823 476 823 l 257 823 z "},"C":{"ha":761,"x_min":82,"x_max":720,"o":"m 82 463 q 112 657 82 570 q 196 807 141 745 q 329 902 251 869 q 506 936 408 936 q 569 932 541 936 q 620 922 597 928 q 663 908 644 916 q 701 891 683 900 l 663 803 q 592 828 630 819 q 506 837 553 837 q 387 815 441 837 q 295 748 334 793 q 236 631 257 702 q 215 463 215 561 q 237 293 215 364 q 299 176 259 222 q 395 107 339 130 q 521 85 452 85 q 575 89 550 85 q 621 99 600 93 q 659 112 642 105 q 692 126 677 119 l 720 39 q 633 2 684 17 q 506 -14 582 -14 q 329 21 408 -14 q 196 117 251 55 q 112 268 141 180 q 82 463 82 355 z "},"D":{"ha":941,"x_min":124,"x_max":850,"o":"m 124 922 l 409 922 q 592 889 510 922 q 731 797 673 857 q 819 652 788 736 q 850 463 850 567 q 819 273 850 358 q 731 127 788 188 q 592 33 673 66 q 409 0 510 0 l 124 0 l 124 922 m 257 823 l 257 99 l 394 99 q 526 120 466 99 q 628 186 585 142 q 694 299 671 231 q 718 463 718 368 q 694 625 718 557 q 628 738 671 694 q 526 802 585 781 q 394 823 466 823 l 257 823 z "},"E":{"ha":728,"x_min":124,"x_max":667,"o":"m 124 0 l 124 922 l 667 922 l 667 823 l 257 823 l 257 522 l 623 522 l 623 423 l 257 423 l 257 99 l 667 99 l 667 0 l 124 0 z "},"F":{"ha":679,"x_min":124,"x_max":638,"o":"m 257 423 l 257 0 l 124 0 l 124 922 l 638 922 l 638 823 l 257 823 l 257 522 l 593 522 l 593 423 l 257 423 z "},"G":{"ha":928,"x_min":88,"x_max":824,"o":"m 490 468 l 824 468 l 824 46 q 687 2 758 18 q 533 -14 616 -14 q 346 24 428 -14 q 206 127 263 62 q 118 279 149 193 q 88 461 88 365 q 121 658 88 570 q 215 808 154 746 q 365 903 277 869 q 565 936 454 936 q 630 932 600 936 q 685 924 660 929 q 729 911 709 918 q 764 898 749 905 l 736 804 q 663 826 705 816 q 565 837 620 837 q 420 813 484 837 q 312 742 356 789 q 244 624 267 694 q 221 461 221 553 q 242 321 221 389 q 302 201 262 253 q 400 117 342 149 q 533 85 458 85 q 616 90 577 85 q 691 109 654 95 l 691 369 l 490 369 l 490 468 z "},"H":{"ha":956,"x_min":123,"x_max":836,"o":"m 123 922 l 256 922 l 256 510 l 703 510 l 703 922 l 836 922 l 836 0 l 703 0 l 703 411 l 256 411 l 256 0 l 123 0 l 123 922 z "},"I":{"ha":570,"x_min":93,"x_max":478,"o":"m 93 0 l 93 99 l 218 99 l 218 823 l 93 823 l 93 922 l 478 922 l 478 823 l 351 823 l 351 99 l 478 99 l 478 0 l 93 0 z "},"J":{"ha":647,"x_min":58,"x_max":527,"o":"m 88 121 q 122 108 102 114 q 163 97 142 102 q 205 89 184 92 q 243 85 227 85 q 312 95 283 85 q 359 126 340 104 q 386 180 377 147 q 394 262 394 214 l 394 922 l 527 922 l 527 262 q 508 129 527 182 q 453 44 488 76 q 368 0 418 13 q 258 -14 319 -14 q 142 -1 193 -14 q 58 28 92 12 l 88 121 z "},"K":{"ha":865,"x_min":121,"x_max":838,"o":"m 394 408 l 254 408 l 254 0 l 121 0 l 121 922 l 254 922 l 254 507 l 390 507 l 644 922 l 789 922 l 506 465 l 505 465 l 838 0 l 686 0 l 394 408 z "},"L":{"ha":703,"x_min":123,"x_max":673,"o":"m 123 922 l 256 922 l 256 99 l 673 99 l 673 0 l 123 0 l 123 922 z "},"M":{"ha":1148,"x_min":123,"x_max":1029,"o":"m 578 454 l 858 922 l 1029 922 l 1029 0 l 897 0 l 897 467 l 906 780 l 631 313 l 522 313 l 245 785 l 256 475 l 256 0 l 123 0 l 123 922 l 296 922 l 578 454 z "},"N":{"ha":987,"x_min":123,"x_max":865,"o":"m 123 922 l 256 922 l 256 922 l 257 922 l 732 206 l 732 922 l 865 922 l 865 0 l 732 0 l 256 718 l 256 0 l 123 0 l 123 922 z "},"O":{"ha":955,"x_min":75,"x_max":880,"o":"m 75 461 q 105 658 75 570 q 187 808 134 746 q 314 903 240 869 q 477 936 388 936 q 639 903 565 936 q 767 808 713 869 q 850 658 820 746 q 880 461 880 570 q 850 263 880 351 q 767 114 820 176 q 639 19 713 52 q 477 -14 565 -14 q 314 19 388 -14 q 187 114 240 52 q 105 263 134 176 q 75 461 75 351 m 208 461 q 228 296 208 367 q 283 179 248 226 q 368 109 319 132 q 477 85 418 85 q 586 109 536 85 q 672 179 636 132 q 727 296 707 226 q 747 461 747 367 q 727 626 747 555 q 672 743 707 696 q 586 813 636 790 q 477 837 536 837 q 368 813 418 837 q 283 743 319 790 q 228 626 248 696 q 208 461 208 555 z "},"P":{"ha":820,"x_min":123,"x_max":763,"o":"m 123 922 l 422 922 q 566 902 503 922 q 673 845 629 882 q 740 756 717 808 q 763 639 763 703 q 740 522 763 574 q 673 431 717 469 q 566 373 629 393 q 422 353 503 353 l 256 353 l 256 0 l 123 0 l 123 922 m 256 823 l 256 452 l 408 452 q 501 463 460 452 q 571 497 543 474 q 615 555 600 520 q 630 639 630 591 q 615 722 630 687 q 571 779 600 757 q 501 812 543 802 q 408 823 460 823 l 256 823 z "},"Q":{"ha":920,"x_min":60,"x_max":914,"o":"m 60 461 q 89 658 60 570 q 172 808 119 746 q 298 903 224 869 q 461 936 372 936 q 624 903 549 936 q 751 808 698 869 q 834 658 804 746 q 864 461 864 570 q 827 243 864 337 q 724 87 790 149 l 914 -126 l 769 -126 l 633 24 q 461 -14 555 -14 q 298 19 372 -14 q 172 114 224 52 q 89 263 119 176 q 60 461 60 351 m 193 461 q 212 296 193 367 q 268 179 232 226 q 353 109 303 132 q 461 85 402 85 q 571 109 521 85 q 656 179 621 132 q 711 296 692 226 q 731 461 731 367 q 711 626 731 555 q 656 743 692 696 q 571 813 621 790 q 461 837 521 837 q 353 813 402 837 q 268 743 303 790 q 212 626 232 696 q 193 461 193 555 z "},"R":{"ha":853,"x_min":124,"x_max":794,"o":"m 124 922 l 422 922 q 561 904 500 922 q 663 853 621 886 q 726 771 705 819 q 748 661 748 722 q 736 588 748 623 q 703 523 724 553 q 656 467 683 492 q 599 423 629 441 l 794 0 l 655 0 l 475 396 l 257 396 l 257 0 l 124 0 l 124 922 m 257 823 l 257 495 l 533 495 q 563 522 548 507 q 589 555 577 536 q 608 600 600 574 q 615 661 615 626 q 601 736 615 705 q 561 786 587 767 q 496 814 534 806 q 409 823 458 823 l 257 823 z "},"S":{"ha":749,"x_min":75,"x_max":680,"o":"m 680 243 q 657 137 680 184 q 595 57 635 90 q 496 5 554 23 q 368 -14 439 -14 q 287 -10 328 -14 q 207 1 245 -6 q 135 17 169 7 q 78 39 102 27 l 111 137 q 169 117 140 127 q 229 101 198 108 q 294 90 260 94 q 366 85 328 85 q 441 96 408 85 q 498 126 475 106 q 534 175 522 146 q 547 239 547 203 q 532 298 547 272 q 489 344 517 323 q 422 381 461 365 q 334 412 382 398 q 233 453 280 429 q 150 511 185 477 q 95 586 115 544 q 75 678 75 627 q 97 784 75 736 q 159 866 119 832 q 256 918 199 899 q 384 936 313 936 q 466 930 427 936 q 539 917 505 925 q 601 899 573 909 q 648 882 629 890 l 619 780 q 566 800 591 790 q 512 819 540 810 q 454 832 485 827 q 387 837 424 837 q 309 826 342 837 q 253 794 275 814 q 219 746 231 774 q 208 685 208 718 q 253 587 208 629 q 399 514 298 545 q 522 465 469 492 q 609 406 574 439 q 662 333 644 373 q 680 243 680 292 z "},"T":{"ha":806,"x_min":49,"x_max":760,"o":"m 470 823 l 470 0 l 337 0 l 337 823 l 49 823 l 49 922 l 760 922 l 760 823 l 470 823 z "},"U":{"ha":964,"x_min":124,"x_max":843,"o":"m 710 922 l 843 922 l 843 279 q 817 155 843 209 q 743 63 791 100 q 629 6 696 25 q 482 -14 563 -14 q 336 6 402 -14 q 223 63 271 25 q 150 155 176 100 q 124 279 124 209 l 124 922 l 257 922 l 257 279 q 274 196 257 233 q 320 136 290 160 q 391 98 350 111 q 482 85 433 85 q 575 98 533 85 q 647 136 617 111 q 693 196 677 160 q 710 279 710 233 l 710 922 z "},"V":{"ha":891,"x_min":49,"x_max":845,"o":"m 364 414 l 447 144 l 530 411 l 709 922 l 845 922 l 513 0 l 380 0 l 49 922 l 185 922 l 364 414 z "},"W":{"ha":1249,"x_min":64,"x_max":1188,"o":"m 1055 922 l 1188 922 l 981 0 l 840 0 l 628 709 l 412 0 l 272 0 l 64 922 l 201 922 l 349 166 l 565 922 l 688 922 l 903 163 l 1055 922 z "},"X":{"ha":804,"x_min":43,"x_max":761,"o":"m 402 559 l 613 922 l 761 922 l 484 467 l 761 0 l 612 0 l 402 372 l 195 0 l 43 0 l 319 467 l 43 922 l 193 922 l 402 559 z "},"Y":{"ha":804,"x_min":49,"x_max":757,"o":"m 402 457 l 621 922 l 757 922 l 467 329 l 467 0 l 334 0 l 334 333 l 49 922 l 185 922 l 402 457 z "},"Z":{"ha":843,"x_min":93,"x_max":783,"o":"m 97 922 l 736 922 l 736 848 l 244 99 l 783 99 l 753 0 l 93 0 l 93 85 l 570 823 l 97 823 l 97 922 z "},"[":{"ha":523,"x_min":176,"x_max":421,"o":"m 176 1034 l 421 1034 l 421 935 l 309 935 l 309 -104 l 421 -104 l 421 -203 l 176 -203 l 176 1034 z "},"\\":{"ha":586,"x_min":29,"x_max":545,"o":"m 29 922 l 162 922 l 545 -95 l 412 -95 l 29 922 z "},"]":{"ha":523,"x_min":102,"x_max":347,"o":"m 347 1034 l 347 -203 l 102 -203 l 102 -104 l 214 -104 l 214 935 l 102 935 l 102 1034 l 347 1034 z "},"^":{"ha":632,"x_min":55,"x_max":582,"o":"m 185 480 l 55 480 l 256 922 l 380 922 l 582 480 l 449 480 l 317 785 l 185 480 z "},"_":{"ha":616,"x_min":-1,"x_max":616,"o":"m -1 -159 l -1 -60 l 616 -60 l 616 -159 l -1 -159 z "},"`":{"ha":420,"x_min":60,"x_max":350,"o":"m 350 781 l 254 754 l 60 922 l 204 963 l 350 781 z "},"a":{"ha":749,"x_min":71,"x_max":639,"o":"m 506 406 l 506 422 q 497 501 506 469 q 471 551 489 532 q 425 577 453 570 q 357 585 397 585 q 302 581 330 585 q 248 572 274 578 q 198 558 222 566 q 158 543 175 551 l 129 635 q 180 658 151 648 q 240 676 209 669 q 305 688 272 684 q 369 692 338 692 q 480 680 431 692 q 566 637 530 667 q 620 554 601 606 q 639 422 639 502 l 639 0 l 536 0 l 518 73 q 482 47 505 62 q 430 19 460 33 q 364 -3 401 6 q 285 -12 328 -12 q 192 4 232 -12 q 124 48 151 20 q 84 113 98 76 q 71 190 71 149 q 92 272 71 233 q 152 341 114 311 q 243 388 191 370 q 358 406 296 406 l 506 406 m 320 87 q 387 95 356 87 q 441 114 417 103 q 481 137 465 125 q 506 155 498 149 l 506 321 l 374 321 q 289 305 322 321 q 237 268 256 290 q 211 223 218 246 q 203 186 203 201 q 212 143 203 162 q 237 112 221 125 q 274 93 252 100 q 320 87 295 87 z "},"b":{"ha":821,"x_min":119,"x_max":735,"o":"m 119 951 l 252 951 l 252 616 q 290 648 271 634 q 332 672 309 662 q 384 687 355 682 q 450 692 413 692 q 568 667 515 692 q 657 596 621 642 q 715 485 694 550 q 735 340 735 420 q 715 195 735 260 q 657 84 694 130 q 568 12 621 37 q 450 -14 515 -14 q 381 -7 412 -14 q 327 11 351 -1 q 281 39 302 22 q 239 76 260 56 l 221 0 l 119 0 l 119 951 m 602 340 q 556 528 602 463 q 408 593 509 593 q 323 578 361 593 q 252 540 284 563 l 252 140 q 323 101 284 117 q 408 85 361 85 q 556 151 509 85 q 602 340 602 217 z "},"c":{"ha":652,"x_min":78,"x_max":625,"o":"m 78 340 q 101 485 78 420 q 168 596 124 550 q 273 667 211 642 q 413 692 335 692 q 525 682 477 692 q 604 655 572 673 l 566 563 q 541 574 554 568 q 511 583 528 579 q 474 590 495 587 q 427 593 454 593 q 339 578 378 593 q 271 533 299 564 q 227 454 242 502 q 211 340 211 406 q 227 226 211 274 q 271 147 242 178 q 339 100 299 115 q 427 85 378 85 q 523 95 484 85 q 591 118 562 104 l 625 31 q 543 -1 592 11 q 427 -14 494 -14 q 281 12 346 -14 q 172 84 217 37 q 102 195 126 130 q 78 340 78 260 z "},"d":{"ha":805,"x_min":84,"x_max":688,"o":"m 561 59 q 523 28 543 41 q 481 5 504 15 q 429 -9 458 -4 q 364 -14 401 -14 q 248 12 300 -14 q 160 84 196 37 q 104 195 123 130 q 84 340 84 260 q 104 485 84 420 q 160 596 123 550 q 248 667 196 642 q 364 692 300 692 q 425 687 398 692 q 475 674 452 682 q 518 652 498 665 q 555 623 537 640 l 555 949 l 688 949 l 688 0 l 571 0 l 561 59 m 217 340 q 228 231 217 279 q 261 151 238 184 q 320 102 283 119 q 408 85 356 85 q 488 99 452 85 q 555 134 525 113 l 555 544 q 488 579 525 566 q 408 593 452 593 q 320 576 356 593 q 261 528 283 560 q 228 449 238 496 q 217 340 217 402 z "},"e":{"ha":753,"x_min":77,"x_max":683,"o":"m 210 323 q 267 148 212 210 q 425 85 321 85 q 488 89 459 85 q 541 98 517 93 q 583 111 564 104 q 618 123 602 117 l 650 37 q 549 0 608 13 q 425 -14 491 -14 q 277 10 342 -14 q 168 78 212 33 q 100 186 123 122 q 77 334 77 251 q 99 485 77 418 q 164 598 122 552 q 264 668 205 644 q 397 692 323 692 q 509 673 456 692 q 600 621 561 655 q 661 536 638 586 q 683 422 683 486 l 683 323 l 210 323 m 397 593 q 330 585 360 593 q 276 556 300 576 q 237 504 253 536 q 215 422 222 471 l 550 422 q 537 501 550 469 q 503 554 524 534 q 454 584 481 574 q 397 593 427 593 z "},"f":{"ha":523,"x_min":55,"x_max":525,"o":"m 68 678 l 152 678 l 152 720 q 169 839 152 792 q 216 913 185 886 q 292 952 248 941 q 391 963 336 963 q 427 961 409 963 q 463 957 446 960 q 497 950 481 954 q 525 943 513 947 l 521 850 q 497 855 511 852 q 468 859 483 857 q 436 863 452 861 q 405 864 420 864 q 350 857 373 864 q 313 832 328 849 q 292 787 298 814 q 285 720 285 760 l 285 678 l 485 678 l 485 579 l 285 579 l 285 0 l 152 0 l 152 579 l 55 579 l 68 678 z "},"g":{"ha":807,"x_min":58,"x_max":761,"o":"m 96 445 q 118 551 96 505 q 179 629 140 597 q 274 676 219 660 q 397 692 330 692 q 510 678 458 692 l 761 678 l 751 591 l 652 591 q 686 526 674 562 q 698 445 698 490 q 676 341 698 387 q 614 263 654 295 q 519 215 574 232 q 397 198 464 198 q 277 214 332 198 q 260 185 266 201 q 254 148 254 170 q 256 133 254 142 q 261 115 258 124 q 269 98 264 106 q 277 85 273 90 l 478 85 q 593 70 543 85 q 675 28 642 55 q 724 -35 708 1 q 739 -113 740 -71 q 708 -198 734 -159 q 636 -266 682 -237 q 529 -311 591 -294 q 391 -327 467 -327 q 313 -323 353 -327 q 236 -311 273 -319 q 167 -288 199 -302 q 110 -252 134 -273 q 72 -202 86 -231 q 58 -136 58 -174 q 86 -42 58 -84 q 176 31 114 0 q 148 72 160 49 q 136 123 136 95 q 154 193 136 164 q 203 246 172 222 q 124 328 153 278 q 96 445 96 378 m 229 445 q 271 336 229 376 q 397 297 313 297 q 523 336 481 297 q 565 445 565 376 q 552 510 565 482 q 517 556 540 538 q 464 584 495 574 q 397 593 433 593 q 329 584 360 593 q 276 556 298 574 q 241 510 254 538 q 229 445 229 482 m 262 -14 q 231 -36 244 -25 q 209 -61 218 -47 q 196 -93 200 -75 q 191 -133 191 -110 q 202 -168 191 -153 q 230 -194 212 -183 q 269 -211 247 -204 q 313 -221 290 -218 q 356 -227 335 -225 q 394 -228 378 -228 q 481 -219 442 -228 q 548 -196 520 -211 q 591 -160 576 -180 q 606 -115 606 -139 q 600 -75 606 -94 q 577 -43 593 -56 q 531 -21 560 -29 q 454 -14 501 -14 l 262 -14 z "},"h":{"ha":817,"x_min":119,"x_max":701,"o":"m 119 949 l 252 949 l 252 616 q 356 672 300 652 q 477 692 411 692 q 569 680 528 692 q 640 638 610 667 q 685 562 669 610 q 701 442 701 514 l 701 0 l 568 0 l 568 442 q 539 558 568 523 q 446 593 511 593 q 341 572 389 593 q 252 517 293 551 l 252 0 l 119 0 l 119 949 z "},"i":{"ha":397,"x_min":126,"x_max":272,"o":"m 133 678 l 266 678 l 266 0 l 133 0 l 133 678 m 126 951 l 272 951 l 272 831 l 126 831 l 126 951 z "},"j":{"ha":415,"x_min":-61,"x_max":305,"o":"m -47 -190 q -25 -194 -39 -192 q 2 -198 -12 -196 q 32 -201 17 -200 q 61 -202 47 -202 q 109 -194 89 -202 q 141 -169 129 -186 q 160 -121 154 -151 q 166 -47 166 -92 l 166 678 l 299 678 l 299 -47 q 283 -173 299 -123 q 237 -250 267 -222 q 166 -290 208 -279 q 73 -301 124 -301 q 38 -300 56 -301 q 1 -297 19 -299 q -33 -292 -16 -295 q -61 -283 -49 -288 l -47 -190 m 158 951 l 305 951 l 305 831 l 158 831 l 158 951 z "},"k":{"ha":728,"x_min":119,"x_max":703,"o":"m 345 300 l 252 300 l 252 0 l 119 0 l 119 949 l 252 949 l 252 399 l 343 399 l 533 678 l 682 678 l 454 357 l 453 357 l 703 0 l 550 0 l 345 300 z "},"l":{"ha":397,"x_min":133,"x_max":266,"o":"m 133 949 l 266 949 l 266 0 l 133 0 l 133 949 z "},"m":{"ha":1245,"x_min":119,"x_max":1128,"o":"m 119 678 l 236 678 l 243 622 q 351 673 294 655 q 477 692 409 692 q 591 676 543 692 q 669 618 640 660 q 776 672 718 653 q 903 692 833 692 q 996 680 954 692 q 1066 641 1037 669 q 1112 569 1096 614 q 1128 456 1128 524 l 1128 0 l 995 0 l 995 456 q 966 561 995 529 q 873 593 937 593 q 779 576 822 593 q 698 532 735 559 q 700 512 699 522 q 701 490 701 501 l 701 0 l 568 0 l 568 490 q 539 570 568 547 q 446 593 510 593 q 341 572 389 593 q 252 517 293 551 l 252 0 l 119 0 l 119 678 z "},"n":{"ha":817,"x_min":119,"x_max":701,"o":"m 119 678 l 236 678 l 247 614 q 353 671 296 650 q 477 692 410 692 q 569 681 528 692 q 640 642 610 669 q 685 568 669 614 q 701 449 701 521 l 701 0 l 568 0 l 568 449 q 561 516 568 489 q 539 561 553 544 q 501 585 524 578 q 446 593 478 593 q 341 571 389 593 q 252 517 293 549 l 252 0 l 119 0 l 119 678 z "},"o":{"ha":807,"x_min":77,"x_max":735,"o":"m 77 339 q 100 486 77 421 q 167 597 124 551 q 271 667 210 643 q 405 692 331 692 q 539 667 478 692 q 644 597 600 643 q 711 486 687 551 q 735 339 735 421 q 711 191 735 256 q 644 80 687 126 q 539 11 600 35 q 405 -14 478 -14 q 271 11 331 -14 q 167 80 210 35 q 100 191 124 126 q 77 339 77 256 m 210 339 q 224 224 210 273 q 264 145 238 176 q 326 100 290 115 q 405 85 361 85 q 485 100 448 85 q 547 145 521 115 q 588 224 573 176 q 602 339 602 273 q 588 454 602 406 q 547 533 573 502 q 485 578 521 564 q 405 593 448 593 q 326 578 361 593 q 264 533 290 564 q 224 454 238 502 q 210 339 210 406 z "},"p":{"ha":810,"x_min":119,"x_max":735,"o":"m 119 678 l 236 678 l 246 612 q 286 646 266 631 q 329 671 305 661 q 382 686 353 681 q 450 692 412 692 q 568 667 515 692 q 657 596 621 642 q 715 485 694 550 q 735 340 735 420 q 715 195 735 260 q 657 84 694 130 q 568 12 621 37 q 450 -14 515 -14 q 386 -8 414 -14 q 334 6 357 -3 q 291 30 311 16 q 252 62 271 44 l 252 -271 l 119 -271 l 119 678 m 602 340 q 556 528 602 463 q 408 593 509 593 q 323 578 361 593 q 252 540 284 563 l 252 138 q 323 100 284 115 q 408 85 361 85 q 556 151 509 85 q 602 340 602 217 z "},"q":{"ha":805,"x_min":84,"x_max":688,"o":"m 555 54 q 519 25 538 38 q 477 4 500 13 q 427 -9 455 -4 q 364 -14 399 -14 q 248 12 300 -14 q 160 84 196 37 q 104 195 123 130 q 84 340 84 260 q 104 485 84 420 q 160 596 123 550 q 248 667 196 642 q 364 692 300 692 q 429 686 401 692 q 482 671 458 681 q 526 647 506 661 q 566 614 546 632 l 585 678 l 688 678 l 688 -271 l 555 -271 l 555 54 m 217 340 q 228 231 217 279 q 261 151 238 184 q 320 102 283 119 q 408 85 356 85 q 488 99 452 85 q 555 134 525 113 l 555 544 q 488 579 525 566 q 408 593 452 593 q 320 576 356 593 q 261 528 283 560 q 228 449 238 496 q 217 340 217 402 z "},"r":{"ha":517,"x_min":119,"x_max":490,"o":"m 119 678 l 236 678 l 247 583 q 334 667 288 643 q 433 692 380 692 q 461 691 446 692 q 490 689 477 690 l 478 574 q 443 578 460 577 q 404 579 425 579 q 321 552 358 579 q 252 482 283 525 l 252 0 l 119 0 l 119 678 z "},"s":{"ha":659,"x_min":73,"x_max":586,"o":"m 586 189 q 568 105 586 142 q 516 41 550 68 q 435 1 483 15 q 326 -14 387 -14 q 254 -10 290 -14 q 185 1 218 -6 q 124 17 153 7 q 73 39 95 27 l 98 134 q 150 115 125 124 q 201 100 175 106 q 258 89 228 93 q 325 85 288 85 q 423 112 393 85 q 453 184 453 138 q 442 222 453 205 q 411 252 431 239 q 363 277 391 266 q 299 297 334 288 q 212 328 252 309 q 143 370 172 346 q 97 426 114 395 q 81 495 81 457 q 99 578 81 541 q 151 640 117 614 q 234 679 185 665 q 344 692 283 692 q 475 678 418 692 q 565 648 532 665 l 541 555 q 495 570 516 563 q 452 582 474 576 q 405 590 430 587 q 347 593 379 593 q 246 568 279 593 q 214 502 214 544 q 221 465 214 481 q 244 435 228 449 q 286 411 260 422 q 351 389 312 399 q 455 354 411 374 q 529 310 500 334 q 572 256 557 286 q 586 189 586 226 z "},"t":{"ha":551,"x_min":39,"x_max":510,"o":"m 55 678 l 152 678 l 152 854 l 285 868 l 285 678 l 485 678 l 485 579 l 285 579 l 285 217 q 290 159 285 183 q 308 121 296 136 q 338 100 319 106 q 382 94 357 94 q 416 95 399 94 q 450 98 433 96 q 481 103 467 100 q 506 107 496 105 l 510 15 q 480 7 497 11 q 445 1 464 3 q 407 -4 427 -2 q 369 -5 387 -5 q 278 4 318 -5 q 210 38 238 14 q 167 106 182 63 q 152 217 152 149 l 152 579 l 39 579 l 55 678 z "},"u":{"ha":817,"x_min":119,"x_max":701,"o":"m 701 0 l 583 0 l 572 86 q 466 13 523 39 q 344 -14 410 -14 q 251 -1 292 -14 q 180 41 210 11 q 135 124 151 72 q 119 256 119 176 l 119 678 l 252 678 l 252 256 q 259 176 252 208 q 281 123 266 143 q 318 94 296 103 q 373 85 341 85 q 479 107 431 85 q 568 162 527 128 l 568 678 l 701 678 l 701 0 z "},"v":{"ha":690,"x_min":29,"x_max":662,"o":"m 29 678 l 166 678 l 293 302 l 346 123 l 402 304 l 527 678 l 662 678 l 406 0 l 287 0 l 29 678 z "},"w":{"ha":1033,"x_min":46,"x_max":989,"o":"m 861 678 l 989 678 l 804 0 l 695 0 l 518 489 l 340 0 l 233 0 l 46 678 l 175 678 l 288 152 l 474 678 l 564 678 l 747 155 l 861 678 z "},"x":{"ha":720,"x_min":54,"x_max":671,"o":"m 198 0 l 54 0 l 294 344 l 57 678 l 201 678 l 361 434 l 522 678 l 663 678 l 427 345 l 671 0 l 525 0 l 361 250 l 198 0 z "},"y":{"ha":713,"x_min":43,"x_max":671,"o":"m 534 678 l 671 678 l 411 -45 q 366 -158 389 -113 q 316 -231 343 -203 q 256 -269 289 -258 q 180 -279 223 -279 q 136 -276 158 -279 q 97 -267 115 -273 l 110 -175 q 136 -178 121 -175 q 168 -180 151 -180 q 206 -174 190 -180 q 236 -152 222 -168 q 264 -109 250 -136 q 295 -37 278 -81 l 43 678 l 180 678 l 354 136 l 534 678 z "},"z":{"ha":703,"x_min":73,"x_max":646,"o":"m 79 678 l 610 678 l 610 597 l 227 99 l 646 99 l 618 0 l 73 0 l 73 92 l 441 579 l 79 579 l 79 678 z "},"{":{"ha":491,"x_min":54,"x_max":420,"o":"m 54 444 q 104 450 81 444 q 144 475 127 457 q 170 524 161 493 q 179 604 179 555 l 179 753 q 191 882 179 827 q 231 973 203 937 q 301 1028 258 1010 q 406 1046 345 1046 l 420 978 q 337 923 361 978 q 312 753 312 867 l 312 604 q 302 523 312 557 q 273 465 292 489 q 229 425 255 440 q 170 401 202 410 q 229 378 202 393 q 273 338 255 363 q 302 280 292 314 q 312 199 312 245 l 312 23 q 337 -147 312 -92 q 420 -202 361 -202 l 406 -270 q 301 -252 345 -270 q 231 -197 258 -234 q 191 -106 203 -161 q 179 23 179 -51 l 179 199 q 170 279 179 248 q 144 328 161 310 q 104 353 127 346 q 54 359 81 359 l 54 444 z "},"|":{"ha":279,"x_min":73,"x_max":206,"o":"m 73 1034 l 206 1034 l 206 -203 l 73 -203 l 73 1034 z "},"}":{"ha":491,"x_min":73,"x_max":442,"o":"m 442 332 q 390 326 414 332 q 350 301 367 319 q 324 252 333 283 q 315 172 315 220 l 315 23 q 302 -106 315 -51 q 263 -197 290 -161 q 193 -252 236 -234 q 90 -270 151 -270 l 73 -202 q 157 -147 132 -202 q 182 23 182 -92 l 182 172 q 192 253 182 218 q 221 311 202 287 q 266 351 239 336 q 325 374 292 366 q 266 398 292 382 q 221 437 239 413 q 192 496 202 462 q 182 576 182 530 l 182 753 q 157 923 182 867 q 73 978 132 978 l 90 1046 q 193 1028 151 1046 q 263 973 236 1010 q 302 882 290 937 q 315 753 315 827 l 315 576 q 324 497 315 528 q 350 448 333 466 q 390 423 367 430 q 442 416 414 416 l 442 332 z "},"~":{"ha":955,"x_min":73,"x_max":886,"o":"m 442 307 q 372 353 405 335 q 302 373 339 371 q 270 368 287 374 q 235 349 252 363 q 202 309 218 334 q 175 245 186 284 l 73 298 q 110 388 85 351 q 167 447 136 425 q 233 479 199 469 q 296 488 267 488 q 362 482 334 488 q 416 464 391 475 q 465 437 441 453 q 513 403 488 422 q 585 357 552 375 q 654 338 618 340 q 688 341 670 336 q 723 361 706 347 q 755 400 740 375 q 781 464 770 425 l 886 412 q 848 322 874 358 q 791 263 823 286 q 725 231 759 241 q 662 221 690 221 q 595 228 625 221 q 541 245 566 234 q 492 272 515 256 q 442 307 468 288 z "},"¡":{"ha":397,"x_min":138,"x_max":272,"o":"m 272 -271 l 138 -271 l 138 406 l 272 406 l 272 -271 m 272 572 l 138 572 l 138 678 l 272 678 l 272 572 z "},"¢":{"ha":804,"x_min":104,"x_max":650,"o":"m 104 340 q 123 473 104 412 q 178 578 142 533 q 266 651 214 623 q 382 688 317 679 l 382 804 l 483 804 l 483 690 q 629 655 576 684 l 592 563 q 567 574 580 568 q 537 583 553 579 q 500 590 521 587 q 453 593 479 593 q 365 578 404 593 q 296 533 325 564 q 252 454 268 502 q 237 340 237 406 q 252 226 237 274 q 296 147 268 178 q 365 100 325 115 q 453 85 404 85 q 549 95 510 85 q 617 118 587 104 l 650 31 q 580 1 622 13 q 483 -13 538 -10 l 483 -149 l 382 -149 l 382 -8 q 266 32 317 2 q 178 106 214 61 q 123 211 142 151 q 104 340 104 270 z "},"£":{"ha":777,"x_min":71,"x_max":728,"o":"m 93 510 l 210 510 l 210 674 q 228 795 210 745 q 283 876 246 845 q 374 922 319 907 q 503 936 429 936 q 548 934 524 936 q 594 930 571 932 q 637 923 616 927 q 675 916 658 920 l 673 822 q 640 827 659 825 q 598 832 620 830 q 554 836 577 834 q 511 837 532 837 q 433 827 465 837 q 381 798 401 818 q 352 744 361 777 q 342 665 342 711 l 342 510 l 590 510 l 590 411 l 342 411 l 342 275 q 321 172 342 213 q 258 99 300 130 l 728 99 l 728 0 l 71 0 l 71 99 l 75 99 l 72 100 q 133 115 107 100 q 177 156 159 130 q 202 215 194 181 q 210 286 210 248 l 210 411 l 72 411 l 93 510 z "},"¥":{"ha":804,"x_min":57,"x_max":765,"o":"m 410 457 l 629 922 l 765 922 l 535 452 l 703 452 l 703 353 l 487 353 l 475 329 l 475 264 l 703 264 l 703 165 l 475 165 l 475 0 l 342 0 l 342 165 l 125 165 l 125 264 l 342 264 l 342 333 l 333 353 l 125 353 l 125 452 l 285 452 l 57 922 l 193 922 l 410 457 z "},"§":{"ha":807,"x_min":62,"x_max":739,"o":"m 696 -68 q 675 -171 696 -125 q 615 -249 654 -217 q 523 -298 577 -281 q 401 -315 469 -315 q 322 -309 361 -315 q 249 -296 284 -304 q 184 -277 214 -288 q 130 -258 154 -267 l 144 -164 q 203 -184 174 -174 q 262 -200 232 -193 q 326 -212 293 -208 q 397 -216 359 -216 q 465 -207 434 -216 q 517 -179 495 -197 q 551 -135 539 -161 q 563 -72 563 -108 q 545 -15 563 -39 q 494 31 526 10 q 416 67 461 51 q 319 100 372 84 q 202 146 250 121 q 122 203 153 172 q 76 272 91 234 q 62 355 62 309 q 91 469 62 421 q 174 548 121 516 q 126 611 143 576 q 110 689 110 646 q 131 794 110 747 q 192 872 152 840 q 288 922 231 905 q 418 939 345 939 q 498 933 459 939 q 570 920 536 928 q 630 902 603 911 q 674 883 656 892 l 651 787 q 598 806 624 796 q 545 823 572 815 q 487 835 517 830 q 420 840 457 840 q 287 802 332 840 q 243 696 243 764 q 254 645 243 669 q 291 601 266 622 q 358 561 317 580 q 458 522 399 541 q 586 471 533 498 q 673 411 640 444 q 723 338 707 378 q 739 250 739 298 q 713 141 739 188 q 642 62 688 95 q 682 3 669 35 q 696 -68 696 -29 m 396 430 q 323 457 358 443 q 258 488 289 471 q 206 437 224 468 q 188 365 188 407 q 198 315 188 339 q 230 269 208 291 q 286 228 252 247 q 371 195 321 210 q 473 162 427 180 q 557 125 519 145 q 598 173 583 144 q 614 240 614 201 q 604 299 614 273 q 568 347 593 325 q 502 389 543 370 q 396 430 460 409 z "},"¨":{"ha":655,"x_min":90,"x_max":568,"o":"m 90 951 l 236 951 l 236 831 l 90 831 l 90 951 m 420 951 l 568 951 l 568 831 l 420 831 l 420 951 z "},"©":{"ha":1190,"x_min":108,"x_max":1082,"o":"m 337 454 q 354 566 337 516 q 405 650 372 615 q 486 704 437 685 q 595 723 534 723 q 695 711 655 723 q 763 681 734 699 l 741 606 q 716 618 729 612 q 687 628 703 623 q 650 635 671 632 q 601 637 629 637 q 535 627 564 637 q 484 594 505 616 q 452 537 463 572 q 441 454 441 503 q 452 371 441 406 q 485 313 464 336 q 537 279 507 290 q 604 269 567 269 q 657 271 633 269 q 699 279 680 274 q 734 290 718 284 q 766 304 750 296 l 789 233 q 717 198 758 213 q 615 183 676 183 q 497 202 549 183 q 410 257 446 222 q 356 343 374 293 q 337 454 337 393 m 595 936 q 788 903 699 936 q 943 808 878 869 q 1045 658 1008 746 q 1082 461 1082 570 q 1045 264 1082 352 q 943 115 1008 176 q 788 20 878 53 q 595 -14 699 -14 q 402 20 492 -14 q 248 115 313 53 q 145 264 182 176 q 108 461 108 352 q 145 658 108 570 q 248 808 182 746 q 402 903 313 869 q 595 936 492 936 m 595 58 q 751 83 678 58 q 879 157 825 107 q 965 282 934 207 q 997 461 997 358 q 965 640 997 564 q 879 766 934 716 q 751 841 825 816 q 595 865 678 865 q 439 841 512 865 q 313 766 367 816 q 227 640 258 716 q 196 461 196 564 q 227 282 196 358 q 313 157 258 207 q 439 83 367 107 q 595 58 512 58 z "},"ª":{"ha":581,"x_min":54,"x_max":482,"o":"m 369 732 l 369 746 q 363 796 369 776 q 345 829 357 817 q 314 846 332 841 q 273 852 296 852 q 231 849 253 852 q 188 842 209 846 q 148 832 167 838 q 113 821 128 827 l 88 894 q 130 910 107 903 q 179 924 153 918 q 232 933 205 930 q 285 936 258 936 q 365 927 329 936 q 428 897 401 918 q 468 839 454 876 q 482 746 482 802 l 482 453 l 385 453 l 376 504 q 347 483 363 494 q 311 464 330 472 q 268 449 291 455 q 221 444 245 444 q 147 455 178 444 q 95 486 115 467 q 64 531 74 505 q 54 586 54 557 q 70 643 54 616 q 115 690 85 670 q 184 721 144 709 q 275 732 225 732 l 369 732 m 250 525 q 283 529 267 525 q 315 541 300 534 q 344 555 330 547 q 369 571 358 564 l 369 659 l 286 659 q 225 651 248 659 q 189 630 202 642 q 171 605 176 618 q 166 583 166 592 q 191 540 166 555 q 250 525 215 525 z "},"«":{"ha":747,"x_min":73,"x_max":686,"o":"m 384 103 l 309 28 l 73 290 l 73 347 l 309 623 l 384 548 l 215 320 l 384 103 m 686 103 l 612 28 l 376 290 l 376 347 l 612 623 l 686 548 l 517 320 l 686 103 z "},"¬":{"ha":823,"x_min":73,"x_max":739,"o":"m 73 403 l 73 502 l 739 502 l 739 237 l 618 237 l 618 403 l 73 403 z "},"®":{"ha":1190,"x_min":108,"x_max":1082,"o":"m 595 936 q 788 903 699 936 q 943 808 878 869 q 1045 658 1008 746 q 1082 461 1082 570 q 1045 264 1082 352 q 943 115 1008 176 q 788 20 878 53 q 595 -14 699 -14 q 402 20 492 -14 q 248 115 313 53 q 145 264 182 176 q 108 461 108 352 q 145 658 108 570 q 248 808 182 746 q 402 903 313 869 q 595 936 492 936 m 595 58 q 751 83 678 58 q 879 157 825 107 q 965 282 934 207 q 997 461 997 358 q 965 640 997 564 q 879 766 934 716 q 751 841 825 816 q 595 865 678 865 q 439 841 512 865 q 313 766 367 816 q 227 640 258 716 q 196 461 196 564 q 227 282 196 358 q 313 157 258 207 q 439 83 367 107 q 595 58 512 58 m 412 715 l 610 715 q 688 706 652 715 q 749 677 724 696 q 789 629 774 659 q 803 559 803 600 q 775 482 803 514 q 706 432 748 450 l 817 225 l 716 225 l 619 412 l 506 412 l 506 225 l 412 225 l 412 715 m 506 636 l 506 486 l 634 486 q 658 492 646 488 q 682 505 671 497 q 699 526 692 513 q 706 556 706 538 q 678 618 706 600 q 600 636 650 636 l 506 636 z "},"¯":{"ha":669,"x_min":73,"x_max":597,"o":"m 73 951 l 597 951 l 597 852 l 73 852 l 73 951 z "},"°":{"ha":479,"x_min":73,"x_max":408,"o":"m 239 933 q 304 921 274 933 q 358 888 335 909 q 394 839 381 867 q 408 780 408 811 q 394 721 408 748 q 358 672 381 693 q 304 640 335 652 q 239 628 274 628 q 174 640 204 628 q 121 672 144 652 q 86 721 99 693 q 73 780 73 748 q 86 839 73 811 q 121 888 99 867 q 174 921 144 909 q 239 933 204 933 m 239 700 q 274 706 258 700 q 302 724 290 713 q 321 749 314 734 q 328 780 328 764 q 321 811 328 797 q 302 837 314 826 q 274 854 290 848 q 239 860 258 860 q 205 854 221 860 q 178 837 190 848 q 159 811 166 826 q 152 780 152 797 q 159 749 152 764 q 178 724 166 734 q 205 706 190 713 q 239 700 221 700 z "},"±":{"ha":723,"x_min":65,"x_max":651,"o":"m 308 430 l 73 430 l 73 529 l 308 529 l 308 743 l 417 743 l 417 529 l 651 529 l 651 430 l 417 430 l 417 214 l 308 214 l 308 430 m 65 -1 l 65 96 l 643 96 l 643 -1 l 65 -1 z "},"´":{"ha":420,"x_min":90,"x_max":378,"o":"m 234 963 l 378 922 l 185 754 l 90 781 l 234 963 z "},"µ":{"ha":820,"x_min":124,"x_max":705,"o":"m 257 202 q 267 147 258 170 q 293 111 275 125 q 336 92 310 98 q 399 85 363 85 q 491 104 448 85 q 572 155 534 123 l 572 678 l 705 678 l 705 0 l 586 0 l 577 73 q 485 9 534 33 q 381 -14 436 -14 q 313 -8 345 -14 q 257 9 282 -3 l 257 -271 l 124 -271 l 124 678 l 257 678 l 257 202 z "},"¶":{"ha":707,"x_min":73,"x_max":596,"o":"m 596 0 l 463 0 l 463 353 l 427 353 q 277 373 343 353 q 166 431 212 393 q 97 522 121 469 q 73 639 73 574 q 97 756 73 703 q 166 845 121 808 q 277 902 212 882 q 427 922 343 922 l 596 922 l 596 0 z "},"·":{"ha":297,"x_min":73,"x_max":226,"o":"m 73 133 l 226 133 l 226 0 l 73 0 l 73 133 z "},"¸":{"ha":415,"x_min":102,"x_max":362,"o":"m 338 14 q 362 -79 362 -31 q 347 -147 362 -115 q 303 -204 332 -180 q 229 -243 273 -229 q 126 -258 185 -258 l 102 -183 q 210 -147 175 -176 q 245 -76 245 -119 q 215 14 245 -36 l 338 14 z "},"º":{"ha":575,"x_min":57,"x_max":522,"o":"m 57 690 q 73 793 57 747 q 119 870 89 838 q 191 919 149 902 q 286 936 233 936 q 383 919 339 936 q 457 870 427 902 q 505 793 488 838 q 522 690 522 747 q 505 587 522 633 q 457 510 488 542 q 383 462 427 479 q 286 445 339 445 q 191 462 233 445 q 119 510 149 479 q 73 587 89 542 q 57 690 57 633 m 169 690 q 178 618 169 648 q 202 568 186 587 q 239 538 218 548 q 286 529 260 529 q 336 538 313 529 q 376 568 359 548 q 401 618 392 587 q 410 690 410 648 q 401 764 410 733 q 376 814 392 795 q 336 844 359 834 q 286 853 313 853 q 239 844 260 853 q 202 814 218 834 q 178 764 186 795 q 169 690 169 733 z "},"»":{"ha":748,"x_min":60,"x_max":673,"o":"m 60 548 l 133 623 l 369 361 l 369 304 l 133 28 l 60 103 l 228 331 l 60 548 m 363 548 l 437 623 l 673 361 l 673 304 l 437 28 l 363 103 l 532 331 l 363 548 z "},"¿":{"ha":667,"x_min":68,"x_max":625,"o":"m 444 433 q 438 341 444 380 q 417 270 431 301 q 381 212 404 238 q 328 161 359 187 q 273 116 296 138 q 233 74 249 95 q 209 30 217 52 q 201 -20 201 7 q 213 -76 201 -50 q 246 -119 225 -101 q 298 -148 267 -138 q 366 -158 328 -158 q 430 -152 400 -158 q 487 -136 460 -146 q 539 -112 514 -125 q 590 -84 565 -99 l 625 -170 q 575 -200 604 -185 q 512 -228 547 -216 q 436 -250 477 -241 q 349 -258 395 -258 q 231 -241 283 -258 q 142 -194 178 -224 q 87 -119 106 -163 q 68 -19 68 -75 q 87 67 68 29 q 136 136 107 105 q 200 194 165 168 q 266 246 235 220 q 294 277 283 260 q 311 316 305 294 q 319 367 317 338 q 321 433 321 395 l 444 433 m 450 559 l 318 559 l 318 678 l 450 678 l 450 559 z "},"Æ":{"ha":1323,"x_min":73,"x_max":1249,"o":"m 706 235 l 372 235 l 221 0 l 73 0 l 671 922 l 1249 922 l 1249 823 l 839 823 l 839 522 l 1205 522 l 1205 423 l 839 423 l 839 99 l 1249 99 l 1249 0 l 706 0 l 706 235 m 706 334 l 706 755 l 435 334 l 706 334 z "},"Ø":{"ha":936,"x_min":66,"x_max":871,"o":"m 66 461 q 96 658 66 570 q 178 808 125 746 q 305 903 231 869 q 468 936 379 936 q 591 918 534 936 q 697 864 649 899 l 738 922 l 850 922 l 765 799 q 843 652 815 737 q 871 461 871 567 q 841 263 871 351 q 758 114 811 176 q 630 19 705 52 q 468 -14 556 -14 q 348 3 404 -14 q 245 53 292 20 l 208 -1 l 97 -1 l 177 115 q 95 264 124 177 q 66 461 66 351 m 199 461 q 212 325 199 385 q 249 219 225 264 l 635 774 q 559 821 601 806 q 468 837 517 837 q 359 813 409 837 q 274 743 310 790 q 219 626 239 696 q 199 461 199 555 m 738 461 q 726 592 738 534 q 692 695 714 650 l 308 142 q 381 100 340 114 q 468 85 421 85 q 577 109 528 85 q 663 179 627 132 q 718 296 699 226 q 738 461 738 367 z "},"ß":{"ha":879,"x_min":111,"x_max":806,"o":"m 111 -130 l 111 663 q 133 776 111 724 q 196 867 155 829 q 296 928 237 906 q 426 951 354 951 q 546 937 495 951 q 631 899 597 924 q 681 838 665 873 q 698 758 698 802 q 693 717 698 735 q 682 684 689 699 q 666 657 675 669 q 646 633 656 644 q 628 607 636 619 q 613 581 619 594 q 604 553 607 568 q 600 522 600 539 q 607 489 600 505 q 627 459 614 473 q 654 433 639 446 q 687 407 670 420 q 731 372 709 390 q 769 331 752 353 q 796 281 785 309 q 806 217 806 253 q 781 110 806 155 q 712 36 755 64 q 613 -7 669 7 q 498 -20 557 -20 q 401 -13 444 -20 q 334 0 358 -6 l 352 99 q 411 86 374 93 q 500 79 448 79 q 566 87 534 79 q 622 112 597 95 q 660 156 646 130 q 673 218 673 182 q 665 255 673 238 q 644 288 657 273 q 616 315 631 302 q 587 339 602 328 q 542 376 564 357 q 504 416 521 395 q 477 463 487 437 q 467 522 467 489 q 484 607 467 568 q 530 685 500 646 q 553 719 541 699 q 565 758 565 739 q 531 825 565 799 q 422 852 496 852 q 350 837 382 852 q 294 797 317 822 q 257 737 270 771 q 244 663 244 703 l 244 -130 l 111 -130 z "},"æ":{"ha":1193,"x_min":77,"x_max":1121,"o":"m 513 381 l 513 422 q 505 501 513 469 q 479 551 497 532 q 433 577 461 570 q 366 585 405 585 q 310 581 339 585 q 253 570 281 576 q 201 555 226 563 q 159 538 176 547 l 126 631 q 181 654 151 643 q 244 673 211 665 q 311 687 277 682 q 378 692 345 692 q 513 672 455 692 q 604 601 570 652 q 705 669 646 646 q 835 692 763 692 q 947 673 895 692 q 1038 621 999 655 q 1099 536 1076 586 q 1121 422 1121 486 l 1121 323 l 648 323 q 705 148 650 210 q 863 85 760 85 q 926 89 897 85 q 979 98 955 93 q 1021 111 1002 104 q 1056 123 1040 117 l 1088 37 q 987 0 1046 13 q 863 -14 929 -14 q 717 9 781 -14 q 609 74 654 31 q 558 46 588 60 q 489 19 528 31 q 401 -1 450 7 q 293 -9 352 -9 q 200 5 240 -9 q 132 44 159 19 q 91 105 104 70 q 77 180 77 140 q 98 260 77 224 q 156 324 119 297 q 243 366 193 351 q 352 381 294 381 l 513 381 m 330 90 q 441 99 394 90 q 513 118 489 109 l 513 297 l 368 297 q 292 288 322 297 q 243 261 261 278 q 217 223 224 245 q 210 176 210 201 q 219 136 210 153 q 245 109 229 119 q 283 94 261 99 q 330 90 304 90 m 835 593 q 768 585 798 593 q 714 556 738 576 q 675 504 691 536 q 653 422 660 471 l 988 422 q 975 501 988 469 q 941 554 962 534 q 892 584 920 574 q 835 593 865 593 z "},"÷":{"ha":723,"x_min":73,"x_max":651,"o":"m 73 357 l 73 456 l 651 456 l 651 357 l 73 357 m 293 663 l 426 663 l 426 543 l 293 543 l 293 663 m 293 256 l 426 256 l 426 136 l 293 136 l 293 256 z "},"ø":{"ha":825,"x_min":66,"x_max":761,"o":"m 77 339 q 100 486 77 421 q 167 597 124 551 q 271 667 210 643 q 405 692 331 692 q 514 676 464 692 q 605 631 564 661 l 645 678 l 761 678 l 667 568 q 718 467 700 524 q 735 339 735 409 q 711 191 735 256 q 644 80 687 126 q 539 11 600 35 q 405 -14 478 -14 q 302 0 350 -14 q 215 39 254 14 l 182 0 l 66 0 l 151 99 q 96 204 115 144 q 77 339 77 264 m 210 339 q 233 196 210 253 l 533 547 q 475 582 507 570 q 405 593 443 593 q 326 578 361 593 q 264 533 290 564 q 224 454 238 502 q 210 339 210 406 m 602 339 q 597 410 602 378 q 583 469 592 443 l 287 123 q 340 94 311 103 q 405 85 370 85 q 485 100 448 85 q 547 145 521 115 q 588 224 573 176 q 602 339 602 273 z "},"ı":{"ha":279,"x_min":73,"x_max":206,"o":"m 73 678 l 206 678 l 206 0 l 73 0 l 73 678 z "},"Œ":{"ha":1200,"x_min":73,"x_max":1125,"o":"m 591 0 q 569 -2 582 -1 q 538 -3 555 -3 q 343 30 429 -3 q 197 122 257 62 q 105 268 137 182 q 73 461 73 354 q 105 653 73 568 q 197 799 137 739 q 343 891 257 859 q 538 924 429 924 q 560 924 549 924 q 582 922 570 924 l 1125 922 l 1125 823 l 715 823 l 715 522 l 1081 522 l 1081 423 l 715 423 l 715 99 l 1125 99 l 1125 0 l 591 0 m 538 96 q 582 101 561 96 l 582 820 q 561 823 571 822 q 538 825 550 825 q 398 799 460 825 q 294 726 336 774 q 229 612 251 679 q 206 461 206 545 q 229 310 206 378 q 294 195 251 243 q 398 122 336 148 q 538 96 460 96 z "},"œ":{"ha":1285,"x_min":82,"x_max":1215,"o":"m 82 339 q 106 486 82 421 q 173 597 130 551 q 276 667 216 643 q 410 692 336 692 q 562 660 495 692 q 673 568 629 628 q 780 660 715 629 q 929 692 844 692 q 1041 673 989 692 q 1132 621 1093 655 q 1193 536 1171 586 q 1215 422 1215 486 l 1215 323 l 742 323 q 799 148 745 210 q 957 85 854 85 q 1020 89 991 85 q 1073 98 1049 93 q 1116 111 1097 104 q 1150 123 1135 117 l 1182 37 q 1082 0 1140 13 q 957 -14 1023 -14 q 788 18 860 -14 q 673 109 717 50 q 562 18 629 50 q 410 -14 495 -14 q 276 11 336 -14 q 173 80 216 35 q 106 191 130 126 q 82 339 82 256 m 215 339 q 229 224 215 273 q 269 145 243 176 q 331 100 295 115 q 410 85 367 85 q 490 100 454 85 q 552 145 526 115 q 593 224 578 176 q 608 339 608 273 q 593 454 608 406 q 552 533 578 502 q 490 578 526 564 q 410 593 454 593 q 331 578 367 593 q 269 533 295 564 q 229 454 243 502 q 215 339 215 406 m 929 593 q 862 585 892 593 q 809 556 832 576 q 770 504 785 536 q 747 422 754 471 l 1082 422 q 1069 501 1082 469 q 1035 554 1057 534 q 986 584 1014 574 q 929 593 959 593 z "},"ƒ":{"ha":524,"x_min":-46,"x_max":528,"o":"m 64 678 l 155 678 l 155 720 q 171 839 155 792 q 218 913 187 886 q 293 952 249 941 q 394 963 338 963 q 429 961 411 963 q 465 957 448 960 q 499 950 483 954 q 528 943 515 947 l 524 850 q 499 856 513 853 q 470 860 486 858 q 439 863 455 862 q 408 864 422 864 q 353 857 376 864 q 316 832 331 849 q 294 787 301 814 q 288 720 288 760 l 288 678 l 485 678 l 485 587 l 288 587 l 288 -83 q 273 -177 288 -138 q 230 -239 258 -215 q 163 -273 202 -262 q 75 -283 123 -283 q 11 -278 41 -283 q -46 -263 -20 -273 l -32 -171 q 13 -180 -13 -176 q 66 -184 38 -184 q 135 -163 115 -184 q 155 -90 155 -142 l 155 587 l 51 587 l 64 678 z "},"ˆ":{"ha":574,"x_min":60,"x_max":545,"o":"m 201 779 l 60 779 l 262 936 l 345 936 l 545 779 l 406 779 l 303 858 l 201 779 z "},"ˇ":{"ha":574,"x_min":60,"x_max":545,"o":"m 406 936 l 545 936 l 345 779 l 262 779 l 60 936 l 201 936 l 303 848 l 406 936 z "},"˘":{"ha":543,"x_min":46,"x_max":513,"o":"m 279 772 q 184 782 227 771 q 111 813 142 792 q 63 864 80 833 q 46 936 46 895 l 151 936 q 183 869 151 894 q 279 844 216 844 q 377 869 345 844 q 409 936 409 894 l 513 936 q 496 864 513 895 q 448 813 479 833 q 373 782 416 792 q 279 772 330 771 z "},"˙":{"ha":293,"x_min":73,"x_max":221,"o":"m 73 951 l 221 951 l 221 831 l 73 831 l 73 951 z "},"˚":{"ha":433,"x_min":73,"x_max":361,"o":"m 217 1096 q 273 1085 247 1096 q 319 1057 299 1075 q 350 1015 338 1039 q 361 964 361 991 q 350 913 361 937 q 319 871 338 889 q 273 843 299 853 q 217 833 247 833 q 161 843 187 833 q 116 871 135 853 q 85 913 96 889 q 73 964 73 937 q 85 1015 73 991 q 116 1057 96 1039 q 161 1085 135 1075 q 217 1096 187 1096 m 217 911 q 258 927 242 911 q 275 964 275 943 q 258 1002 275 987 q 217 1017 242 1017 q 177 1002 194 1017 q 159 964 159 987 q 177 927 159 943 q 217 911 194 911 z "},"˛":{"ha":363,"x_min":68,"x_max":296,"o":"m 296 0 q 210 -55 239 -22 q 180 -133 180 -88 q 184 -153 180 -144 q 196 -169 189 -162 q 211 -178 203 -175 q 229 -182 220 -182 q 246 -181 239 -182 q 258 -180 253 -181 q 269 -178 264 -179 q 281 -174 274 -176 l 296 -250 q 283 -255 292 -252 q 262 -260 274 -258 q 236 -263 250 -262 q 210 -264 222 -264 q 105 -232 142 -264 q 68 -142 68 -200 q 79 -81 68 -109 q 109 -31 90 -53 q 154 7 128 -9 q 208 30 180 22 l 296 3 l 296 0 z "},"˜":{"ha":654,"x_min":73,"x_max":582,"o":"m 429 863 q 450 866 438 863 q 472 878 461 870 q 494 899 484 886 q 511 928 504 911 l 582 873 q 555 830 571 849 q 522 798 540 811 q 485 776 505 784 q 448 765 466 768 q 433 763 440 764 q 419 762 426 762 q 353 778 382 762 q 298 812 323 793 q 257 836 276 828 q 227 842 239 844 q 208 839 217 842 q 188 830 198 837 q 168 811 178 823 q 144 780 157 799 l 73 830 q 99 873 83 854 q 134 905 115 892 q 171 928 152 919 q 208 940 191 937 q 231 942 220 942 q 300 926 269 942 q 358 891 331 910 q 397 869 378 875 q 429 863 416 863 z "},"˝":{"ha":760,"x_min":100,"x_max":690,"o":"m 262 977 l 394 936 l 185 754 l 100 781 l 262 977 m 545 977 l 690 936 l 437 754 l 340 781 l 545 977 z "},"π":{"ha":894,"x_min":50,"x_max":852,"o":"m 699 581 l 699 214 q 707 162 699 186 q 730 121 714 138 q 769 95 745 104 q 827 87 793 86 l 822 -12 q 811 -13 817 -13 q 800 -13 805 -13 q 626 45 685 -13 q 566 212 566 102 l 566 581 l 345 581 l 345 0 l 212 0 l 212 581 l 50 581 l 50 680 l 852 680 l 852 581 l 699 581 z "},"–":{"ha":707,"x_min":23,"x_max":688,"o":"m 23 397 l 23 496 l 688 496 l 688 397 l 23 397 z "},"—":{"ha":1195,"x_min":60,"x_max":1141,"o":"m 60 397 l 60 496 l 1141 496 l 1141 397 l 60 397 z "},"‘":{"ha":332,"x_min":60,"x_max":275,"o":"m 211 633 l 60 633 l 179 951 l 275 937 l 211 633 z "},"’":{"ha":332,"x_min":60,"x_max":275,"o":"m 123 951 l 275 951 l 155 633 l 60 647 l 123 951 z "},"‚":{"ha":397,"x_min":84,"x_max":286,"o":"m 133 119 l 286 119 l 180 -198 l 84 -184 l 133 119 z "},"“":{"ha":547,"x_min":57,"x_max":488,"o":"m 208 633 l 57 633 l 177 951 l 272 937 l 208 633 m 424 633 l 273 633 l 393 951 l 488 937 l 424 633 z "},"”":{"ha":547,"x_min":60,"x_max":490,"o":"m 123 951 l 275 951 l 155 633 l 60 647 l 123 951 m 338 951 l 490 951 l 370 633 l 275 647 l 338 951 z "},"„":{"ha":594,"x_min":84,"x_max":511,"o":"m 133 119 l 286 119 l 180 -198 l 84 -184 l 133 119 m 358 119 l 511 119 l 406 -198 l 309 -184 l 358 119 z "},"†":{"ha":752,"x_min":73,"x_max":680,"o":"m 435 579 l 435 0 l 302 0 l 302 579 l 73 579 l 73 678 l 302 678 l 302 922 l 435 922 l 435 678 l 680 678 l 680 579 l 435 579 z "},"‡":{"ha":752,"x_min":73,"x_max":682,"o":"m 437 0 l 437 -271 l 302 -271 l 302 0 l 73 0 l 73 102 l 302 102 l 302 576 l 73 576 l 73 678 l 302 678 l 302 922 l 437 922 l 437 678 l 682 678 l 682 576 l 437 576 l 437 102 l 682 102 l 682 0 l 437 0 z "},"•":{"ha":479,"x_min":99,"x_max":382,"o":"m 239 594 q 297 583 271 594 q 342 553 323 572 q 372 508 361 534 q 382 454 382 483 q 372 400 382 426 q 342 356 361 375 q 297 327 323 338 q 239 316 271 316 q 181 327 207 316 q 137 356 155 338 q 109 400 119 375 q 99 454 99 426 q 109 508 99 483 q 137 553 119 534 q 181 583 155 572 q 239 594 207 594 z "},"…":{"ha":1048,"x_min":113,"x_max":920,"o":"m 113 133 l 267 133 l 267 0 l 113 0 l 113 133 m 436 133 l 589 133 l 589 0 l 436 0 l 436 133 m 766 133 l 920 133 l 920 0 l 766 0 l 766 133 z "},"‰":{"ha":1326,"x_min":73,"x_max":1257,"o":"m 528 197 q 544 283 528 245 q 587 348 559 321 q 653 389 614 374 q 736 403 691 403 q 825 388 785 403 q 892 343 864 372 q 959 388 920 372 q 1047 403 998 403 q 1133 389 1094 403 q 1199 348 1171 374 q 1242 283 1227 321 q 1257 197 1257 245 q 1242 110 1257 148 q 1199 45 1227 71 q 1133 4 1171 18 q 1047 -9 1094 -9 q 892 49 949 -9 q 825 5 864 20 q 736 -9 785 -9 q 653 4 691 -9 q 587 45 614 18 q 544 110 559 71 q 528 197 528 148 m 73 730 q 89 816 73 778 q 132 881 104 854 q 198 922 159 907 q 283 936 237 936 q 369 922 330 936 q 435 881 408 907 q 478 816 463 854 q 494 730 494 778 q 478 643 494 681 q 435 578 463 604 q 369 537 408 551 q 283 524 330 524 q 198 537 237 524 q 132 578 159 551 q 89 643 104 604 q 73 730 73 681 m 946 197 q 974 104 946 137 q 1047 72 1002 72 q 1121 104 1093 72 q 1149 197 1149 137 q 1121 288 1149 256 q 1047 320 1093 320 q 975 290 1003 320 q 946 202 947 259 l 946 197 m 635 197 q 664 104 635 137 q 736 72 692 72 q 810 104 783 72 q 838 197 838 137 l 838 202 q 809 290 837 259 q 736 320 781 320 q 664 288 692 320 q 635 197 635 256 m 182 730 q 210 638 182 671 q 283 605 239 605 q 356 637 329 605 q 384 730 384 670 q 356 821 384 789 q 283 853 329 853 q 210 821 239 853 q 182 730 182 789 m 761 922 l 867 922 l 246 0 l 138 0 l 761 922 z "},"‹":{"ha":441,"x_min":73,"x_max":384,"o":"m 384 103 l 309 28 l 73 290 l 73 347 l 309 623 l 384 548 l 215 320 l 384 103 z "},"›":{"ha":441,"x_min":60,"x_max":369,"o":"m 60 548 l 133 623 l 369 361 l 369 304 l 133 28 l 60 103 l 228 331 l 60 548 z "},"⁄":{"ha":755,"x_min":14,"x_max":743,"o":"m 637 922 l 743 922 l 122 0 l 14 0 l 637 922 z "},"€":{"ha":804,"x_min":47,"x_max":752,"o":"m 47 595 l 190 595 q 233 737 203 674 q 308 844 263 800 q 410 912 352 888 q 538 936 468 936 q 601 932 572 936 q 652 922 629 928 q 695 908 675 916 q 732 891 715 900 l 695 803 q 624 828 662 819 q 538 837 585 837 q 461 823 496 837 q 398 779 426 808 q 351 704 370 749 q 321 595 332 658 l 685 595 l 685 496 l 313 496 q 312 480 312 488 q 312 463 312 471 q 312 433 312 447 q 313 406 313 419 l 685 406 l 685 307 l 326 307 q 359 208 338 250 q 409 139 380 166 q 474 99 438 112 q 553 85 511 85 q 607 89 582 85 q 652 99 631 93 q 691 112 673 105 q 724 126 709 119 l 752 39 q 665 2 716 17 q 538 -14 614 -14 q 414 9 471 -14 q 314 73 358 31 q 240 173 271 114 q 194 307 210 233 l 47 307 l 47 406 l 181 406 q 179 463 179 433 q 179 479 179 471 q 180 496 179 488 l 47 496 l 47 595 z "},"™":{"ha":955,"x_min":47,"x_max":876,"o":"m 677 756 l 781 922 l 876 922 l 876 587 l 799 587 l 799 832 l 708 685 l 709 684 l 645 684 l 645 685 l 553 836 l 553 587 l 474 587 l 474 922 l 575 922 l 677 756 m 262 863 l 262 587 l 185 587 l 185 863 l 47 863 l 47 922 l 397 922 l 397 863 l 262 863 z "},"≤":{"ha":719,"x_min":71,"x_max":654,"o":"m 654 242 l 654 132 l 76 339 l 76 435 l 654 642 l 654 532 l 221 387 l 654 242 m 71 0 l 71 94 l 649 94 l 649 0 l 71 0 z "},"≥":{"ha":720,"x_min":71,"x_max":652,"o":"m 75 532 l 75 642 l 652 435 l 652 339 l 75 132 l 75 242 l 507 387 l 75 532 m 71 0 l 71 94 l 649 94 l 649 0 l 71 0 z "},"ﬁ":{"ha":846,"x_min":51,"x_max":713,"o":"m 64 678 l 155 678 l 155 701 q 175 823 155 772 q 235 906 196 873 q 328 954 273 939 q 452 970 383 970 q 561 964 507 970 q 655 949 614 958 l 655 857 q 614 862 637 860 q 565 867 591 865 q 511 870 538 869 q 457 871 484 871 q 380 861 412 871 q 328 831 349 852 q 297 779 307 811 q 288 701 288 747 l 288 678 l 488 678 l 488 587 l 288 587 l 288 0 l 155 0 l 155 587 l 51 587 l 64 678 m 580 678 l 713 678 l 713 0 l 580 0 l 580 678 z "},"ﬂ":{"ha":901,"x_min":51,"x_max":769,"o":"m 769 949 l 769 0 l 636 0 l 636 859 q 552 867 600 864 q 457 871 504 871 q 380 861 412 871 q 328 831 349 852 q 297 779 307 811 q 288 701 288 747 l 288 678 l 488 678 l 488 587 l 288 587 l 288 0 l 155 0 l 155 587 l 51 587 l 64 678 l 155 678 l 155 701 q 175 823 155 772 q 235 906 196 873 q 328 954 273 939 q 452 970 383 970 q 561 964 507 970 q 655 949 614 958 l 769 949 z "},"#":{"ha":949,"x_min":73,"x_max":857,"o":"m 508 233 l 363 233 l 334 0 l 201 0 l 231 233 l 73 233 l 73 335 l 243 335 l 274 575 l 110 575 l 110 677 l 287 677 l 319 922 l 450 922 l 419 677 l 564 677 l 595 922 l 730 922 l 698 677 l 857 677 l 857 575 l 685 575 l 654 335 l 822 335 l 822 233 l 642 233 l 612 0 l 478 0 l 508 233 m 376 335 l 521 335 l 551 575 l 406 575 l 376 335 z "},"!":{"ha":397,"x_min":133,"x_max":267,"o":"m 133 949 l 267 949 l 267 273 l 133 273 l 133 949 m 133 106 l 267 106 l 267 0 l 133 0 l 133 106 z "},"\"":{"ha":447,"x_min":60,"x_max":389,"o":"m 60 922 l 198 922 l 147 625 l 60 632 l 60 922 m 252 922 l 389 922 l 340 625 l 252 632 l 252 922 z "},"Á":{"ha":905,"x_min":49,"x_max":859,"o":"m 644 235 l 263 235 l 182 0 l 49 0 l 385 922 l 521 922 l 859 0 l 726 0 l 644 235 m 298 334 l 610 334 l 454 780 l 298 334 m 541 1208 l 685 1168 l 492 1000 l 396 1027 l 541 1208 z "},"Â":{"ha":905,"x_min":49,"x_max":859,"o":"m 644 235 l 263 235 l 182 0 l 49 0 l 385 922 l 521 922 l 859 0 l 726 0 l 644 235 m 298 334 l 610 334 l 454 780 l 298 334 m 368 998 l 227 998 l 429 1156 l 513 1156 l 713 998 l 574 998 l 471 1078 l 368 998 z "},"Ä":{"ha":905,"x_min":49,"x_max":859,"o":"m 644 235 l 263 235 l 182 0 l 49 0 l 385 922 l 521 922 l 859 0 l 726 0 l 644 235 m 298 334 l 610 334 l 454 780 l 298 334 m 233 1118 l 380 1118 l 380 998 l 233 998 l 233 1118 m 564 1118 l 711 1118 l 711 998 l 564 998 l 564 1118 z "},"À":{"ha":905,"x_min":49,"x_max":859,"o":"m 644 235 l 263 235 l 182 0 l 49 0 l 385 922 l 521 922 l 859 0 l 726 0 l 644 235 m 298 334 l 610 334 l 454 780 l 298 334 m 518 1025 l 422 998 l 228 1166 l 372 1207 l 518 1025 z "},"Å":{"ha":905,"x_min":49,"x_max":859,"o":"m 644 235 l 263 235 l 182 0 l 49 0 l 385 922 l 521 922 l 859 0 l 726 0 l 644 235 m 298 334 l 610 334 l 454 780 l 298 334 m 453 1261 q 509 1251 483 1261 q 555 1222 535 1240 q 586 1181 574 1204 q 597 1130 597 1157 q 586 1078 597 1102 q 555 1037 574 1055 q 509 1008 535 1019 q 453 998 483 998 q 397 1008 423 998 q 352 1037 371 1019 q 321 1078 332 1055 q 309 1130 309 1102 q 321 1181 309 1157 q 352 1222 332 1204 q 397 1251 371 1240 q 453 1261 423 1261 m 453 1077 q 494 1093 478 1077 q 511 1130 511 1108 q 494 1167 511 1152 q 453 1183 478 1183 q 413 1167 430 1183 q 395 1130 395 1152 q 413 1093 395 1108 q 453 1077 430 1077 z "},"Ã":{"ha":905,"x_min":49,"x_max":859,"o":"m 644 235 l 263 235 l 182 0 l 49 0 l 385 922 l 521 922 l 859 0 l 726 0 l 644 235 m 298 334 l 610 334 l 454 780 l 298 334 m 555 1097 q 576 1101 564 1097 q 598 1113 587 1105 q 620 1133 610 1121 q 637 1162 630 1145 l 708 1108 q 682 1065 697 1084 q 648 1032 666 1046 q 611 1010 631 1019 q 574 1000 592 1002 q 559 998 566 998 q 545 997 552 997 q 479 1013 509 997 q 424 1047 450 1028 q 384 1070 402 1063 q 353 1077 365 1078 q 334 1074 343 1076 q 314 1065 324 1072 q 294 1046 304 1058 q 271 1015 283 1034 l 199 1065 q 225 1107 210 1088 q 260 1140 241 1126 q 297 1162 278 1154 q 334 1175 317 1171 q 357 1177 347 1177 q 426 1161 395 1177 q 484 1126 457 1145 q 523 1103 504 1109 q 555 1097 542 1097 z "},"Ç":{"ha":761,"x_min":82,"x_max":720,"o":"m 82 463 q 112 657 82 570 q 196 807 141 745 q 329 902 251 869 q 506 936 408 936 q 569 932 541 936 q 620 922 597 928 q 663 908 644 916 q 701 891 683 900 l 663 803 q 592 828 630 819 q 506 837 553 837 q 387 815 441 837 q 295 748 334 793 q 236 631 257 702 q 215 463 215 561 q 237 293 215 364 q 299 176 259 222 q 395 107 339 130 q 521 85 452 85 q 575 89 550 85 q 621 99 600 93 q 659 112 642 105 q 692 126 677 119 l 720 39 q 633 2 684 17 q 506 -14 582 -14 q 329 21 408 -14 q 196 117 251 55 q 112 268 141 180 q 82 463 82 355 m 552 14 q 576 -79 576 -31 q 561 -147 576 -115 q 516 -204 546 -180 q 443 -243 487 -229 q 340 -258 399 -258 l 316 -183 q 424 -147 389 -176 q 458 -76 458 -119 q 429 14 458 -36 l 552 14 z "},"É":{"ha":728,"x_min":124,"x_max":667,"o":"m 124 0 l 124 922 l 667 922 l 667 823 l 257 823 l 257 522 l 623 522 l 623 423 l 257 423 l 257 99 l 667 99 l 667 0 l 124 0 m 481 1207 l 625 1166 l 432 998 l 336 1025 l 481 1207 z "},"Ê":{"ha":728,"x_min":124,"x_max":667,"o":"m 124 0 l 124 922 l 667 922 l 667 823 l 257 823 l 257 522 l 623 522 l 623 423 l 257 423 l 257 99 l 667 99 l 667 0 l 124 0 m 309 997 l 168 997 l 370 1154 l 453 1154 l 653 997 l 514 997 l 411 1076 l 309 997 z "},"Ë":{"ha":728,"x_min":124,"x_max":667,"o":"m 124 0 l 124 922 l 667 922 l 667 823 l 257 823 l 257 522 l 623 522 l 623 423 l 257 423 l 257 99 l 667 99 l 667 0 l 124 0 m 174 1116 l 320 1116 l 320 997 l 174 997 l 174 1116 m 504 1116 l 652 1116 l 652 997 l 504 997 l 504 1116 z "},"È":{"ha":728,"x_min":124,"x_max":667,"o":"m 124 0 l 124 922 l 667 922 l 667 823 l 257 823 l 257 522 l 623 522 l 623 423 l 257 423 l 257 99 l 667 99 l 667 0 l 124 0 m 458 1024 l 362 997 l 168 1165 l 313 1206 l 458 1024 z "},"Í":{"ha":570,"x_min":93,"x_max":517,"o":"m 93 0 l 93 99 l 218 99 l 218 823 l 93 823 l 93 922 l 478 922 l 478 823 l 351 823 l 351 99 l 478 99 l 478 0 l 93 0 m 372 1207 l 517 1166 l 323 998 l 228 1025 l 372 1207 z "},"Î":{"ha":570,"x_min":60,"x_max":545,"o":"m 93 0 l 93 99 l 218 99 l 218 823 l 93 823 l 93 922 l 478 922 l 478 823 l 351 823 l 351 99 l 478 99 l 478 0 l 93 0 m 201 997 l 60 997 l 262 1154 l 345 1154 l 545 997 l 406 997 l 303 1076 l 201 997 z "},"Ï":{"ha":570,"x_min":66,"x_max":544,"o":"m 93 0 l 93 99 l 218 99 l 218 823 l 93 823 l 93 922 l 478 922 l 478 823 l 351 823 l 351 99 l 478 99 l 478 0 l 93 0 m 66 1116 l 212 1116 l 212 997 l 66 997 l 66 1116 m 396 1116 l 544 1116 l 544 997 l 396 997 l 396 1116 z "},"Ì":{"ha":570,"x_min":60,"x_max":478,"o":"m 93 0 l 93 99 l 218 99 l 218 823 l 93 823 l 93 922 l 478 922 l 478 823 l 351 823 l 351 99 l 478 99 l 478 0 l 93 0 m 350 1024 l 254 997 l 60 1165 l 204 1206 l 350 1024 z "},"Ñ":{"ha":987,"x_min":123,"x_max":865,"o":"m 123 922 l 256 922 l 256 922 l 257 922 l 732 206 l 732 922 l 865 922 l 865 0 l 732 0 l 256 718 l 256 0 l 123 0 l 123 922 m 587 1096 q 608 1100 596 1096 q 630 1112 619 1103 q 652 1132 642 1120 q 669 1161 662 1144 l 740 1107 q 713 1063 729 1082 q 680 1031 698 1044 q 643 1009 663 1017 q 606 998 624 1001 q 591 996 598 997 q 577 996 584 996 q 511 1011 541 996 q 456 1046 481 1027 q 415 1069 434 1061 q 385 1076 397 1077 q 366 1073 375 1075 q 346 1063 356 1070 q 326 1044 336 1057 q 302 1013 315 1032 l 231 1063 q 257 1106 241 1087 q 292 1139 273 1125 q 329 1161 310 1152 q 366 1173 349 1170 q 389 1175 378 1175 q 458 1159 427 1175 q 516 1124 489 1143 q 555 1102 536 1108 q 587 1096 574 1096 z "},"Ó":{"ha":955,"x_min":75,"x_max":880,"o":"m 75 461 q 105 658 75 570 q 187 808 134 746 q 314 903 240 869 q 477 936 388 936 q 639 903 565 936 q 767 808 713 869 q 850 658 820 746 q 880 461 880 570 q 850 263 880 351 q 767 114 820 176 q 639 19 713 52 q 477 -14 565 -14 q 314 19 388 -14 q 187 114 240 52 q 105 263 134 176 q 75 461 75 351 m 208 461 q 228 296 208 367 q 283 179 248 226 q 368 109 319 132 q 477 85 418 85 q 586 109 536 85 q 672 179 636 132 q 727 296 707 226 q 747 461 747 367 q 727 626 747 555 q 672 743 707 696 q 586 813 636 790 q 477 837 536 837 q 368 813 418 837 q 283 743 319 790 q 228 626 248 696 q 208 461 208 555 m 561 1219 l 705 1179 l 512 1010 l 416 1038 l 561 1219 z "},"Ô":{"ha":955,"x_min":75,"x_max":880,"o":"m 75 461 q 105 658 75 570 q 187 808 134 746 q 314 903 240 869 q 477 936 388 936 q 639 903 565 936 q 767 808 713 869 q 850 658 820 746 q 880 461 880 570 q 850 263 880 351 q 767 114 820 176 q 639 19 713 52 q 477 -14 565 -14 q 314 19 388 -14 q 187 114 240 52 q 105 263 134 176 q 75 461 75 351 m 208 461 q 228 296 208 367 q 283 179 248 226 q 368 109 319 132 q 477 85 418 85 q 586 109 536 85 q 672 179 636 132 q 727 296 707 226 q 747 461 747 367 q 727 626 747 555 q 672 743 707 696 q 586 813 636 790 q 477 837 536 837 q 368 813 418 837 q 283 743 319 790 q 228 626 248 696 q 208 461 208 555 m 389 1009 l 248 1009 l 450 1166 l 533 1166 l 733 1009 l 594 1009 l 491 1088 l 389 1009 z "},"Ö":{"ha":955,"x_min":75,"x_max":880,"o":"m 75 461 q 105 658 75 570 q 187 808 134 746 q 314 903 240 869 q 477 936 388 936 q 639 903 565 936 q 767 808 713 869 q 850 658 820 746 q 880 461 880 570 q 850 263 880 351 q 767 114 820 176 q 639 19 713 52 q 477 -14 565 -14 q 314 19 388 -14 q 187 114 240 52 q 105 263 134 176 q 75 461 75 351 m 208 461 q 228 296 208 367 q 283 179 248 226 q 368 109 319 132 q 477 85 418 85 q 586 109 536 85 q 672 179 636 132 q 727 296 707 226 q 747 461 747 367 q 727 626 747 555 q 672 743 707 696 q 586 813 636 790 q 477 837 536 837 q 368 813 418 837 q 283 743 319 790 q 228 626 248 696 q 208 461 208 555 m 254 1128 l 400 1128 l 400 1009 l 254 1009 l 254 1128 m 584 1128 l 732 1128 l 732 1009 l 584 1009 l 584 1128 z "},"Ò":{"ha":955,"x_min":75,"x_max":880,"o":"m 75 461 q 105 658 75 570 q 187 808 134 746 q 314 903 240 869 q 477 936 388 936 q 639 903 565 936 q 767 808 713 869 q 850 658 820 746 q 880 461 880 570 q 850 263 880 351 q 767 114 820 176 q 639 19 713 52 q 477 -14 565 -14 q 314 19 388 -14 q 187 114 240 52 q 105 263 134 176 q 75 461 75 351 m 208 461 q 228 296 208 367 q 283 179 248 226 q 368 109 319 132 q 477 85 418 85 q 586 109 536 85 q 672 179 636 132 q 727 296 707 226 q 747 461 747 367 q 727 626 747 555 q 672 743 707 696 q 586 813 636 790 q 477 837 536 837 q 368 813 418 837 q 283 743 319 790 q 228 626 248 696 q 208 461 208 555 m 538 1036 l 442 1009 l 248 1177 l 393 1218 l 538 1036 z "},"Õ":{"ha":955,"x_min":75,"x_max":880,"o":"m 75 461 q 105 658 75 570 q 187 808 134 746 q 314 903 240 869 q 477 936 388 936 q 639 903 565 936 q 767 808 713 869 q 850 658 820 746 q 880 461 880 570 q 850 263 880 351 q 767 114 820 176 q 639 19 713 52 q 477 -14 565 -14 q 314 19 388 -14 q 187 114 240 52 q 105 263 134 176 q 75 461 75 351 m 208 461 q 228 296 208 367 q 283 179 248 226 q 368 109 319 132 q 477 85 418 85 q 586 109 536 85 q 672 179 636 132 q 727 296 707 226 q 747 461 747 367 q 727 626 747 555 q 672 743 707 696 q 586 813 636 790 q 477 837 536 837 q 368 813 418 837 q 283 743 319 790 q 228 626 248 696 q 208 461 208 555 m 575 1108 q 596 1112 585 1108 q 619 1124 608 1116 q 640 1144 630 1132 q 658 1173 650 1156 l 728 1119 q 702 1076 718 1095 q 669 1043 686 1057 q 632 1021 651 1029 q 594 1010 612 1013 q 579 1008 587 1009 q 566 1008 572 1008 q 499 1023 529 1008 q 444 1058 470 1039 q 404 1081 422 1074 q 374 1088 385 1089 q 354 1085 363 1087 q 335 1076 345 1082 q 314 1057 325 1069 q 291 1025 303 1044 l 220 1076 q 246 1118 230 1099 q 280 1151 262 1137 q 318 1173 298 1164 q 355 1185 337 1182 q 378 1187 367 1187 q 447 1172 416 1187 q 505 1137 477 1156 q 543 1114 524 1120 q 575 1108 562 1108 z "},"Ú":{"ha":964,"x_min":124,"x_max":843,"o":"m 710 922 l 843 922 l 843 279 q 817 155 843 209 q 743 63 791 100 q 629 6 696 25 q 482 -14 563 -14 q 336 6 402 -14 q 223 63 271 25 q 150 155 176 100 q 124 279 124 209 l 124 922 l 257 922 l 257 279 q 274 196 257 233 q 320 136 290 160 q 391 98 350 111 q 482 85 433 85 q 575 98 533 85 q 647 136 617 111 q 693 196 677 160 q 710 279 710 233 l 710 922 m 568 1207 l 713 1166 l 519 998 l 424 1025 l 568 1207 z "},"Û":{"ha":964,"x_min":124,"x_max":843,"o":"m 710 922 l 843 922 l 843 279 q 817 155 843 209 q 743 63 791 100 q 629 6 696 25 q 482 -14 563 -14 q 336 6 402 -14 q 223 63 271 25 q 150 155 176 100 q 124 279 124 209 l 124 922 l 257 922 l 257 279 q 274 196 257 233 q 320 136 290 160 q 391 98 350 111 q 482 85 433 85 q 575 98 533 85 q 647 136 617 111 q 693 196 677 160 q 710 279 710 233 l 710 922 m 396 997 l 255 997 l 457 1154 l 541 1154 l 741 997 l 602 997 l 498 1076 l 396 997 z "},"Ü":{"ha":964,"x_min":124,"x_max":843,"o":"m 710 922 l 843 922 l 843 279 q 817 155 843 209 q 743 63 791 100 q 629 6 696 25 q 482 -14 563 -14 q 336 6 402 -14 q 223 63 271 25 q 150 155 176 100 q 124 279 124 209 l 124 922 l 257 922 l 257 279 q 274 196 257 233 q 320 136 290 160 q 391 98 350 111 q 482 85 433 85 q 575 98 533 85 q 647 136 617 111 q 693 196 677 160 q 710 279 710 233 l 710 922 m 261 1116 l 408 1116 l 408 997 l 261 997 l 261 1116 m 591 1116 l 739 1116 l 739 997 l 591 997 l 591 1116 z "},"Ù":{"ha":964,"x_min":124,"x_max":843,"o":"m 710 922 l 843 922 l 843 279 q 817 155 843 209 q 743 63 791 100 q 629 6 696 25 q 482 -14 563 -14 q 336 6 402 -14 q 223 63 271 25 q 150 155 176 100 q 124 279 124 209 l 124 922 l 257 922 l 257 279 q 274 196 257 233 q 320 136 290 160 q 391 98 350 111 q 482 85 433 85 q 575 98 533 85 q 647 136 617 111 q 693 196 677 160 q 710 279 710 233 l 710 922 m 546 1024 l 450 997 l 256 1165 l 400 1206 l 546 1024 z "},"Ÿ":{"ha":804,"x_min":49,"x_max":757,"o":"m 402 457 l 621 922 l 757 922 l 467 329 l 467 0 l 334 0 l 334 333 l 49 922 l 185 922 l 402 457 m 180 1116 l 327 1116 l 327 997 l 180 997 l 180 1116 m 511 1116 l 659 1116 l 659 997 l 511 997 l 511 1116 z "},"á":{"ha":749,"x_min":71,"x_max":639,"o":"m 506 406 l 506 422 q 497 501 506 469 q 471 551 489 532 q 425 577 453 570 q 357 585 397 585 q 302 581 330 585 q 248 572 274 578 q 198 558 222 566 q 158 543 175 551 l 129 635 q 180 658 151 648 q 240 676 209 669 q 305 688 272 684 q 369 692 338 692 q 480 680 431 692 q 566 637 530 667 q 620 554 601 606 q 639 422 639 502 l 639 0 l 536 0 l 518 73 q 482 47 505 62 q 430 19 460 33 q 364 -3 401 6 q 285 -12 328 -12 q 192 4 232 -12 q 124 48 151 20 q 84 113 98 76 q 71 190 71 149 q 92 272 71 233 q 152 341 114 311 q 243 388 191 370 q 358 406 296 406 l 506 406 m 320 87 q 387 95 356 87 q 441 114 417 103 q 481 137 465 125 q 506 155 498 149 l 506 321 l 374 321 q 289 305 322 321 q 237 268 256 290 q 211 223 218 246 q 203 186 203 201 q 212 143 203 162 q 237 112 221 125 q 274 93 252 100 q 320 87 295 87 m 469 990 l 614 949 l 420 781 l 325 808 l 469 990 z "},"â":{"ha":749,"x_min":71,"x_max":642,"o":"m 506 406 l 506 422 q 497 501 506 469 q 471 551 489 532 q 425 577 453 570 q 357 585 397 585 q 302 581 330 585 q 248 572 274 578 q 198 558 222 566 q 158 543 175 551 l 129 635 q 180 658 151 648 q 240 676 209 669 q 305 688 272 684 q 369 692 338 692 q 480 680 431 692 q 566 637 530 667 q 620 554 601 606 q 639 422 639 502 l 639 0 l 536 0 l 518 73 q 482 47 505 62 q 430 19 460 33 q 364 -3 401 6 q 285 -12 328 -12 q 192 4 232 -12 q 124 48 151 20 q 84 113 98 76 q 71 190 71 149 q 92 272 71 233 q 152 341 114 311 q 243 388 191 370 q 358 406 296 406 l 506 406 m 320 87 q 387 95 356 87 q 441 114 417 103 q 481 137 465 125 q 506 155 498 149 l 506 321 l 374 321 q 289 305 322 321 q 237 268 256 290 q 211 223 218 246 q 203 186 203 201 q 212 143 203 162 q 237 112 221 125 q 274 93 252 100 q 320 87 295 87 m 297 780 l 156 780 l 358 937 l 441 937 l 642 780 l 503 780 l 399 859 l 297 780 z "},"ä":{"ha":749,"x_min":71,"x_max":640,"o":"m 506 406 l 506 422 q 497 501 506 469 q 471 551 489 532 q 425 577 453 570 q 357 585 397 585 q 302 581 330 585 q 248 572 274 578 q 198 558 222 566 q 158 543 175 551 l 129 635 q 180 658 151 648 q 240 676 209 669 q 305 688 272 684 q 369 692 338 692 q 480 680 431 692 q 566 637 530 667 q 620 554 601 606 q 639 422 639 502 l 639 0 l 536 0 l 518 73 q 482 47 505 62 q 430 19 460 33 q 364 -3 401 6 q 285 -12 328 -12 q 192 4 232 -12 q 124 48 151 20 q 84 113 98 76 q 71 190 71 149 q 92 272 71 233 q 152 341 114 311 q 243 388 191 370 q 358 406 296 406 l 506 406 m 320 87 q 387 95 356 87 q 441 114 417 103 q 481 137 465 125 q 506 155 498 149 l 506 321 l 374 321 q 289 305 322 321 q 237 268 256 290 q 211 223 218 246 q 203 186 203 201 q 212 143 203 162 q 237 112 221 125 q 274 93 252 100 q 320 87 295 87 m 162 900 l 309 900 l 309 781 l 162 781 l 162 900 m 492 900 l 640 900 l 640 781 l 492 781 l 492 900 z "},"à":{"ha":749,"x_min":71,"x_max":639,"o":"m 506 406 l 506 422 q 497 501 506 469 q 471 551 489 532 q 425 577 453 570 q 357 585 397 585 q 302 581 330 585 q 248 572 274 578 q 198 558 222 566 q 158 543 175 551 l 129 635 q 180 658 151 648 q 240 676 209 669 q 305 688 272 684 q 369 692 338 692 q 480 680 431 692 q 566 637 530 667 q 620 554 601 606 q 639 422 639 502 l 639 0 l 536 0 l 518 73 q 482 47 505 62 q 430 19 460 33 q 364 -3 401 6 q 285 -12 328 -12 q 192 4 232 -12 q 124 48 151 20 q 84 113 98 76 q 71 190 71 149 q 92 272 71 233 q 152 341 114 311 q 243 388 191 370 q 358 406 296 406 l 506 406 m 320 87 q 387 95 356 87 q 441 114 417 103 q 481 137 465 125 q 506 155 498 149 l 506 321 l 374 321 q 289 305 322 321 q 237 268 256 290 q 211 223 218 246 q 203 186 203 201 q 212 143 203 162 q 237 112 221 125 q 274 93 252 100 q 320 87 295 87 m 447 807 l 351 780 l 157 948 l 301 989 l 447 807 z "},"å":{"ha":749,"x_min":71,"x_max":639,"o":"m 506 406 l 506 422 q 497 501 506 469 q 471 551 489 532 q 425 577 453 570 q 357 585 397 585 q 302 581 330 585 q 248 572 274 578 q 198 558 222 566 q 158 543 175 551 l 129 635 q 180 658 151 648 q 240 676 209 669 q 305 688 272 684 q 369 692 338 692 q 480 680 431 692 q 566 637 530 667 q 620 554 601 606 q 639 422 639 502 l 639 0 l 536 0 l 518 73 q 482 47 505 62 q 430 19 460 33 q 364 -3 401 6 q 285 -12 328 -12 q 192 4 232 -12 q 124 48 151 20 q 84 113 98 76 q 71 190 71 149 q 92 272 71 233 q 152 341 114 311 q 243 388 191 370 q 358 406 296 406 l 506 406 m 320 87 q 387 95 356 87 q 441 114 417 103 q 481 137 465 125 q 506 155 498 149 l 506 321 l 374 321 q 289 305 322 321 q 237 268 256 290 q 211 223 218 246 q 203 186 203 201 q 212 143 203 162 q 237 112 221 125 q 274 93 252 100 q 320 87 295 87 m 382 1044 q 438 1033 412 1044 q 484 1005 464 1023 q 514 963 503 987 q 526 912 526 939 q 514 861 526 884 q 484 819 503 837 q 438 791 464 801 q 382 781 412 781 q 326 791 352 781 q 280 819 300 801 q 250 861 261 837 q 238 912 238 884 q 250 963 238 939 q 280 1005 261 987 q 326 1033 300 1023 q 382 1044 352 1044 m 382 859 q 423 875 407 859 q 439 912 439 890 q 423 950 439 935 q 382 965 407 965 q 341 950 359 965 q 324 912 324 935 q 341 875 324 890 q 382 859 359 859 z "},"ã":{"ha":749,"x_min":71,"x_max":639,"o":"m 506 406 l 506 422 q 497 501 506 469 q 471 551 489 532 q 425 577 453 570 q 357 585 397 585 q 302 581 330 585 q 248 572 274 578 q 198 558 222 566 q 158 543 175 551 l 129 635 q 180 658 151 648 q 240 676 209 669 q 305 688 272 684 q 369 692 338 692 q 480 680 431 692 q 566 637 530 667 q 620 554 601 606 q 639 422 639 502 l 639 0 l 536 0 l 518 73 q 482 47 505 62 q 430 19 460 33 q 364 -3 401 6 q 285 -12 328 -12 q 192 4 232 -12 q 124 48 151 20 q 84 113 98 76 q 71 190 71 149 q 92 272 71 233 q 152 341 114 311 q 243 388 191 370 q 358 406 296 406 l 506 406 m 320 87 q 387 95 356 87 q 441 114 417 103 q 481 137 465 125 q 506 155 498 149 l 506 321 l 374 321 q 289 305 322 321 q 237 268 256 290 q 211 223 218 246 q 203 186 203 201 q 212 143 203 162 q 237 112 221 125 q 274 93 252 100 q 320 87 295 87 m 484 879 q 505 883 493 879 q 527 895 516 886 q 549 915 538 903 q 566 944 559 927 l 637 890 q 610 846 626 865 q 577 814 595 827 q 540 792 559 800 q 503 781 521 784 q 488 779 495 780 q 474 779 481 779 q 408 794 437 779 q 353 829 378 810 q 312 852 331 844 q 282 859 294 860 q 262 856 272 858 q 243 846 253 853 q 222 827 233 840 q 199 796 212 815 l 128 846 q 154 889 138 870 q 189 922 170 908 q 226 944 207 935 q 263 956 245 953 q 286 958 275 958 q 355 942 324 958 q 413 907 386 926 q 452 885 433 891 q 484 879 471 879 z "},"ç":{"ha":652,"x_min":78,"x_max":625,"o":"m 78 340 q 101 485 78 420 q 168 596 124 550 q 273 667 211 642 q 413 692 335 692 q 525 682 477 692 q 604 655 572 673 l 566 563 q 541 574 554 568 q 511 583 528 579 q 474 590 495 587 q 427 593 454 593 q 339 578 378 593 q 271 533 299 564 q 227 454 242 502 q 211 340 211 406 q 227 226 211 274 q 271 147 242 178 q 339 100 299 115 q 427 85 378 85 q 523 95 484 85 q 591 118 562 104 l 625 31 q 543 -1 592 11 q 427 -14 494 -14 q 281 12 346 -14 q 172 84 217 37 q 102 195 126 130 q 78 340 78 260 m 471 14 q 495 -79 495 -31 q 480 -147 495 -115 q 436 -204 465 -180 q 362 -243 406 -229 q 259 -258 318 -258 l 235 -183 q 343 -147 308 -176 q 378 -76 378 -119 q 348 14 378 -36 l 471 14 z "},"é":{"ha":753,"x_min":77,"x_max":683,"o":"m 210 323 q 267 148 212 210 q 425 85 321 85 q 488 89 459 85 q 541 98 517 93 q 583 111 564 104 q 618 123 602 117 l 650 37 q 549 0 608 13 q 425 -14 491 -14 q 277 10 342 -14 q 168 78 212 33 q 100 186 123 122 q 77 334 77 251 q 99 485 77 418 q 164 598 122 552 q 264 668 205 644 q 397 692 323 692 q 509 673 456 692 q 600 621 561 655 q 661 536 638 586 q 683 422 683 486 l 683 323 l 210 323 m 397 593 q 330 585 360 593 q 276 556 300 576 q 237 504 253 536 q 215 422 222 471 l 550 422 q 537 501 550 469 q 503 554 524 534 q 454 584 481 574 q 397 593 427 593 m 463 990 l 608 949 l 414 781 l 319 808 l 463 990 z "},"ê":{"ha":753,"x_min":77,"x_max":683,"o":"m 210 323 q 267 148 212 210 q 425 85 321 85 q 488 89 459 85 q 541 98 517 93 q 583 111 564 104 q 618 123 602 117 l 650 37 q 549 0 608 13 q 425 -14 491 -14 q 277 10 342 -14 q 168 78 212 33 q 100 186 123 122 q 77 334 77 251 q 99 485 77 418 q 164 598 122 552 q 264 668 205 644 q 397 692 323 692 q 509 673 456 692 q 600 621 561 655 q 661 536 638 586 q 683 422 683 486 l 683 323 l 210 323 m 397 593 q 330 585 360 593 q 276 556 300 576 q 237 504 253 536 q 215 422 222 471 l 550 422 q 537 501 550 469 q 503 554 524 534 q 454 584 481 574 q 397 593 427 593 m 291 780 l 150 780 l 352 937 l 435 937 l 635 780 l 496 780 l 393 859 l 291 780 z "},"ë":{"ha":753,"x_min":77,"x_max":683,"o":"m 210 323 q 267 148 212 210 q 425 85 321 85 q 488 89 459 85 q 541 98 517 93 q 583 111 564 104 q 618 123 602 117 l 650 37 q 549 0 608 13 q 425 -14 491 -14 q 277 10 342 -14 q 168 78 212 33 q 100 186 123 122 q 77 334 77 251 q 99 485 77 418 q 164 598 122 552 q 264 668 205 644 q 397 692 323 692 q 509 673 456 692 q 600 621 561 655 q 661 536 638 586 q 683 422 683 486 l 683 323 l 210 323 m 397 593 q 330 585 360 593 q 276 556 300 576 q 237 504 253 536 q 215 422 222 471 l 550 422 q 537 501 550 469 q 503 554 524 534 q 454 584 481 574 q 397 593 427 593 m 156 900 l 302 900 l 302 781 l 156 781 l 156 900 m 486 900 l 634 900 l 634 781 l 486 781 l 486 900 z "},"è":{"ha":753,"x_min":77,"x_max":683,"o":"m 210 323 q 267 148 212 210 q 425 85 321 85 q 488 89 459 85 q 541 98 517 93 q 583 111 564 104 q 618 123 602 117 l 650 37 q 549 0 608 13 q 425 -14 491 -14 q 277 10 342 -14 q 168 78 212 33 q 100 186 123 122 q 77 334 77 251 q 99 485 77 418 q 164 598 122 552 q 264 668 205 644 q 397 692 323 692 q 509 673 456 692 q 600 621 561 655 q 661 536 638 586 q 683 422 683 486 l 683 323 l 210 323 m 397 593 q 330 585 360 593 q 276 556 300 576 q 237 504 253 536 q 215 422 222 471 l 550 422 q 537 501 550 469 q 503 554 524 534 q 454 584 481 574 q 397 593 427 593 m 441 807 l 345 780 l 151 948 l 295 989 l 441 807 z "},"í":{"ha":279,"x_min":73,"x_max":374,"o":"m 73 678 l 206 678 l 206 0 l 73 0 l 73 678 m 229 987 l 374 946 l 180 778 l 85 805 l 229 987 z "},"î":{"ha":279,"x_min":-84,"x_max":401,"o":"m 73 678 l 206 678 l 206 0 l 73 0 l 73 678 m 57 777 l -84 777 l 118 935 l 201 935 l 401 777 l 262 777 l 159 857 l 57 777 z "},"ï":{"ha":279,"x_min":-78,"x_max":400,"o":"m 73 678 l 206 678 l 206 0 l 73 0 l 73 678 m -78 897 l 68 897 l 68 777 l -78 777 l -78 897 m 252 897 l 400 897 l 400 777 l 252 777 l 252 897 z "},"ì":{"ha":279,"x_min":-83,"x_max":207,"o":"m 73 678 l 206 678 l 206 0 l 73 0 l 73 678 m 207 804 l 111 777 l -83 945 l 61 985 l 207 804 z "},"ñ":{"ha":817,"x_min":119,"x_max":701,"o":"m 119 678 l 236 678 l 247 614 q 353 671 296 650 q 477 692 410 692 q 569 681 528 692 q 640 642 610 669 q 685 568 669 614 q 701 449 701 521 l 701 0 l 568 0 l 568 449 q 561 516 568 489 q 539 561 553 544 q 501 585 524 578 q 446 593 478 593 q 341 571 389 593 q 252 517 293 549 l 252 0 l 119 0 l 119 678 m 509 879 q 530 883 519 879 q 553 895 542 886 q 574 915 564 903 q 592 944 585 927 l 663 890 q 636 846 652 865 q 603 814 621 827 q 566 792 585 800 q 528 781 547 784 q 514 779 521 780 q 500 779 507 779 q 434 794 463 779 q 378 829 404 810 q 338 852 357 844 q 308 859 319 860 q 288 856 298 858 q 269 846 279 853 q 248 827 259 840 q 225 796 237 815 l 154 846 q 180 889 164 870 q 214 922 196 908 q 252 944 233 935 q 289 956 271 953 q 312 958 301 958 q 381 942 350 958 q 439 907 412 926 q 477 885 458 891 q 509 879 496 879 z "},"ó":{"ha":807,"x_min":77,"x_max":735,"o":"m 77 339 q 100 486 77 421 q 167 597 124 551 q 271 667 210 643 q 405 692 331 692 q 539 667 478 692 q 644 597 600 643 q 711 486 687 551 q 735 339 735 421 q 711 191 735 256 q 644 80 687 126 q 539 11 600 35 q 405 -14 478 -14 q 271 11 331 -14 q 167 80 210 35 q 100 191 124 126 q 77 339 77 256 m 210 339 q 224 224 210 273 q 264 145 238 176 q 326 100 290 115 q 405 85 361 85 q 485 100 448 85 q 547 145 521 115 q 588 224 573 176 q 602 339 602 273 q 588 454 602 406 q 547 533 573 502 q 485 578 521 564 q 405 593 448 593 q 326 578 361 593 q 264 533 290 564 q 224 454 238 502 q 210 339 210 406 m 489 989 l 633 948 l 440 780 l 345 807 l 489 989 z "},"ô":{"ha":807,"x_min":77,"x_max":735,"o":"m 77 339 q 100 486 77 421 q 167 597 124 551 q 271 667 210 643 q 405 692 331 692 q 539 667 478 692 q 644 597 600 643 q 711 486 687 551 q 735 339 735 421 q 711 191 735 256 q 644 80 687 126 q 539 11 600 35 q 405 -14 478 -14 q 271 11 331 -14 q 167 80 210 35 q 100 191 124 126 q 77 339 77 256 m 210 339 q 224 224 210 273 q 264 145 238 176 q 326 100 290 115 q 405 85 361 85 q 485 100 448 85 q 547 145 521 115 q 588 224 573 176 q 602 339 602 273 q 588 454 602 406 q 547 533 573 502 q 485 578 521 564 q 405 593 448 593 q 326 578 361 593 q 264 533 290 564 q 224 454 238 502 q 210 339 210 406 m 317 779 l 176 779 l 378 936 l 461 936 l 661 779 l 522 779 l 419 858 l 317 779 z "},"ö":{"ha":807,"x_min":77,"x_max":735,"o":"m 77 339 q 100 486 77 421 q 167 597 124 551 q 271 667 210 643 q 405 692 331 692 q 539 667 478 692 q 644 597 600 643 q 711 486 687 551 q 735 339 735 421 q 711 191 735 256 q 644 80 687 126 q 539 11 600 35 q 405 -14 478 -14 q 271 11 331 -14 q 167 80 210 35 q 100 191 124 126 q 77 339 77 256 m 210 339 q 224 224 210 273 q 264 145 238 176 q 326 100 290 115 q 405 85 361 85 q 485 100 448 85 q 547 145 521 115 q 588 224 573 176 q 602 339 602 273 q 588 454 602 406 q 547 533 573 502 q 485 578 521 564 q 405 593 448 593 q 326 578 361 593 q 264 533 290 564 q 224 454 238 502 q 210 339 210 406 m 182 899 l 328 899 l 328 779 l 182 779 l 182 899 m 512 899 l 660 899 l 660 779 l 512 779 l 512 899 z "},"ò":{"ha":807,"x_min":77,"x_max":735,"o":"m 77 339 q 100 486 77 421 q 167 597 124 551 q 271 667 210 643 q 405 692 331 692 q 539 667 478 692 q 644 597 600 643 q 711 486 687 551 q 735 339 735 421 q 711 191 735 256 q 644 80 687 126 q 539 11 600 35 q 405 -14 478 -14 q 271 11 331 -14 q 167 80 210 35 q 100 191 124 126 q 77 339 77 256 m 210 339 q 224 224 210 273 q 264 145 238 176 q 326 100 290 115 q 405 85 361 85 q 485 100 448 85 q 547 145 521 115 q 588 224 573 176 q 602 339 602 273 q 588 454 602 406 q 547 533 573 502 q 485 578 521 564 q 405 593 448 593 q 326 578 361 593 q 264 533 290 564 q 224 454 238 502 q 210 339 210 406 m 467 806 l 370 779 l 176 947 l 321 987 l 467 806 z "},"õ":{"ha":807,"x_min":77,"x_max":735,"o":"m 77 339 q 100 486 77 421 q 167 597 124 551 q 271 667 210 643 q 405 692 331 692 q 539 667 478 692 q 644 597 600 643 q 711 486 687 551 q 735 339 735 421 q 711 191 735 256 q 644 80 687 126 q 539 11 600 35 q 405 -14 478 -14 q 271 11 331 -14 q 167 80 210 35 q 100 191 124 126 q 77 339 77 256 m 210 339 q 224 224 210 273 q 264 145 238 176 q 326 100 290 115 q 405 85 361 85 q 485 100 448 85 q 547 145 521 115 q 588 224 573 176 q 602 339 602 273 q 588 454 602 406 q 547 533 573 502 q 485 578 521 564 q 405 593 448 593 q 326 578 361 593 q 264 533 290 564 q 224 454 238 502 q 210 339 210 406 m 503 878 q 524 881 513 878 q 547 893 536 885 q 568 913 558 901 q 586 943 578 926 l 656 888 q 630 845 646 864 q 597 812 614 826 q 560 791 579 799 q 522 780 541 783 q 508 778 515 779 q 494 777 500 777 q 428 793 457 777 q 372 827 398 808 q 332 851 351 843 q 302 857 313 859 q 282 854 292 857 q 263 845 273 852 q 242 826 253 838 q 219 795 231 814 l 148 845 q 174 888 158 869 q 208 920 190 907 q 246 943 227 934 q 283 955 265 951 q 306 957 295 957 q 375 941 344 957 q 433 906 406 925 q 471 884 452 890 q 503 878 490 878 z "},"ú":{"ha":817,"x_min":119,"x_max":701,"o":"m 701 0 l 583 0 l 572 86 q 466 13 523 39 q 344 -14 410 -14 q 251 -1 292 -14 q 180 41 210 11 q 135 124 151 72 q 119 256 119 176 l 119 678 l 252 678 l 252 256 q 259 176 252 208 q 281 123 266 143 q 318 94 296 103 q 373 85 341 85 q 479 107 431 85 q 568 162 527 128 l 568 678 l 701 678 l 701 0 m 495 977 l 640 936 l 446 768 l 351 795 l 495 977 z "},"û":{"ha":817,"x_min":119,"x_max":701,"o":"m 701 0 l 583 0 l 572 86 q 466 13 523 39 q 344 -14 410 -14 q 251 -1 292 -14 q 180 41 210 11 q 135 124 151 72 q 119 256 119 176 l 119 678 l 252 678 l 252 256 q 259 176 252 208 q 281 123 266 143 q 318 94 296 103 q 373 85 341 85 q 479 107 431 85 q 568 162 527 128 l 568 678 l 701 678 l 701 0 m 323 767 l 182 767 l 384 924 l 467 924 l 667 767 l 528 767 l 425 846 l 323 767 z "},"ü":{"ha":817,"x_min":119,"x_max":701,"o":"m 701 0 l 583 0 l 572 86 q 466 13 523 39 q 344 -14 410 -14 q 251 -1 292 -14 q 180 41 210 11 q 135 124 151 72 q 119 256 119 176 l 119 678 l 252 678 l 252 256 q 259 176 252 208 q 281 123 266 143 q 318 94 296 103 q 373 85 341 85 q 479 107 431 85 q 568 162 527 128 l 568 678 l 701 678 l 701 0 m 188 886 l 334 886 l 334 767 l 188 767 l 188 886 m 518 886 l 666 886 l 666 767 l 518 767 l 518 886 z "},"ù":{"ha":817,"x_min":119,"x_max":701,"o":"m 701 0 l 583 0 l 572 86 q 466 13 523 39 q 344 -14 410 -14 q 251 -1 292 -14 q 180 41 210 11 q 135 124 151 72 q 119 256 119 176 l 119 678 l 252 678 l 252 256 q 259 176 252 208 q 281 123 266 143 q 318 94 296 103 q 373 85 341 85 q 479 107 431 85 q 568 162 527 128 l 568 678 l 701 678 l 701 0 m 473 793 l 376 766 l 182 935 l 327 975 l 473 793 z "},"ÿ":{"ha":713,"x_min":43,"x_max":671,"o":"m 534 678 l 671 678 l 411 -45 q 366 -158 389 -113 q 316 -231 343 -203 q 256 -269 289 -258 q 180 -279 223 -279 q 136 -276 158 -279 q 97 -267 115 -273 l 110 -175 q 136 -178 121 -175 q 168 -180 151 -180 q 206 -174 190 -180 q 236 -152 222 -168 q 264 -109 250 -136 q 295 -37 278 -81 l 43 678 l 180 678 l 354 136 l 534 678 m 136 886 l 283 886 l 283 767 l 136 767 l 136 886 m 467 886 l 614 886 l 614 767 l 467 767 l 467 886 z "},"¤":{"ha":948,"x_min":57,"x_max":883,"o":"m 247 657 q 349 703 293 687 q 469 719 404 719 q 589 703 533 719 q 690 657 644 687 l 799 755 l 883 682 l 773 583 q 830 478 810 536 q 850 353 850 420 q 829 224 850 283 q 769 118 808 165 l 882 16 l 799 -56 l 687 45 q 587 2 642 17 q 469 -14 532 -14 q 350 2 405 -14 q 250 46 296 18 l 139 -56 l 57 16 l 169 117 q 109 224 130 164 q 88 353 88 283 q 108 479 88 420 q 166 584 128 537 l 57 682 l 139 755 l 247 657 m 469 85 q 575 103 527 85 q 656 156 623 121 q 709 240 690 191 q 728 353 728 290 q 709 465 728 415 q 656 549 690 514 q 575 602 623 583 q 469 620 527 620 q 363 602 410 620 q 281 549 315 583 q 228 465 247 514 q 210 353 210 415 q 228 240 210 290 q 281 156 247 191 q 363 103 315 121 q 469 85 410 85 z "},"¦":{"ha":279,"x_min":73,"x_max":207,"o":"m 73 355 l 207 355 l 207 -203 l 73 -203 l 73 355 m 207 514 l 73 514 l 73 1034 l 207 1034 l 207 514 z "},"­":{"ha":749,"x_min":37,"x_max":703,"o":"m 37 397 l 37 496 l 703 496 l 703 397 l 37 397 z "},"²":{"ha":524,"x_min":72,"x_max":450,"o":"m 450 525 l 450 453 l 75 453 l 75 484 q 85 557 75 526 q 117 615 96 589 q 174 662 139 640 q 258 704 209 683 q 302 726 285 715 q 330 748 319 737 q 344 772 340 760 q 348 798 348 784 q 323 845 348 828 q 252 861 299 861 q 209 858 229 861 q 171 849 189 854 q 134 836 153 843 q 97 819 116 828 l 72 883 q 106 900 87 891 q 150 918 126 909 q 200 931 173 926 q 257 936 227 936 q 393 900 346 936 q 441 799 441 865 q 429 748 441 771 q 398 707 418 726 q 353 674 379 689 q 298 646 327 659 q 249 620 271 633 q 211 593 227 608 q 184 563 195 579 q 171 525 174 546 l 450 525 z "},"³":{"ha":477,"x_min":43,"x_max":417,"o":"m 404 799 q 323 693 404 722 q 393 650 370 679 q 417 581 417 622 q 366 479 417 517 q 212 441 315 441 q 123 449 168 441 q 43 476 79 458 l 65 537 q 132 518 100 526 q 204 510 164 510 q 293 528 259 510 q 326 583 326 545 q 296 640 326 622 q 212 658 266 658 l 114 658 l 114 728 l 212 728 q 284 744 258 728 q 309 796 309 760 q 281 850 309 834 q 204 865 253 865 q 136 858 166 865 q 73 838 106 850 l 51 898 q 86 914 66 907 q 129 926 107 921 q 173 933 151 931 q 211 936 194 936 q 355 899 307 936 q 404 799 404 863 z "},"¹":{"ha":340,"x_min":49,"x_max":305,"o":"m 56 453 l 56 518 l 137 518 l 137 848 l 49 823 l 49 891 l 170 933 l 229 933 l 229 518 l 305 518 l 305 453 l 56 453 z "},"¼":{"ha":970,"x_min":75,"x_max":936,"o":"m 82 456 l 82 521 l 163 521 l 163 850 l 75 826 l 75 894 l 196 936 l 254 936 l 254 521 l 331 521 l 331 456 l 82 456 m 753 922 l 860 922 l 239 0 l 131 0 l 753 922 m 871 101 l 871 2 l 781 2 l 781 101 l 507 101 l 507 153 l 775 482 l 871 482 l 871 168 l 936 168 l 936 101 l 871 101 m 781 168 l 781 383 l 606 168 l 781 168 z "},"½":{"ha":1055,"x_min":75,"x_max":977,"o":"m 977 71 l 977 -1 l 602 -1 l 602 31 q 612 104 602 72 q 644 161 623 136 q 701 208 666 186 q 785 250 736 229 q 829 272 812 261 q 857 295 846 283 q 871 318 867 306 q 875 344 875 330 q 850 391 875 374 q 779 408 826 408 q 736 404 756 408 q 698 395 716 401 q 661 382 680 389 q 624 366 643 374 l 599 429 q 633 447 614 437 q 676 464 653 456 q 727 477 700 472 q 784 482 754 482 q 920 447 873 482 q 968 345 968 411 q 956 295 968 317 q 925 254 945 272 q 880 220 906 235 q 825 192 854 205 q 776 166 798 179 q 738 140 754 154 q 711 109 722 125 q 698 71 701 92 l 977 71 m 82 453 l 82 518 l 163 518 l 163 848 l 75 823 l 75 891 l 196 933 l 254 933 l 254 518 l 331 518 l 331 453 l 82 453 m 768 922 l 874 922 l 253 0 l 145 0 l 768 922 z "},"¾":{"ha":972,"x_min":43,"x_max":939,"o":"m 404 799 q 323 693 404 722 q 393 650 370 679 q 417 581 417 622 q 366 479 417 517 q 212 441 315 441 q 123 449 168 441 q 43 476 79 458 l 65 537 q 132 518 100 526 q 204 510 164 510 q 293 528 259 510 q 326 583 326 545 q 296 640 326 622 q 212 658 266 658 l 114 658 l 114 728 l 212 728 q 284 744 258 728 q 309 796 309 760 q 281 850 309 834 q 204 865 253 865 q 136 858 166 865 q 73 838 106 850 l 51 898 q 86 914 66 907 q 129 926 107 921 q 173 933 151 931 q 211 936 194 936 q 355 899 307 936 q 404 799 404 863 m 789 922 l 895 922 l 274 0 l 166 0 l 789 922 m 875 101 l 875 2 l 785 2 l 785 101 l 510 101 l 510 153 l 779 482 l 875 482 l 875 168 l 939 168 l 939 101 l 875 101 m 785 168 l 785 383 l 610 168 l 785 168 z "},"Ð":{"ha":964,"x_min":73,"x_max":890,"o":"m 164 427 l 73 427 l 73 526 l 164 526 l 164 922 l 449 922 q 632 889 550 922 q 771 797 713 857 q 859 652 828 736 q 890 463 890 567 q 859 273 890 358 q 771 127 828 188 q 632 33 713 66 q 449 0 550 0 l 164 0 l 164 427 m 297 427 l 297 99 l 434 99 q 566 120 506 99 q 668 186 625 142 q 734 299 711 231 q 758 463 758 368 q 734 625 758 557 q 668 738 711 694 q 566 802 625 781 q 434 823 506 823 l 297 823 l 297 526 l 488 526 l 488 427 l 297 427 z "},"×":{"ha":715,"x_min":73,"x_max":643,"o":"m 151 707 l 359 516 l 566 707 l 643 636 l 435 446 l 643 256 l 566 186 l 359 376 l 151 186 l 73 255 l 282 446 l 73 637 l 151 707 z "},"Þ":{"ha":801,"x_min":119,"x_max":758,"o":"m 119 922 l 252 922 l 252 719 l 434 719 q 572 701 512 719 q 674 649 633 683 q 737 568 715 616 q 758 463 758 521 q 737 356 758 404 q 674 275 715 309 q 572 222 633 241 q 434 203 512 203 l 252 203 l 252 0 l 119 0 l 119 922 m 252 620 l 252 302 l 418 302 q 568 341 515 302 q 621 463 621 380 q 568 582 621 545 q 418 620 515 620 l 252 620 z "},"ð":{"ha":807,"x_min":77,"x_max":764,"o":"m 332 723 l 467 786 q 290 837 393 837 l 304 936 q 455 911 387 936 q 578 839 524 886 l 719 905 l 764 831 l 639 774 q 717 613 690 706 q 745 408 745 521 q 723 236 745 313 q 658 104 701 159 q 552 19 615 49 q 409 -11 490 -11 q 273 13 332 -11 q 172 76 214 37 q 106 167 130 116 q 78 273 83 218 q 77 290 77 281 q 77 307 77 298 q 97 422 77 370 q 154 511 117 474 q 246 569 192 549 q 368 590 300 590 q 502 561 440 590 q 605 469 564 532 q 580 616 600 553 q 528 724 561 679 l 374 654 l 332 723 m 394 88 q 481 104 443 88 q 545 154 519 120 q 587 239 572 187 q 606 362 602 290 q 557 423 583 399 q 502 461 530 447 q 442 481 473 475 q 380 487 411 487 q 306 471 336 487 q 256 427 275 455 q 228 362 237 399 q 220 281 220 324 q 230 208 220 243 q 262 147 241 174 q 317 104 284 120 q 394 88 350 88 z "},"þ":{"ha":762,"x_min":73,"x_max":691,"o":"m 73 949 l 207 949 l 207 617 q 245 649 226 635 q 289 672 265 663 q 341 687 312 682 q 408 692 370 692 q 524 667 471 692 q 613 596 576 642 q 671 485 650 550 q 691 340 691 420 q 671 195 691 260 q 613 84 650 130 q 524 12 576 37 q 408 -14 471 -14 q 343 -8 372 -14 q 290 6 314 -3 q 246 30 267 16 q 207 61 226 43 l 207 -271 l 73 -271 l 73 949 m 554 340 q 543 449 554 402 q 509 528 532 496 q 450 576 486 560 q 362 593 413 593 q 276 577 315 593 q 207 538 237 562 l 207 140 q 276 101 237 116 q 362 85 315 85 q 450 102 413 85 q 509 151 486 119 q 543 231 532 184 q 554 340 554 279 z "},"ď":{"ha":918,"x_min":93,"x_max":968,"o":"m 570 59 q 532 28 551 41 q 490 5 513 15 q 438 -9 467 -4 q 373 -14 410 -14 q 257 12 309 -14 q 169 84 205 37 q 113 195 132 130 q 93 340 93 260 q 113 485 93 420 q 169 596 132 550 q 257 667 205 642 q 373 692 309 692 q 434 687 407 692 q 484 674 461 682 q 527 652 507 665 q 564 623 546 640 l 564 949 l 697 949 l 697 0 l 580 0 l 570 59 m 226 340 q 236 231 226 279 q 270 151 247 184 q 329 102 292 119 q 416 85 365 85 q 497 99 460 85 q 564 134 534 113 l 564 544 q 497 579 534 566 q 416 593 460 593 q 329 576 365 593 q 270 528 292 560 q 236 449 247 496 q 226 340 226 402 m 817 950 l 968 950 l 848 633 l 753 646 l 817 950 z "},"Ħ":{"ha":962,"x_min":9,"x_max":951,"o":"m 9 764 l 123 764 l 123 922 l 256 922 l 256 764 l 703 764 l 703 922 l 836 922 l 836 764 l 951 764 l 951 665 l 836 665 l 836 0 l 703 0 l 703 411 l 256 411 l 256 0 l 123 0 l 123 665 l 9 665 l 9 764 m 256 510 l 703 510 l 703 665 l 256 665 l 256 510 z "},"ħ":{"ha":821,"x_min":-20,"x_max":701,"o":"m -20 852 l 119 852 l 119 949 l 252 949 l 252 852 l 503 852 l 503 753 l 252 753 l 252 616 q 356 672 300 652 q 477 692 411 692 q 569 680 528 692 q 640 638 610 667 q 685 562 669 610 q 701 442 701 514 l 701 0 l 568 0 l 568 442 q 539 558 568 523 q 446 593 511 593 q 341 572 389 593 q 252 517 293 551 l 252 0 l 119 0 l 119 753 l -20 753 l -20 852 z "},"ĸ":{"ha":747,"x_min":119,"x_max":763,"o":"m 405 300 l 252 300 l 252 0 l 119 0 l 119 678 l 252 678 l 252 404 l 406 404 l 591 678 l 739 678 l 513 357 l 513 357 l 763 0 l 610 0 l 405 300 z "},"Ł":{"ha":790,"x_min":73,"x_max":718,"o":"m 168 366 l 73 330 l 73 445 l 168 481 l 168 922 l 301 922 l 301 533 l 457 594 l 457 479 l 301 418 l 301 99 l 718 99 l 718 0 l 168 0 l 168 366 z "},"ł":{"ha":529,"x_min":73,"x_max":457,"o":"m 196 377 l 73 330 l 73 445 l 196 492 l 196 949 l 329 949 l 329 544 l 457 594 l 457 479 l 329 429 l 329 0 l 196 0 l 196 377 z "},"Ŋ":{"ha":980,"x_min":123,"x_max":865,"o":"m 123 922 l 256 922 l 256 922 l 257 922 l 732 206 l 732 922 l 865 922 l 865 -9 q 846 -142 865 -90 q 791 -227 827 -195 q 707 -272 756 -258 q 597 -285 657 -285 q 480 -272 531 -285 q 396 -243 430 -260 l 427 -151 q 460 -163 440 -157 q 502 -175 480 -170 q 544 -183 523 -180 q 581 -186 565 -186 q 650 -176 621 -186 q 697 -145 679 -167 q 724 -91 715 -124 q 732 -9 732 -58 l 732 0 l 256 718 l 256 0 l 123 0 l 123 922 z "},"ŋ":{"ha":807,"x_min":119,"x_max":701,"o":"m 119 678 l 236 678 l 247 614 q 353 671 296 650 q 477 692 410 692 q 569 681 528 692 q 640 642 610 669 q 685 568 669 614 q 701 449 701 521 l 701 -9 q 681 -142 701 -90 q 627 -226 662 -195 q 543 -270 592 -257 q 433 -282 493 -282 q 313 -271 365 -282 q 224 -240 260 -260 l 263 -148 q 296 -161 277 -155 q 337 -172 316 -167 q 380 -180 359 -177 q 418 -183 401 -183 q 486 -174 458 -183 q 532 -144 514 -165 q 559 -91 551 -123 q 568 -9 568 -58 l 568 449 q 561 516 568 489 q 539 561 553 544 q 501 585 524 578 q 446 593 478 593 q 341 571 389 593 q 252 517 293 549 l 252 0 l 119 0 l 119 678 z "},"Ŧ":{"ha":807,"x_min":34,"x_max":767,"o":"m 470 823 l 470 679 l 767 679 l 767 580 l 470 580 l 470 0 l 337 0 l 337 580 l 34 580 l 34 679 l 337 679 l 337 823 l 49 823 l 49 922 l 760 922 l 760 823 l 470 823 z "},"ŧ":{"ha":575,"x_min":38,"x_max":510,"o":"m 55 678 l 152 678 l 152 854 l 285 868 l 285 678 l 485 678 l 485 579 l 285 579 l 285 479 l 483 479 l 483 380 l 285 380 l 285 217 q 290 159 285 183 q 308 121 296 136 q 338 100 319 106 q 382 94 357 94 q 416 95 399 94 q 450 98 433 96 q 481 103 467 100 q 506 107 496 105 l 510 15 q 480 7 497 11 q 445 1 464 3 q 407 -4 427 -2 q 369 -5 387 -5 q 278 4 318 -5 q 210 38 238 14 q 167 106 182 63 q 152 217 152 149 l 152 380 l 38 380 l 38 479 l 152 479 l 152 579 l 39 579 l 55 678 z "},"⁴":{"ha":490,"x_min":28,"x_max":457,"o":"m 393 553 l 393 454 l 302 454 l 302 553 l 28 553 l 28 605 l 296 935 l 393 935 l 393 620 l 457 620 l 457 553 l 393 553 m 302 620 l 302 836 l 127 620 l 302 620 z "},"−":{"ha":723,"x_min":73,"x_max":651,"o":"m 73 397 l 73 496 l 651 496 l 651 397 l 73 397 z "},"ȷ":{"ha":380,"x_min":-96,"x_max":264,"o":"m -83 -190 q -60 -194 -73 -192 q -32 -198 -47 -196 q -3 -201 -18 -200 q 26 -202 12 -202 q 74 -194 54 -202 q 106 -169 94 -186 q 125 -121 119 -151 q 131 -47 131 -92 l 131 678 l 264 678 l 264 -47 q 248 -173 264 -123 q 202 -250 231 -222 q 131 -290 172 -279 q 38 -301 89 -301 q 2 -300 21 -301 q -34 -297 -16 -299 q -68 -292 -52 -295 q -96 -283 -84 -288 l -83 -190 z "},"Ă":{"ha":905,"x_min":49,"x_max":859,"o":"m 644 235 l 263 235 l 182 0 l 49 0 l 385 922 l 521 922 l 859 0 l 726 0 l 644 235 m 298 334 l 610 334 l 454 780 l 298 334 m 454 996 q 359 1005 402 995 q 286 1037 317 1016 q 238 1088 255 1057 q 221 1160 221 1119 l 326 1160 q 358 1093 326 1118 q 454 1067 391 1067 q 552 1093 519 1067 q 584 1160 584 1118 l 688 1160 q 671 1088 688 1119 q 623 1037 654 1057 q 548 1005 591 1016 q 454 996 505 995 z "},"Ą":{"ha":905,"x_min":49,"x_max":863,"o":"m 644 235 l 263 235 l 182 0 l 49 0 l 385 922 l 521 922 l 859 0 l 726 0 l 644 235 m 298 334 l 610 334 l 454 780 l 298 334 m 863 0 q 776 -55 806 -22 q 746 -133 746 -88 q 750 -153 746 -144 q 762 -169 755 -162 q 778 -178 769 -175 q 795 -182 786 -182 q 812 -181 806 -182 q 825 -180 819 -181 q 835 -178 830 -179 q 848 -174 840 -176 l 863 -250 q 849 -255 859 -252 q 828 -260 840 -258 q 803 -263 817 -262 q 776 -264 789 -264 q 671 -232 709 -264 q 634 -142 634 -200 q 645 -81 634 -109 q 675 -31 656 -53 q 720 7 694 -9 q 774 30 746 22 l 863 3 l 863 0 z "},"Ć":{"ha":761,"x_min":82,"x_max":729,"o":"m 82 463 q 112 657 82 570 q 196 807 141 745 q 329 902 251 869 q 506 936 408 936 q 569 932 541 936 q 620 922 597 928 q 663 908 644 916 q 701 891 683 900 l 663 803 q 592 828 630 819 q 506 837 553 837 q 387 815 441 837 q 295 748 334 793 q 236 631 257 702 q 215 463 215 561 q 237 293 215 364 q 299 176 259 222 q 395 107 339 130 q 521 85 452 85 q 575 89 550 85 q 621 99 600 93 q 659 112 642 105 q 692 126 677 119 l 720 39 q 633 2 684 17 q 506 -14 582 -14 q 329 21 408 -14 q 196 117 251 55 q 112 268 141 180 q 82 463 82 355 m 585 1221 l 729 1180 l 536 1012 l 440 1039 l 585 1221 z "},"Č":{"ha":761,"x_min":82,"x_max":749,"o":"m 82 463 q 112 657 82 570 q 196 807 141 745 q 329 902 251 869 q 506 936 408 936 q 569 932 541 936 q 620 922 597 928 q 663 908 644 916 q 701 891 683 900 l 663 803 q 592 828 630 819 q 506 837 553 837 q 387 815 441 837 q 295 748 334 793 q 236 631 257 702 q 215 463 215 561 q 237 293 215 364 q 299 176 259 222 q 395 107 339 130 q 521 85 452 85 q 575 89 550 85 q 621 99 600 93 q 659 112 642 105 q 692 126 677 119 l 720 39 q 633 2 684 17 q 506 -14 582 -14 q 329 21 408 -14 q 196 117 251 55 q 112 268 141 180 q 82 463 82 355 m 610 1169 l 749 1169 l 549 1012 l 465 1012 l 263 1169 l 404 1169 l 507 1082 l 610 1169 z "},"Ď":{"ha":941,"x_min":124,"x_max":850,"o":"m 124 922 l 409 922 q 592 889 510 922 q 731 797 673 857 q 819 652 788 736 q 850 463 850 567 q 819 273 850 358 q 731 127 788 188 q 592 33 673 66 q 409 0 510 0 l 124 0 l 124 922 m 257 823 l 257 99 l 394 99 q 526 120 466 99 q 628 186 585 142 q 694 299 671 231 q 718 463 718 368 q 694 625 718 557 q 628 738 671 694 q 526 802 585 781 q 394 823 466 823 l 257 823 m 492 1156 l 631 1156 l 431 998 l 348 998 l 146 1156 l 287 1156 l 389 1068 l 492 1156 z "},"Đ":{"ha":964,"x_min":73,"x_max":890,"o":"m 164 427 l 73 427 l 73 526 l 164 526 l 164 922 l 449 922 q 632 889 550 922 q 771 797 713 857 q 859 652 828 736 q 890 463 890 567 q 859 273 890 358 q 771 127 828 188 q 632 33 713 66 q 449 0 550 0 l 164 0 l 164 427 m 297 427 l 297 99 l 434 99 q 566 120 506 99 q 668 186 625 142 q 734 299 711 231 q 758 463 758 368 q 734 625 758 557 q 668 738 711 694 q 566 802 625 781 q 434 823 506 823 l 297 823 l 297 526 l 488 526 l 488 427 l 297 427 z "},"Ě":{"ha":728,"x_min":124,"x_max":667,"o":"m 124 0 l 124 922 l 667 922 l 667 823 l 257 823 l 257 522 l 623 522 l 623 423 l 257 423 l 257 99 l 667 99 l 667 0 l 124 0 m 506 1156 l 645 1156 l 445 998 l 361 998 l 159 1156 l 300 1156 l 403 1068 l 506 1156 z "},"Ę":{"ha":728,"x_min":124,"x_max":668,"o":"m 124 0 l 124 922 l 667 922 l 667 823 l 257 823 l 257 522 l 623 522 l 623 423 l 257 423 l 257 99 l 667 99 l 667 0 l 124 0 m 668 0 q 581 -55 611 -22 q 551 -133 551 -88 q 556 -153 551 -144 q 567 -169 560 -162 q 583 -178 574 -175 q 600 -182 591 -182 q 618 -181 611 -182 q 630 -180 625 -181 q 641 -178 635 -179 q 653 -174 646 -176 l 668 -250 q 655 -255 664 -252 q 634 -260 646 -258 q 608 -263 622 -262 q 581 -264 594 -264 q 477 -232 514 -264 q 439 -142 439 -200 q 451 -81 439 -109 q 481 -31 462 -53 q 526 7 500 -9 q 580 30 551 22 l 668 3 l 668 0 z "},"Ĺ":{"ha":703,"x_min":123,"x_max":673,"o":"m 123 922 l 256 922 l 256 99 l 673 99 l 673 0 l 123 0 l 123 922 m 281 1207 l 426 1166 l 233 998 l 137 1025 l 281 1207 z "},"Ľ":{"ha":703,"x_min":123,"x_max":673,"o":"m 123 922 l 256 922 l 256 99 l 673 99 l 673 0 l 123 0 l 123 922 m 429 915 l 581 915 l 460 597 l 366 611 l 429 915 z "},"Ń":{"ha":987,"x_min":123,"x_max":865,"o":"m 123 922 l 256 922 l 256 922 l 257 922 l 732 206 l 732 922 l 865 922 l 865 0 l 732 0 l 256 718 l 256 0 l 123 0 l 123 922 m 572 1207 l 717 1166 l 524 998 l 428 1025 l 572 1207 z "},"Ň":{"ha":987,"x_min":123,"x_max":865,"o":"m 123 922 l 256 922 l 256 922 l 257 922 l 732 206 l 732 922 l 865 922 l 865 0 l 732 0 l 256 718 l 256 0 l 123 0 l 123 922 m 597 1156 l 736 1156 l 536 998 l 453 998 l 251 1156 l 392 1156 l 494 1068 l 597 1156 z "},"Ő":{"ha":955,"x_min":75,"x_max":880,"o":"m 75 461 q 105 658 75 570 q 187 808 134 746 q 314 903 240 869 q 477 936 388 936 q 639 903 565 936 q 767 808 713 869 q 850 658 820 746 q 880 461 880 570 q 850 263 880 351 q 767 114 820 176 q 639 19 713 52 q 477 -14 565 -14 q 314 19 388 -14 q 187 114 240 52 q 105 263 134 176 q 75 461 75 351 m 208 461 q 228 296 208 367 q 283 179 248 226 q 368 109 319 132 q 477 85 418 85 q 586 109 536 85 q 672 179 636 132 q 727 296 707 226 q 747 461 747 367 q 727 626 747 555 q 672 743 707 696 q 586 813 636 790 q 477 837 536 837 q 368 813 418 837 q 283 743 319 790 q 228 626 248 696 q 208 461 208 555 m 452 1233 l 584 1192 l 375 1010 l 290 1038 l 452 1233 m 734 1233 l 880 1192 l 627 1010 l 530 1038 l 734 1233 z "},"Ŕ":{"ha":853,"x_min":124,"x_max":794,"o":"m 124 922 l 422 922 q 561 904 500 922 q 663 853 621 886 q 726 771 705 819 q 748 661 748 722 q 736 588 748 623 q 703 523 724 553 q 656 467 683 492 q 599 423 629 441 l 794 0 l 655 0 l 475 396 l 257 396 l 257 0 l 124 0 l 124 922 m 257 823 l 257 495 l 533 495 q 563 522 548 507 q 589 555 577 536 q 608 600 600 574 q 615 661 615 626 q 601 736 615 705 q 561 786 587 767 q 496 814 534 806 q 409 823 458 823 l 257 823 m 506 1207 l 650 1166 l 457 998 l 361 1025 l 506 1207 z "},"Ř":{"ha":853,"x_min":124,"x_max":794,"o":"m 124 922 l 422 922 q 561 904 500 922 q 663 853 621 886 q 726 771 705 819 q 748 661 748 722 q 736 588 748 623 q 703 523 724 553 q 656 467 683 492 q 599 423 629 441 l 794 0 l 655 0 l 475 396 l 257 396 l 257 0 l 124 0 l 124 922 m 257 823 l 257 495 l 533 495 q 563 522 548 507 q 589 555 577 536 q 608 600 600 574 q 615 661 615 626 q 601 736 615 705 q 561 786 587 767 q 496 814 534 806 q 409 823 458 823 l 257 823 m 531 1156 l 670 1156 l 470 998 l 387 998 l 184 1156 l 326 1156 l 428 1068 l 531 1156 z "},"Ś":{"ha":749,"x_min":75,"x_max":680,"o":"m 680 243 q 657 137 680 184 q 595 57 635 90 q 496 5 554 23 q 368 -14 439 -14 q 287 -10 328 -14 q 207 1 245 -6 q 135 17 169 7 q 78 39 102 27 l 111 137 q 169 117 140 127 q 229 101 198 108 q 294 90 260 94 q 366 85 328 85 q 441 96 408 85 q 498 126 475 106 q 534 175 522 146 q 547 239 547 203 q 532 298 547 272 q 489 344 517 323 q 422 381 461 365 q 334 412 382 398 q 233 453 280 429 q 150 511 185 477 q 95 586 115 544 q 75 678 75 627 q 97 784 75 736 q 159 866 119 832 q 256 918 199 899 q 384 936 313 936 q 466 930 427 936 q 539 917 505 925 q 601 899 573 909 q 648 882 629 890 l 619 780 q 566 800 591 790 q 512 819 540 810 q 454 832 485 827 q 387 837 424 837 q 309 826 342 837 q 253 794 275 814 q 219 746 231 774 q 208 685 208 718 q 253 587 208 629 q 399 514 298 545 q 522 465 469 492 q 609 406 574 439 q 662 333 644 373 q 680 243 680 292 m 469 1218 l 614 1177 l 420 1009 l 325 1036 l 469 1218 z "},"Š":{"ha":749,"x_min":75,"x_max":680,"o":"m 680 243 q 657 137 680 184 q 595 57 635 90 q 496 5 554 23 q 368 -14 439 -14 q 287 -10 328 -14 q 207 1 245 -6 q 135 17 169 7 q 78 39 102 27 l 111 137 q 169 117 140 127 q 229 101 198 108 q 294 90 260 94 q 366 85 328 85 q 441 96 408 85 q 498 126 475 106 q 534 175 522 146 q 547 239 547 203 q 532 298 547 272 q 489 344 517 323 q 422 381 461 365 q 334 412 382 398 q 233 453 280 429 q 150 511 185 477 q 95 586 115 544 q 75 678 75 627 q 97 784 75 736 q 159 866 119 832 q 256 918 199 899 q 384 936 313 936 q 466 930 427 936 q 539 917 505 925 q 601 899 573 909 q 648 882 629 890 l 619 780 q 566 800 591 790 q 512 819 540 810 q 454 832 485 827 q 387 837 424 837 q 309 826 342 837 q 253 794 275 814 q 219 746 231 774 q 208 685 208 718 q 253 587 208 629 q 399 514 298 545 q 522 465 469 492 q 609 406 574 439 q 662 333 644 373 q 680 243 680 292 m 494 1166 l 633 1166 l 433 1009 l 350 1009 l 148 1166 l 289 1166 l 391 1079 l 494 1166 z "},"Ş":{"ha":749,"x_min":75,"x_max":680,"o":"m 680 243 q 657 137 680 184 q 595 57 635 90 q 496 5 554 23 q 368 -14 439 -14 q 287 -10 328 -14 q 207 1 245 -6 q 135 17 169 7 q 78 39 102 27 l 111 137 q 169 117 140 127 q 229 101 198 108 q 294 90 260 94 q 366 85 328 85 q 441 96 408 85 q 498 126 475 106 q 534 175 522 146 q 547 239 547 203 q 532 298 547 272 q 489 344 517 323 q 422 381 461 365 q 334 412 382 398 q 233 453 280 429 q 150 511 185 477 q 95 586 115 544 q 75 678 75 627 q 97 784 75 736 q 159 866 119 832 q 256 918 199 899 q 384 936 313 936 q 466 930 427 936 q 539 917 505 925 q 601 899 573 909 q 648 882 629 890 l 619 780 q 566 800 591 790 q 512 819 540 810 q 454 832 485 827 q 387 837 424 837 q 309 826 342 837 q 253 794 275 814 q 219 746 231 774 q 208 685 208 718 q 253 587 208 629 q 399 514 298 545 q 522 465 469 492 q 609 406 574 439 q 662 333 644 373 q 680 243 680 292 m 457 1 q 481 -92 481 -44 q 466 -160 481 -127 q 421 -217 451 -193 q 348 -256 392 -241 q 245 -271 304 -271 l 221 -196 q 329 -160 294 -189 q 363 -89 363 -132 q 334 1 363 -49 l 457 1 z "},"Ť":{"ha":806,"x_min":49,"x_max":760,"o":"m 470 823 l 470 0 l 337 0 l 337 823 l 49 823 l 49 922 l 760 922 l 760 823 l 470 823 m 514 1156 l 653 1156 l 453 998 l 370 998 l 168 1156 l 309 1156 l 411 1068 l 514 1156 z "},"Ţ":{"ha":806,"x_min":49,"x_max":760,"o":"m 470 823 l 470 0 l 337 0 l 337 823 l 49 823 l 49 922 l 760 922 l 760 823 l 470 823 m 335 -69 l 486 -69 l 385 -339 l 290 -326 l 335 -69 z "},"Ű":{"ha":964,"x_min":124,"x_max":887,"o":"m 710 922 l 843 922 l 843 279 q 817 155 843 209 q 743 63 791 100 q 629 6 696 25 q 482 -14 563 -14 q 336 6 402 -14 q 223 63 271 25 q 150 155 176 100 q 124 279 124 209 l 124 922 l 257 922 l 257 279 q 274 196 257 233 q 320 136 290 160 q 391 98 350 111 q 482 85 433 85 q 575 98 533 85 q 647 136 617 111 q 693 196 677 160 q 710 279 710 233 l 710 922 m 459 1221 l 591 1180 l 382 998 l 297 1025 l 459 1221 m 742 1221 l 887 1180 l 634 998 l 537 1025 l 742 1221 z "},"Ů":{"ha":964,"x_min":124,"x_max":843,"o":"m 710 922 l 843 922 l 843 279 q 817 155 843 209 q 743 63 791 100 q 629 6 696 25 q 482 -14 563 -14 q 336 6 402 -14 q 223 63 271 25 q 150 155 176 100 q 124 279 124 209 l 124 922 l 257 922 l 257 279 q 274 196 257 233 q 320 136 290 160 q 391 98 350 111 q 482 85 433 85 q 575 98 533 85 q 647 136 617 111 q 693 196 677 160 q 710 279 710 233 l 710 922 m 481 1260 q 537 1250 511 1260 q 583 1221 563 1239 q 613 1179 602 1203 q 625 1128 625 1156 q 613 1077 625 1101 q 583 1035 602 1053 q 537 1007 563 1017 q 481 997 511 997 q 425 1007 451 997 q 379 1035 399 1017 q 349 1077 360 1053 q 337 1128 337 1101 q 349 1179 337 1156 q 379 1221 360 1203 q 425 1250 399 1239 q 481 1260 451 1260 m 481 1076 q 522 1091 506 1076 q 538 1128 538 1107 q 522 1166 538 1151 q 481 1181 506 1181 q 440 1166 458 1181 q 423 1128 423 1151 q 440 1091 423 1107 q 481 1076 458 1076 z "},"Ý":{"ha":804,"x_min":49,"x_max":757,"o":"m 402 457 l 621 922 l 757 922 l 467 329 l 467 0 l 334 0 l 334 333 l 49 922 l 185 922 l 402 457 m 488 1207 l 632 1166 l 439 998 l 343 1025 l 488 1207 z "},"Ź":{"ha":843,"x_min":93,"x_max":783,"o":"m 97 922 l 736 922 l 736 848 l 244 99 l 783 99 l 753 0 l 93 0 l 93 85 l 570 823 l 97 823 l 97 922 m 488 1207 l 632 1166 l 439 998 l 343 1025 l 488 1207 z "},"Ž":{"ha":843,"x_min":93,"x_max":783,"o":"m 97 922 l 736 922 l 736 848 l 244 99 l 783 99 l 753 0 l 93 0 l 93 85 l 570 823 l 97 823 l 97 922 m 513 1156 l 652 1156 l 452 998 l 368 998 l 166 1156 l 307 1156 l 410 1068 l 513 1156 z "},"Ż":{"ha":843,"x_min":93,"x_max":783,"o":"m 97 922 l 736 922 l 736 848 l 244 99 l 783 99 l 753 0 l 93 0 l 93 85 l 570 823 l 97 823 l 97 922 m 327 1116 l 475 1116 l 475 997 l 327 997 l 327 1116 z "},"ă":{"ha":749,"x_min":71,"x_max":639,"o":"m 506 406 l 506 422 q 497 501 506 469 q 471 551 489 532 q 425 577 453 570 q 357 585 397 585 q 302 581 330 585 q 248 572 274 578 q 198 558 222 566 q 158 543 175 551 l 129 635 q 180 658 151 648 q 240 676 209 669 q 305 688 272 684 q 369 692 338 692 q 480 680 431 692 q 566 637 530 667 q 620 554 601 606 q 639 422 639 502 l 639 0 l 536 0 l 518 73 q 482 47 505 62 q 430 19 460 33 q 364 -3 401 6 q 285 -12 328 -12 q 192 4 232 -12 q 124 48 151 20 q 84 113 98 76 q 71 190 71 149 q 92 272 71 233 q 152 341 114 311 q 243 388 191 370 q 358 406 296 406 l 506 406 m 320 87 q 387 95 356 87 q 441 114 417 103 q 481 137 465 125 q 506 155 498 149 l 506 321 l 374 321 q 289 305 322 321 q 237 268 256 290 q 211 223 218 246 q 203 186 203 201 q 212 143 203 162 q 237 112 221 125 q 274 93 252 100 q 320 87 295 87 m 382 777 q 288 787 331 777 q 215 818 245 798 q 167 870 184 839 q 150 941 150 901 l 254 941 q 287 874 254 899 q 382 849 319 849 q 480 874 448 849 q 513 941 513 899 l 616 941 q 600 870 616 901 q 551 818 583 839 q 477 787 520 798 q 382 777 434 777 z "},"ą":{"ha":749,"x_min":71,"x_max":644,"o":"m 506 406 l 506 422 q 497 501 506 469 q 471 551 489 532 q 425 577 453 570 q 357 585 397 585 q 302 581 330 585 q 248 572 274 578 q 198 558 222 566 q 158 543 175 551 l 129 635 q 180 658 151 648 q 240 676 209 669 q 305 688 272 684 q 369 692 338 692 q 480 680 431 692 q 566 637 530 667 q 620 554 601 606 q 639 422 639 502 l 639 0 l 536 0 l 518 73 q 482 47 505 62 q 430 19 460 33 q 364 -3 401 6 q 285 -12 328 -12 q 192 4 232 -12 q 124 48 151 20 q 84 113 98 76 q 71 190 71 149 q 92 272 71 233 q 152 341 114 311 q 243 388 191 370 q 358 406 296 406 l 506 406 m 320 87 q 387 95 356 87 q 441 114 417 103 q 481 137 465 125 q 506 155 498 149 l 506 321 l 374 321 q 289 305 322 321 q 237 268 256 290 q 211 223 218 246 q 203 186 203 201 q 212 143 203 162 q 237 112 221 125 q 274 93 252 100 q 320 87 295 87 m 644 0 q 557 -55 587 -22 q 527 -133 527 -88 q 531 -153 527 -144 q 543 -169 536 -162 q 558 -178 550 -175 q 576 -182 567 -182 q 593 -181 587 -182 q 606 -180 600 -181 q 616 -178 611 -179 q 629 -174 621 -176 l 644 -250 q 630 -255 640 -252 q 609 -260 621 -258 q 584 -263 597 -262 q 557 -264 570 -264 q 452 -232 490 -264 q 415 -142 415 -200 q 426 -81 415 -109 q 456 -31 437 -53 q 501 7 475 -9 q 555 30 527 22 l 644 3 l 644 0 z "},"ć":{"ha":652,"x_min":78,"x_max":627,"o":"m 78 340 q 101 485 78 420 q 168 596 124 550 q 273 667 211 642 q 413 692 335 692 q 525 682 477 692 q 604 655 572 673 l 566 563 q 541 574 554 568 q 511 583 528 579 q 474 590 495 587 q 427 593 454 593 q 339 578 378 593 q 271 533 299 564 q 227 454 242 502 q 211 340 211 406 q 227 226 211 274 q 271 147 242 178 q 339 100 299 115 q 427 85 378 85 q 523 95 484 85 q 591 118 562 104 l 625 31 q 543 -1 592 11 q 427 -14 494 -14 q 281 12 346 -14 q 172 84 217 37 q 102 195 126 130 q 78 340 78 260 m 482 990 l 627 949 l 433 781 l 338 808 l 482 990 z "},"č":{"ha":652,"x_min":78,"x_max":646,"o":"m 78 340 q 101 485 78 420 q 168 596 124 550 q 273 667 211 642 q 413 692 335 692 q 525 682 477 692 q 604 655 572 673 l 566 563 q 541 574 554 568 q 511 583 528 579 q 474 590 495 587 q 427 593 454 593 q 339 578 378 593 q 271 533 299 564 q 227 454 242 502 q 211 340 211 406 q 227 226 211 274 q 271 147 242 178 q 339 100 299 115 q 427 85 378 85 q 523 95 484 85 q 591 118 562 104 l 625 31 q 543 -1 592 11 q 427 -14 494 -14 q 281 12 346 -14 q 172 84 217 37 q 102 195 126 130 q 78 340 78 260 m 507 939 l 646 939 l 446 781 l 363 781 l 161 939 l 302 939 l 404 851 l 507 939 z "},"đ":{"ha":805,"x_min":84,"x_max":812,"o":"m 561 59 q 523 28 543 41 q 481 5 504 15 q 429 -9 458 -4 q 364 -14 401 -14 q 248 12 300 -14 q 160 84 196 37 q 104 195 123 130 q 84 340 84 260 q 104 485 84 420 q 160 596 123 550 q 248 667 196 642 q 364 692 300 692 q 425 687 398 692 q 475 674 452 682 q 518 652 498 665 q 555 623 537 640 l 555 949 l 688 949 l 688 0 l 571 0 l 561 59 m 217 340 q 228 231 217 279 q 261 151 238 184 q 320 102 283 119 q 408 85 356 85 q 488 99 452 85 q 555 134 525 113 l 555 544 q 488 579 525 566 q 408 593 452 593 q 320 576 356 593 q 261 528 283 560 q 228 449 238 496 q 217 340 217 402 m 289 861 l 812 861 l 812 762 l 289 762 l 289 861 z "},"ě":{"ha":753,"x_min":77,"x_max":683,"o":"m 210 323 q 267 148 212 210 q 425 85 321 85 q 488 89 459 85 q 541 98 517 93 q 583 111 564 104 q 618 123 602 117 l 650 37 q 549 0 608 13 q 425 -14 491 -14 q 277 10 342 -14 q 168 78 212 33 q 100 186 123 122 q 77 334 77 251 q 99 485 77 418 q 164 598 122 552 q 264 668 205 644 q 397 692 323 692 q 509 673 456 692 q 600 621 561 655 q 661 536 638 586 q 683 422 683 486 l 683 323 l 210 323 m 397 593 q 330 585 360 593 q 276 556 300 576 q 237 504 253 536 q 215 422 222 471 l 550 422 q 537 501 550 469 q 503 554 524 534 q 454 584 481 574 q 397 593 427 593 m 488 939 l 627 939 l 427 781 l 344 781 l 142 939 l 283 939 l 385 851 l 488 939 z "},"ę":{"ha":753,"x_min":77,"x_max":683,"o":"m 210 323 q 267 148 212 210 q 425 85 321 85 q 488 89 459 85 q 541 98 517 93 q 583 111 564 104 q 618 123 602 117 l 650 37 q 549 0 608 13 q 425 -14 491 -14 q 277 10 342 -14 q 168 78 212 33 q 100 186 123 122 q 77 334 77 251 q 99 485 77 418 q 164 598 122 552 q 264 668 205 644 q 397 692 323 692 q 509 673 456 692 q 600 621 561 655 q 661 536 638 586 q 683 422 683 486 l 683 323 l 210 323 m 397 593 q 330 585 360 593 q 276 556 300 576 q 237 504 253 536 q 215 422 222 471 l 550 422 q 537 501 550 469 q 503 554 524 534 q 454 584 481 574 q 397 593 427 593 m 555 0 q 468 -55 498 -22 q 438 -133 438 -88 q 443 -153 438 -144 q 454 -169 447 -162 q 470 -178 461 -175 q 487 -182 478 -182 q 505 -181 498 -182 q 517 -180 511 -181 q 527 -178 522 -179 q 540 -174 532 -176 l 555 -250 q 542 -255 551 -252 q 520 -260 532 -258 q 495 -263 509 -262 q 468 -264 481 -264 q 363 -232 401 -264 q 326 -142 326 -200 q 337 -81 326 -109 q 368 -31 349 -53 q 412 7 387 -9 q 467 30 438 22 l 555 3 l 555 0 z "},"ĺ":{"ha":397,"x_min":133,"x_max":429,"o":"m 133 949 l 266 949 l 266 0 l 133 0 l 133 949 m 284 1248 l 429 1207 l 235 1039 l 140 1066 l 284 1248 z "},"ľ":{"ha":397,"x_min":133,"x_max":583,"o":"m 133 949 l 266 949 l 266 0 l 133 0 l 133 949 m 432 955 l 583 955 l 463 637 l 368 651 l 432 955 z "},"ń":{"ha":817,"x_min":119,"x_max":701,"o":"m 119 678 l 236 678 l 247 614 q 353 671 296 650 q 477 692 410 692 q 569 681 528 692 q 640 642 610 669 q 685 568 669 614 q 701 449 701 521 l 701 0 l 568 0 l 568 449 q 561 516 568 489 q 539 561 553 544 q 501 585 524 578 q 446 593 478 593 q 341 571 389 593 q 252 517 293 549 l 252 0 l 119 0 l 119 678 m 495 990 l 640 949 l 446 781 l 351 808 l 495 990 z "},"ň":{"ha":817,"x_min":119,"x_max":701,"o":"m 119 678 l 236 678 l 247 614 q 353 671 296 650 q 477 692 410 692 q 569 681 528 692 q 640 642 610 669 q 685 568 669 614 q 701 449 701 521 l 701 0 l 568 0 l 568 449 q 561 516 568 489 q 539 561 553 544 q 501 585 524 578 q 446 593 478 593 q 341 571 389 593 q 252 517 293 549 l 252 0 l 119 0 l 119 678 m 520 939 l 659 939 l 459 781 l 376 781 l 174 939 l 315 939 l 417 851 l 520 939 z "},"ő":{"ha":807,"x_min":77,"x_max":808,"o":"m 77 339 q 100 486 77 421 q 167 597 124 551 q 271 667 210 643 q 405 692 331 692 q 539 667 478 692 q 644 597 600 643 q 711 486 687 551 q 735 339 735 421 q 711 191 735 256 q 644 80 687 126 q 539 11 600 35 q 405 -14 478 -14 q 271 11 331 -14 q 167 80 210 35 q 100 191 124 126 q 77 339 77 256 m 210 339 q 224 224 210 273 q 264 145 238 176 q 326 100 290 115 q 405 85 361 85 q 485 100 448 85 q 547 145 521 115 q 588 224 573 176 q 602 339 602 273 q 588 454 602 406 q 547 533 573 502 q 485 578 521 564 q 405 593 448 593 q 326 578 361 593 q 264 533 290 564 q 224 454 238 502 q 210 339 210 406 m 380 1002 l 512 962 l 303 780 l 218 807 l 380 1002 m 663 1002 l 808 962 l 555 780 l 458 807 l 663 1002 z "},"ŕ":{"ha":517,"x_min":119,"x_max":490,"o":"m 119 678 l 236 678 l 247 583 q 334 667 288 643 q 433 692 380 692 q 461 691 446 692 q 490 689 477 690 l 478 574 q 443 578 460 577 q 404 579 425 579 q 321 552 358 579 q 252 482 283 525 l 252 0 l 119 0 l 119 678 m 342 990 l 487 949 l 294 781 l 198 808 l 342 990 z "},"ř":{"ha":517,"x_min":22,"x_max":507,"o":"m 119 678 l 236 678 l 247 583 q 334 667 288 643 q 433 692 380 692 q 461 691 446 692 q 490 689 477 690 l 478 574 q 443 578 460 577 q 404 579 425 579 q 321 552 358 579 q 252 482 283 525 l 252 0 l 119 0 l 119 678 m 368 939 l 507 939 l 307 781 l 224 781 l 22 939 l 163 939 l 265 851 l 368 939 z "},"ś":{"ha":659,"x_min":73,"x_max":586,"o":"m 586 189 q 568 105 586 142 q 516 41 550 68 q 435 1 483 15 q 326 -14 387 -14 q 254 -10 290 -14 q 185 1 218 -6 q 124 17 153 7 q 73 39 95 27 l 98 134 q 150 115 125 124 q 201 100 175 106 q 258 89 228 93 q 325 85 288 85 q 423 112 393 85 q 453 184 453 138 q 442 222 453 205 q 411 252 431 239 q 363 277 391 266 q 299 297 334 288 q 212 328 252 309 q 143 370 172 346 q 97 426 114 395 q 81 495 81 457 q 99 578 81 541 q 151 640 117 614 q 234 679 185 665 q 344 692 283 692 q 475 678 418 692 q 565 648 532 665 l 541 555 q 495 570 516 563 q 452 582 474 576 q 405 590 430 587 q 347 593 379 593 q 246 568 279 593 q 214 502 214 544 q 221 465 214 481 q 244 435 228 449 q 286 411 260 422 q 351 389 312 399 q 455 354 411 374 q 529 310 500 334 q 572 256 557 286 q 586 189 586 226 m 416 990 l 560 949 l 367 781 l 271 808 l 416 990 z "},"š":{"ha":659,"x_min":73,"x_max":586,"o":"m 586 189 q 568 105 586 142 q 516 41 550 68 q 435 1 483 15 q 326 -14 387 -14 q 254 -10 290 -14 q 185 1 218 -6 q 124 17 153 7 q 73 39 95 27 l 98 134 q 150 115 125 124 q 201 100 175 106 q 258 89 228 93 q 325 85 288 85 q 423 112 393 85 q 453 184 453 138 q 442 222 453 205 q 411 252 431 239 q 363 277 391 266 q 299 297 334 288 q 212 328 252 309 q 143 370 172 346 q 97 426 114 395 q 81 495 81 457 q 99 578 81 541 q 151 640 117 614 q 234 679 185 665 q 344 692 283 692 q 475 678 418 692 q 565 648 532 665 l 541 555 q 495 570 516 563 q 452 582 474 576 q 405 590 430 587 q 347 593 379 593 q 246 568 279 593 q 214 502 214 544 q 221 465 214 481 q 244 435 228 449 q 286 411 260 422 q 351 389 312 399 q 455 354 411 374 q 529 310 500 334 q 572 256 557 286 q 586 189 586 226 m 441 939 l 580 939 l 380 781 l 296 781 l 94 939 l 235 939 l 338 851 l 441 939 z "},"ş":{"ha":659,"x_min":73,"x_max":586,"o":"m 586 189 q 568 105 586 142 q 516 41 550 68 q 435 1 483 15 q 326 -14 387 -14 q 254 -10 290 -14 q 185 1 218 -6 q 124 17 153 7 q 73 39 95 27 l 98 134 q 150 115 125 124 q 201 100 175 106 q 258 89 228 93 q 325 85 288 85 q 423 112 393 85 q 453 184 453 138 q 442 222 453 205 q 411 252 431 239 q 363 277 391 266 q 299 297 334 288 q 212 328 252 309 q 143 370 172 346 q 97 426 114 395 q 81 495 81 457 q 99 578 81 541 q 151 640 117 614 q 234 679 185 665 q 344 692 283 692 q 475 678 418 692 q 565 648 532 665 l 541 555 q 495 570 516 563 q 452 582 474 576 q 405 590 430 587 q 347 593 379 593 q 246 568 279 593 q 214 502 214 544 q 221 465 214 481 q 244 435 228 449 q 286 411 260 422 q 351 389 312 399 q 455 354 411 374 q 529 310 500 334 q 572 256 557 286 q 586 189 586 226 m 404 14 q 427 -79 427 -31 q 412 -147 427 -115 q 368 -204 397 -180 q 294 -243 338 -229 q 191 -258 250 -258 l 168 -183 q 275 -147 240 -176 q 310 -76 310 -119 q 280 14 310 -36 l 404 14 z "},"ť":{"ha":551,"x_min":39,"x_max":762,"o":"m 55 678 l 152 678 l 152 854 l 285 868 l 285 678 l 485 678 l 485 579 l 285 579 l 285 217 q 290 159 285 183 q 308 121 296 136 q 338 100 319 106 q 382 94 357 94 q 416 95 399 94 q 450 98 433 96 q 481 103 467 100 q 506 107 496 105 l 510 15 q 480 7 497 11 q 445 1 464 3 q 407 -4 427 -2 q 369 -5 387 -5 q 278 4 318 -5 q 210 38 238 14 q 167 106 182 63 q 152 217 152 149 l 152 579 l 39 579 l 55 678 m 611 886 l 762 886 l 642 569 l 547 583 l 611 886 z "},"ţ":{"ha":551,"x_min":39,"x_max":510,"o":"m 55 678 l 152 678 l 152 854 l 285 868 l 285 678 l 485 678 l 485 579 l 285 579 l 285 217 q 290 159 285 183 q 308 121 296 136 q 338 100 319 106 q 382 94 357 94 q 416 95 399 94 q 450 98 433 96 q 481 103 467 100 q 506 107 496 105 l 510 15 q 480 7 497 11 q 445 1 464 3 q 407 -4 427 -2 q 369 -5 387 -5 q 278 4 318 -5 q 210 38 238 14 q 167 106 182 63 q 152 217 152 149 l 152 579 l 39 579 l 55 678 m 294 -69 l 445 -69 l 344 -339 l 248 -326 l 294 -69 z "},"ű":{"ha":817,"x_min":119,"x_max":814,"o":"m 701 0 l 583 0 l 572 86 q 466 13 523 39 q 344 -14 410 -14 q 251 -1 292 -14 q 180 41 210 11 q 135 124 151 72 q 119 256 119 176 l 119 678 l 252 678 l 252 256 q 259 176 252 208 q 281 123 266 143 q 318 94 296 103 q 373 85 341 85 q 479 107 431 85 q 568 162 527 128 l 568 678 l 701 678 l 701 0 m 386 990 l 518 949 l 309 768 l 224 795 l 386 990 m 669 990 l 814 949 l 561 768 l 464 795 l 669 990 z "},"ů":{"ha":817,"x_min":119,"x_max":701,"o":"m 701 0 l 583 0 l 572 86 q 466 13 523 39 q 344 -14 410 -14 q 251 -1 292 -14 q 180 41 210 11 q 135 124 151 72 q 119 256 119 176 l 119 678 l 252 678 l 252 256 q 259 176 252 208 q 281 123 266 143 q 318 94 296 103 q 373 85 341 85 q 479 107 431 85 q 568 162 527 128 l 568 678 l 701 678 l 701 0 m 408 1030 q 464 1020 437 1030 q 509 991 490 1009 q 540 949 529 973 q 551 899 551 926 q 540 847 551 871 q 509 805 529 823 q 464 777 490 787 q 408 767 437 767 q 352 777 378 767 q 306 805 326 787 q 275 847 287 823 q 264 899 264 871 q 275 949 264 926 q 306 991 287 973 q 352 1020 326 1009 q 408 1030 378 1030 m 408 846 q 449 861 433 846 q 465 899 465 877 q 449 936 465 921 q 408 951 433 951 q 367 936 385 951 q 350 899 350 921 q 367 861 350 877 q 408 846 385 846 z "},"ý":{"ha":713,"x_min":43,"x_max":671,"o":"m 534 678 l 671 678 l 411 -45 q 366 -158 389 -113 q 316 -231 343 -203 q 256 -269 289 -258 q 180 -279 223 -279 q 136 -276 158 -279 q 97 -267 115 -273 l 110 -175 q 136 -178 121 -175 q 168 -180 151 -180 q 206 -174 190 -180 q 236 -152 222 -168 q 264 -109 250 -136 q 295 -37 278 -81 l 43 678 l 180 678 l 354 136 l 534 678 m 444 977 l 588 936 l 395 768 l 299 795 l 444 977 z "},"ź":{"ha":703,"x_min":73,"x_max":646,"o":"m 79 678 l 610 678 l 610 597 l 227 99 l 646 99 l 618 0 l 73 0 l 73 92 l 441 579 l 79 579 l 79 678 m 446 977 l 591 936 l 397 768 l 302 795 l 446 977 z "},"ž":{"ha":703,"x_min":73,"x_max":646,"o":"m 79 678 l 610 678 l 610 597 l 227 99 l 646 99 l 618 0 l 73 0 l 73 92 l 441 579 l 79 579 l 79 678 m 471 926 l 610 926 l 410 768 l 327 768 l 125 926 l 266 926 l 368 838 l 471 926 z "},"ż":{"ha":703,"x_min":73,"x_max":646,"o":"m 79 678 l 610 678 l 610 597 l 227 99 l 646 99 l 618 0 l 73 0 l 73 92 l 441 579 l 79 579 l 79 678 m 286 886 l 433 886 l 433 767 l 286 767 l 286 886 z "},"Ŗ":{"ha":853,"x_min":124,"x_max":794,"o":"m 124 922 l 422 922 q 561 904 500 922 q 663 853 621 886 q 726 771 705 819 q 748 661 748 722 q 736 588 748 623 q 703 523 724 553 q 656 467 683 492 q 599 423 629 441 l 794 0 l 655 0 l 475 396 l 257 396 l 257 0 l 124 0 l 124 922 m 257 823 l 257 495 l 533 495 q 563 522 548 507 q 589 555 577 536 q 608 600 600 574 q 615 661 615 626 q 601 736 615 705 q 561 786 587 767 q 496 814 534 806 q 409 823 458 823 l 257 823 m 368 -69 l 519 -69 l 418 -339 l 323 -326 l 368 -69 z "},"Ĩ":{"ha":570,"x_min":32,"x_max":541,"o":"m 93 0 l 93 99 l 218 99 l 218 823 l 93 823 l 93 922 l 478 922 l 478 823 l 351 823 l 351 99 l 478 99 l 478 0 l 93 0 m 387 1096 q 408 1100 397 1096 q 431 1112 420 1103 q 452 1132 442 1120 q 470 1161 463 1144 l 541 1107 q 514 1063 530 1082 q 481 1031 498 1044 q 444 1009 463 1017 q 406 998 425 1001 q 392 996 399 997 q 378 996 385 996 q 312 1011 341 996 q 256 1046 282 1027 q 216 1069 235 1061 q 186 1076 197 1077 q 166 1073 176 1075 q 147 1063 157 1070 q 126 1044 137 1057 q 103 1013 115 1032 l 32 1063 q 58 1106 42 1087 q 92 1139 74 1125 q 130 1161 111 1152 q 167 1173 149 1170 q 190 1175 179 1175 q 259 1159 228 1175 q 317 1124 290 1143 q 355 1102 336 1108 q 387 1096 374 1096 z "},"Ļ":{"ha":703,"x_min":123,"x_max":673,"o":"m 123 922 l 256 922 l 256 99 l 673 99 l 673 0 l 123 0 l 123 922 m 328 -69 l 479 -69 l 378 -339 l 283 -326 l 328 -69 z "},"Ē":{"ha":728,"x_min":124,"x_max":667,"o":"m 124 0 l 124 922 l 667 922 l 667 823 l 257 823 l 257 522 l 623 522 l 623 423 l 257 423 l 257 99 l 667 99 l 667 0 l 124 0 m 130 1096 l 654 1096 l 654 997 l 130 997 l 130 1096 z "},"Ģ":{"ha":928,"x_min":88,"x_max":824,"o":"m 490 468 l 824 468 l 824 46 q 687 2 758 18 q 533 -14 616 -14 q 346 24 428 -14 q 206 127 263 62 q 118 279 149 193 q 88 461 88 365 q 121 658 88 570 q 215 808 154 746 q 365 903 277 869 q 565 936 454 936 q 630 932 600 936 q 685 924 660 929 q 729 911 709 918 q 764 898 749 905 l 736 804 q 663 826 705 816 q 565 837 620 837 q 420 813 484 837 q 312 742 356 789 q 244 624 267 694 q 221 461 221 553 q 242 321 221 389 q 302 201 262 253 q 400 117 342 149 q 533 85 458 85 q 616 90 577 85 q 691 109 654 95 l 691 369 l 490 369 l 490 468 m 463 -69 l 614 -69 l 513 -339 l 417 -326 l 463 -69 z "},"ŗ":{"ha":517,"x_min":66,"x_max":490,"o":"m 119 678 l 236 678 l 247 583 q 334 667 288 643 q 433 692 380 692 q 461 691 446 692 q 490 689 477 690 l 478 574 q 443 578 460 577 q 404 579 425 579 q 321 552 358 579 q 252 482 283 525 l 252 0 l 119 0 l 119 678 m 112 -66 l 263 -66 l 162 -336 l 66 -323 l 112 -66 z "},"ĩ":{"ha":279,"x_min":-112,"x_max":397,"o":"m 73 678 l 206 678 l 206 0 l 73 0 l 73 678 m 243 876 q 264 879 253 876 q 287 891 276 883 q 309 911 298 899 q 326 941 319 924 l 397 886 q 370 843 386 862 q 337 810 355 824 q 300 789 319 797 q 262 778 281 781 q 248 776 255 777 q 234 775 241 775 q 168 791 197 775 q 113 825 138 806 q 72 849 91 841 q 42 855 54 857 q 22 852 32 854 q 3 843 13 850 q -18 824 -7 836 q -41 793 -28 812 l -112 843 q -86 886 -102 867 q -52 918 -70 905 q -14 941 -33 932 q 23 953 5 949 q 46 955 35 955 q 115 939 84 955 q 173 904 146 923 q 212 882 193 888 q 243 876 231 876 z "},"ļ":{"ha":397,"x_min":85,"x_max":281,"o":"m 133 949 l 266 949 l 266 0 l 133 0 l 133 949 m 130 -69 l 281 -69 l 180 -339 l 85 -326 l 130 -69 z "},"ē":{"ha":753,"x_min":77,"x_max":683,"o":"m 210 323 q 267 148 212 210 q 425 85 321 85 q 488 89 459 85 q 541 98 517 93 q 583 111 564 104 q 618 123 602 117 l 650 37 q 549 0 608 13 q 425 -14 491 -14 q 277 10 342 -14 q 168 78 212 33 q 100 186 123 122 q 77 334 77 251 q 99 485 77 418 q 164 598 122 552 q 264 668 205 644 q 397 692 323 692 q 509 673 456 692 q 600 621 561 655 q 661 536 638 586 q 683 422 683 486 l 683 323 l 210 323 m 397 593 q 330 585 360 593 q 276 556 300 576 q 237 504 253 536 q 215 422 222 471 l 550 422 q 537 501 550 469 q 503 554 524 534 q 454 584 481 574 q 397 593 427 593 m 113 880 l 636 880 l 636 781 l 113 781 l 113 880 z "},"ģ":{"ha":807,"x_min":58,"x_max":761,"o":"m 96 445 q 118 551 96 505 q 179 629 140 597 q 274 676 219 660 q 397 692 330 692 q 510 678 458 692 l 761 678 l 751 591 l 652 591 q 686 526 674 562 q 698 445 698 490 q 676 341 698 387 q 614 263 654 295 q 519 215 574 232 q 397 198 464 198 q 277 214 332 198 q 260 185 266 201 q 254 148 254 170 q 256 133 254 142 q 261 115 258 124 q 269 98 264 106 q 277 85 273 90 l 478 85 q 593 70 543 85 q 675 28 642 55 q 724 -35 708 1 q 739 -113 740 -71 q 708 -198 734 -159 q 636 -266 682 -237 q 529 -311 591 -294 q 391 -327 467 -327 q 313 -323 353 -327 q 236 -311 273 -319 q 167 -288 199 -302 q 110 -252 134 -273 q 72 -202 86 -231 q 58 -136 58 -174 q 86 -42 58 -84 q 176 31 114 0 q 148 72 160 49 q 136 123 136 95 q 154 193 136 164 q 203 246 172 222 q 124 328 153 278 q 96 445 96 378 m 229 445 q 271 336 229 376 q 397 297 313 297 q 523 336 481 297 q 565 445 565 376 q 552 510 565 482 q 517 556 540 538 q 464 584 495 574 q 397 593 433 593 q 329 584 360 593 q 276 556 298 574 q 241 510 254 538 q 229 445 229 482 m 262 -14 q 231 -36 244 -25 q 209 -61 218 -47 q 196 -93 200 -75 q 191 -133 191 -110 q 202 -168 191 -153 q 230 -194 212 -183 q 269 -211 247 -204 q 313 -221 290 -218 q 356 -227 335 -225 q 394 -228 378 -228 q 481 -219 442 -228 q 548 -196 520 -211 q 591 -160 576 -180 q 606 -115 606 -139 q 600 -75 606 -94 q 577 -43 593 -56 q 531 -21 560 -29 q 454 -14 501 -14 l 262 -14 m 470 779 l 319 779 l 438 1096 l 534 1082 l 470 779 z "},"Ā":{"ha":905,"x_min":49,"x_max":859,"o":"m 644 235 l 263 235 l 182 0 l 49 0 l 385 922 l 521 922 l 859 0 l 726 0 l 644 235 m 298 334 l 610 334 l 454 780 l 298 334 m 190 1097 l 713 1097 l 713 998 l 190 998 l 190 1097 z "},"Į":{"ha":570,"x_min":93,"x_max":481,"o":"m 93 0 l 93 99 l 218 99 l 218 823 l 93 823 l 93 922 l 478 922 l 478 823 l 351 823 l 351 99 l 478 99 l 478 0 l 93 0 m 481 0 q 394 -55 424 -22 q 364 -133 364 -88 q 369 -153 364 -144 q 380 -169 373 -162 q 396 -178 387 -175 q 413 -182 404 -182 q 431 -181 424 -182 q 443 -180 437 -181 q 453 -178 448 -179 q 466 -174 458 -176 l 481 -250 q 468 -255 477 -252 q 447 -260 458 -258 q 421 -263 435 -262 q 394 -264 407 -264 q 290 -232 327 -264 q 252 -142 252 -200 q 263 -81 252 -109 q 294 -31 275 -53 q 338 7 313 -9 q 393 30 364 22 l 481 3 l 481 0 z "},"Ė":{"ha":728,"x_min":124,"x_max":667,"o":"m 124 0 l 124 922 l 667 922 l 667 823 l 257 823 l 257 522 l 623 522 l 623 423 l 257 423 l 257 99 l 667 99 l 667 0 l 124 0 m 320 1116 l 468 1116 l 468 997 l 320 997 l 320 1116 z "},"Ī":{"ha":570,"x_min":22,"x_max":546,"o":"m 93 0 l 93 99 l 218 99 l 218 823 l 93 823 l 93 922 l 478 922 l 478 823 l 351 823 l 351 99 l 478 99 l 478 0 l 93 0 m 22 1096 l 546 1096 l 546 997 l 22 997 l 22 1096 z "},"Ņ":{"ha":987,"x_min":123,"x_max":865,"o":"m 123 922 l 256 922 l 256 922 l 257 922 l 732 206 l 732 922 l 865 922 l 865 0 l 732 0 l 256 718 l 256 0 l 123 0 l 123 922 m 410 -69 l 562 -69 l 460 -339 l 365 -326 l 410 -69 z "},"Ō":{"ha":955,"x_min":75,"x_max":880,"o":"m 75 461 q 105 658 75 570 q 187 808 134 746 q 314 903 240 869 q 477 936 388 936 q 639 903 565 936 q 767 808 713 869 q 850 658 820 746 q 880 461 880 570 q 850 263 880 351 q 767 114 820 176 q 639 19 713 52 q 477 -14 565 -14 q 314 19 388 -14 q 187 114 240 52 q 105 263 134 176 q 75 461 75 351 m 208 461 q 228 296 208 367 q 283 179 248 226 q 368 109 319 132 q 477 85 418 85 q 586 109 536 85 q 672 179 636 132 q 727 296 707 226 q 747 461 747 367 q 727 626 747 555 q 672 743 707 696 q 586 813 636 790 q 477 837 536 837 q 368 813 418 837 q 283 743 319 790 q 228 626 248 696 q 208 461 208 555 m 210 1108 l 734 1108 l 734 1009 l 210 1009 l 210 1108 z "},"Ķ":{"ha":865,"x_min":121,"x_max":838,"o":"m 394 408 l 254 408 l 254 0 l 121 0 l 121 922 l 254 922 l 254 507 l 390 507 l 644 922 l 789 922 l 506 465 l 505 465 l 838 0 l 686 0 l 394 408 m 359 -69 l 510 -69 l 409 -339 l 313 -326 l 359 -69 z "},"Ų":{"ha":964,"x_min":124,"x_max":843,"o":"m 710 922 l 843 922 l 843 279 q 817 155 843 209 q 743 63 791 100 q 629 6 696 25 q 482 -14 563 -14 q 336 6 402 -14 q 223 63 271 25 q 150 155 176 100 q 124 279 124 209 l 124 922 l 257 922 l 257 279 q 274 196 257 233 q 320 136 290 160 q 391 98 350 111 q 482 85 433 85 q 575 98 533 85 q 647 136 617 111 q 693 196 677 160 q 710 279 710 233 l 710 922 m 612 0 q 525 -55 555 -22 q 495 -133 495 -88 q 499 -153 495 -144 q 511 -169 504 -162 q 527 -178 518 -175 q 544 -182 535 -182 q 562 -181 555 -182 q 574 -180 568 -181 q 584 -178 579 -179 q 597 -174 589 -176 l 612 -250 q 598 -255 608 -252 q 577 -260 589 -258 q 552 -263 566 -262 q 525 -264 538 -264 q 420 -232 458 -264 q 383 -142 383 -200 q 394 -81 383 -109 q 425 -31 406 -53 q 469 7 444 -9 q 524 30 495 22 l 612 3 l 612 0 z "},"Ũ":{"ha":964,"x_min":124,"x_max":843,"o":"m 710 922 l 843 922 l 843 279 q 817 155 843 209 q 743 63 791 100 q 629 6 696 25 q 482 -14 563 -14 q 336 6 402 -14 q 223 63 271 25 q 150 155 176 100 q 124 279 124 209 l 124 922 l 257 922 l 257 279 q 274 196 257 233 q 320 136 290 160 q 391 98 350 111 q 482 85 433 85 q 575 98 533 85 q 647 136 617 111 q 693 196 677 160 q 710 279 710 233 l 710 922 m 583 1096 q 604 1100 592 1096 q 626 1112 615 1103 q 648 1132 637 1120 q 665 1161 658 1144 l 736 1107 q 709 1063 725 1082 q 676 1031 694 1044 q 639 1009 659 1017 q 602 998 620 1001 q 587 996 594 997 q 573 996 580 996 q 507 1011 536 996 q 452 1046 477 1027 q 411 1069 430 1061 q 381 1076 393 1077 q 361 1073 371 1075 q 342 1063 352 1070 q 321 1044 332 1057 q 298 1013 311 1032 l 227 1063 q 253 1106 237 1087 q 288 1139 269 1125 q 325 1161 306 1152 q 362 1173 345 1170 q 385 1175 374 1175 q 454 1159 423 1175 q 512 1124 485 1143 q 551 1102 532 1108 q 583 1096 570 1096 z "},"Ū":{"ha":964,"x_min":124,"x_max":843,"o":"m 710 922 l 843 922 l 843 279 q 817 155 843 209 q 743 63 791 100 q 629 6 696 25 q 482 -14 563 -14 q 336 6 402 -14 q 223 63 271 25 q 150 155 176 100 q 124 279 124 209 l 124 922 l 257 922 l 257 279 q 274 196 257 233 q 320 136 290 160 q 391 98 350 111 q 482 85 433 85 q 575 98 533 85 q 647 136 617 111 q 693 196 677 160 q 710 279 710 233 l 710 922 m 218 1096 l 741 1096 l 741 997 l 218 997 l 218 1096 z "},"ā":{"ha":749,"x_min":71,"x_max":642,"o":"m 506 406 l 506 422 q 497 501 506 469 q 471 551 489 532 q 425 577 453 570 q 357 585 397 585 q 302 581 330 585 q 248 572 274 578 q 198 558 222 566 q 158 543 175 551 l 129 635 q 180 658 151 648 q 240 676 209 669 q 305 688 272 684 q 369 692 338 692 q 480 680 431 692 q 566 637 530 667 q 620 554 601 606 q 639 422 639 502 l 639 0 l 536 0 l 518 73 q 482 47 505 62 q 430 19 460 33 q 364 -3 401 6 q 285 -12 328 -12 q 192 4 232 -12 q 124 48 151 20 q 84 113 98 76 q 71 190 71 149 q 92 272 71 233 q 152 341 114 311 q 243 388 191 370 q 358 406 296 406 l 506 406 m 320 87 q 387 95 356 87 q 441 114 417 103 q 481 137 465 125 q 506 155 498 149 l 506 321 l 374 321 q 289 305 322 321 q 237 268 256 290 q 211 223 218 246 q 203 186 203 201 q 212 143 203 162 q 237 112 221 125 q 274 93 252 100 q 320 87 295 87 m 119 880 l 642 880 l 642 781 l 119 781 l 119 880 z "},"į":{"ha":397,"x_min":39,"x_max":272,"o":"m 133 678 l 266 678 l 266 0 l 133 0 l 133 678 m 126 951 l 272 951 l 272 831 l 126 831 l 126 951 m 268 0 q 181 -55 211 -22 q 151 -133 151 -88 q 156 -153 151 -144 q 167 -169 160 -162 q 183 -178 174 -175 q 200 -182 191 -182 q 218 -181 211 -182 q 230 -180 224 -181 q 240 -178 235 -179 q 253 -174 245 -176 l 268 -250 q 255 -255 264 -252 q 234 -260 245 -258 q 208 -263 222 -262 q 181 -264 194 -264 q 77 -232 114 -264 q 39 -142 39 -200 q 51 -81 39 -109 q 81 -31 62 -53 q 125 7 100 -9 q 180 30 151 22 l 268 3 l 268 0 z "},"ė":{"ha":753,"x_min":77,"x_max":683,"o":"m 210 323 q 267 148 212 210 q 425 85 321 85 q 488 89 459 85 q 541 98 517 93 q 583 111 564 104 q 618 123 602 117 l 650 37 q 549 0 608 13 q 425 -14 491 -14 q 277 10 342 -14 q 168 78 212 33 q 100 186 123 122 q 77 334 77 251 q 99 485 77 418 q 164 598 122 552 q 264 668 205 644 q 397 692 323 692 q 509 673 456 692 q 600 621 561 655 q 661 536 638 586 q 683 422 683 486 l 683 323 l 210 323 m 397 593 q 330 585 360 593 q 276 556 300 576 q 237 504 253 536 q 215 422 222 471 l 550 422 q 537 501 550 469 q 503 554 524 534 q 454 584 481 574 q 397 593 427 593 m 302 900 l 450 900 l 450 781 l 302 781 l 302 900 z "},"ī":{"ha":279,"x_min":-121,"x_max":402,"o":"m 73 678 l 206 678 l 206 0 l 73 0 l 73 678 m -121 876 l 402 876 l 402 777 l -121 777 l -121 876 z "},"ņ":{"ha":817,"x_min":119,"x_max":701,"o":"m 119 678 l 236 678 l 247 614 q 353 671 296 650 q 477 692 410 692 q 569 681 528 692 q 640 642 610 669 q 685 568 669 614 q 701 449 701 521 l 701 0 l 568 0 l 568 449 q 561 516 568 489 q 539 561 553 544 q 501 585 524 578 q 446 593 478 593 q 341 571 389 593 q 252 517 293 549 l 252 0 l 119 0 l 119 678 m 341 -69 l 492 -69 l 391 -339 l 296 -326 l 341 -69 z "},"ō":{"ha":807,"x_min":77,"x_max":735,"o":"m 77 339 q 100 486 77 421 q 167 597 124 551 q 271 667 210 643 q 405 692 331 692 q 539 667 478 692 q 644 597 600 643 q 711 486 687 551 q 735 339 735 421 q 711 191 735 256 q 644 80 687 126 q 539 11 600 35 q 405 -14 478 -14 q 271 11 331 -14 q 167 80 210 35 q 100 191 124 126 q 77 339 77 256 m 210 339 q 224 224 210 273 q 264 145 238 176 q 326 100 290 115 q 405 85 361 85 q 485 100 448 85 q 547 145 521 115 q 588 224 573 176 q 602 339 602 273 q 588 454 602 406 q 547 533 573 502 q 485 578 521 564 q 405 593 448 593 q 326 578 361 593 q 264 533 290 564 q 224 454 238 502 q 210 339 210 406 m 138 878 l 662 878 l 662 779 l 138 779 l 138 878 z "},"ķ":{"ha":728,"x_min":119,"x_max":703,"o":"m 345 300 l 252 300 l 252 0 l 119 0 l 119 949 l 252 949 l 252 399 l 343 399 l 533 678 l 682 678 l 454 357 l 453 357 l 703 0 l 550 0 l 345 300 m 304 -69 l 456 -69 l 355 -339 l 259 -326 l 304 -69 z "},"ų":{"ha":817,"x_min":119,"x_max":703,"o":"m 701 0 l 583 0 l 572 86 q 466 13 523 39 q 344 -14 410 -14 q 251 -1 292 -14 q 180 41 210 11 q 135 124 151 72 q 119 256 119 176 l 119 678 l 252 678 l 252 256 q 259 176 252 208 q 281 123 266 143 q 318 94 296 103 q 373 85 341 85 q 479 107 431 85 q 568 162 527 128 l 568 678 l 701 678 l 701 0 m 703 0 q 616 -55 646 -22 q 587 -133 587 -88 q 591 -153 587 -144 q 603 -169 595 -162 q 618 -178 610 -175 q 635 -182 627 -182 q 653 -181 646 -182 q 665 -180 660 -181 q 676 -178 671 -179 q 688 -174 681 -176 l 703 -250 q 690 -255 699 -252 q 669 -260 681 -258 q 643 -263 657 -262 q 616 -264 629 -264 q 512 -232 549 -264 q 475 -142 475 -200 q 486 -81 475 -109 q 516 -31 497 -53 q 561 7 535 -9 q 615 30 587 22 l 703 3 l 703 0 z "},"ũ":{"ha":817,"x_min":119,"x_max":701,"o":"m 701 0 l 583 0 l 572 86 q 466 13 523 39 q 344 -14 410 -14 q 251 -1 292 -14 q 180 41 210 11 q 135 124 151 72 q 119 256 119 176 l 119 678 l 252 678 l 252 256 q 259 176 252 208 q 281 123 266 143 q 318 94 296 103 q 373 85 341 85 q 479 107 431 85 q 568 162 527 128 l 568 678 l 701 678 l 701 0 m 509 865 q 530 869 519 865 q 553 881 542 873 q 574 901 564 889 q 592 930 585 913 l 663 876 q 636 833 652 852 q 603 800 621 814 q 566 779 585 787 q 528 768 547 770 q 514 766 521 766 q 500 765 507 765 q 434 781 463 765 q 378 815 404 796 q 338 839 357 831 q 308 845 319 846 q 288 842 298 844 q 269 833 279 840 q 248 814 259 826 q 225 783 237 802 l 154 833 q 180 876 164 857 q 214 908 196 895 q 252 930 233 922 q 289 943 271 939 q 312 945 301 945 q 381 929 350 945 q 439 894 412 913 q 477 871 458 878 q 509 865 496 865 z "},"ū":{"ha":817,"x_min":119,"x_max":701,"o":"m 701 0 l 583 0 l 572 86 q 466 13 523 39 q 344 -14 410 -14 q 251 -1 292 -14 q 180 41 210 11 q 135 124 151 72 q 119 256 119 176 l 119 678 l 252 678 l 252 256 q 259 176 252 208 q 281 123 266 143 q 318 94 296 103 q 373 85 341 85 q 479 107 431 85 q 568 162 527 128 l 568 678 l 701 678 l 701 0 m 144 866 l 668 866 l 668 767 l 144 767 l 144 866 z "},"Ĥ":{"ha":956,"x_min":123,"x_max":836,"o":"m 123 922 l 256 922 l 256 510 l 703 510 l 703 922 l 836 922 l 836 0 l 703 0 l 703 411 l 256 411 l 256 0 l 123 0 l 123 922 m 395 996 l 254 996 l 456 1153 l 539 1153 l 739 996 l 600 996 l 497 1075 l 395 996 z "},"İ":{"ha":570,"x_min":93,"x_max":478,"o":"m 93 0 l 93 99 l 218 99 l 218 823 l 93 823 l 93 922 l 478 922 l 478 823 l 351 823 l 351 99 l 478 99 l 478 0 l 93 0 m 212 1116 l 359 1116 l 359 997 l 212 997 l 212 1116 z "},"Ğ":{"ha":928,"x_min":88,"x_max":824,"o":"m 490 468 l 824 468 l 824 46 q 687 2 758 18 q 533 -14 616 -14 q 346 24 428 -14 q 206 127 263 62 q 118 279 149 193 q 88 461 88 365 q 121 658 88 570 q 215 808 154 746 q 365 903 277 869 q 565 936 454 936 q 630 932 600 936 q 685 924 660 929 q 729 911 709 918 q 764 898 749 905 l 736 804 q 663 826 705 816 q 565 837 620 837 q 420 813 484 837 q 312 742 356 789 q 244 624 267 694 q 221 461 221 553 q 242 321 221 389 q 302 201 262 253 q 400 117 342 149 q 533 85 458 85 q 616 90 577 85 q 691 109 654 95 l 691 369 l 490 369 l 490 468 m 530 1006 q 435 1016 478 1006 q 362 1047 393 1027 q 314 1099 331 1068 q 297 1171 297 1130 l 401 1171 q 434 1103 401 1128 q 530 1078 467 1078 q 628 1103 595 1078 q 660 1171 660 1128 l 764 1171 q 747 1099 764 1130 q 699 1047 730 1068 q 624 1016 667 1027 q 530 1006 581 1006 z "},"Ĵ":{"ha":647,"x_min":58,"x_max":724,"o":"m 88 121 q 122 108 102 114 q 163 97 142 102 q 205 89 184 92 q 243 85 227 85 q 312 95 283 85 q 359 126 340 104 q 386 180 377 147 q 394 262 394 214 l 394 922 l 527 922 l 527 262 q 508 129 527 182 q 453 44 488 76 q 368 0 418 13 q 258 -14 319 -14 q 142 -1 193 -14 q 58 28 92 12 l 88 121 m 379 996 l 238 996 l 440 1153 l 524 1153 l 724 996 l 585 996 l 481 1075 l 379 996 z "},"ĥ":{"ha":817,"x_min":-37,"x_max":701,"o":"m 119 949 l 252 949 l 252 616 q 356 672 300 652 q 477 692 411 692 q 569 680 528 692 q 640 638 610 667 q 685 562 669 610 q 701 442 701 514 l 701 0 l 568 0 l 568 442 q 539 558 568 523 q 446 593 511 593 q 341 572 389 593 q 252 517 293 551 l 252 0 l 119 0 l 119 949 m 104 1017 l -37 1017 l 165 1175 l 249 1175 l 449 1017 l 310 1017 l 207 1097 l 104 1017 z "},"ğ":{"ha":807,"x_min":58,"x_max":761,"o":"m 96 445 q 118 551 96 505 q 179 629 140 597 q 274 676 219 660 q 397 692 330 692 q 510 678 458 692 l 761 678 l 751 591 l 652 591 q 686 526 674 562 q 698 445 698 490 q 676 341 698 387 q 614 263 654 295 q 519 215 574 232 q 397 198 464 198 q 277 214 332 198 q 260 185 266 201 q 254 148 254 170 q 256 133 254 142 q 261 115 258 124 q 269 98 264 106 q 277 85 273 90 l 478 85 q 593 70 543 85 q 675 28 642 55 q 724 -35 708 1 q 739 -113 740 -71 q 708 -198 734 -159 q 636 -266 682 -237 q 529 -311 591 -294 q 391 -327 467 -327 q 313 -323 353 -327 q 236 -311 273 -319 q 167 -288 199 -302 q 110 -252 134 -273 q 72 -202 86 -231 q 58 -136 58 -174 q 86 -42 58 -84 q 176 31 114 0 q 148 72 160 49 q 136 123 136 95 q 154 193 136 164 q 203 246 172 222 q 124 328 153 278 q 96 445 96 378 m 229 445 q 271 336 229 376 q 397 297 313 297 q 523 336 481 297 q 565 445 565 376 q 552 510 565 482 q 517 556 540 538 q 464 584 495 574 q 397 593 433 593 q 329 584 360 593 q 276 556 298 574 q 241 510 254 538 q 229 445 229 482 m 262 -14 q 231 -36 244 -25 q 209 -61 218 -47 q 196 -93 200 -75 q 191 -133 191 -110 q 202 -168 191 -153 q 230 -194 212 -183 q 269 -211 247 -204 q 313 -221 290 -218 q 356 -227 335 -225 q 394 -228 378 -228 q 481 -219 442 -228 q 548 -196 520 -211 q 591 -160 576 -180 q 606 -115 606 -139 q 600 -75 606 -94 q 577 -43 593 -56 q 531 -21 560 -29 q 454 -14 501 -14 l 262 -14 m 398 776 q 304 786 347 775 q 230 817 261 796 q 182 868 199 838 q 165 940 165 899 l 270 940 q 302 873 270 898 q 398 848 335 848 q 496 873 464 848 q 528 940 528 898 l 632 940 q 615 868 632 899 q 567 817 598 838 q 493 786 536 796 q 398 776 450 775 z "},"ĵ":{"ha":380,"x_min":-96,"x_max":465,"o":"m -83 -190 q -60 -194 -73 -192 q -32 -198 -47 -196 q -3 -201 -18 -200 q 26 -202 12 -202 q 74 -194 54 -202 q 106 -169 94 -186 q 125 -121 119 -151 q 131 -47 131 -92 l 131 678 l 264 678 l 264 -47 q 248 -173 264 -123 q 202 -250 231 -222 q 131 -290 172 -279 q 38 -301 89 -301 q 2 -300 21 -301 q -34 -297 -16 -299 q -68 -292 -52 -295 q -96 -283 -84 -288 l -83 -190 m 120 802 l -21 802 l 181 959 l 264 959 l 465 802 l 326 802 l 222 881 l 120 802 z "},"Ċ":{"ha":761,"x_min":82,"x_max":720,"o":"m 82 463 q 112 657 82 570 q 196 807 141 745 q 329 902 251 869 q 506 936 408 936 q 569 932 541 936 q 620 922 597 928 q 663 908 644 916 q 701 891 683 900 l 663 803 q 592 828 630 819 q 506 837 553 837 q 387 815 441 837 q 295 748 334 793 q 236 631 257 702 q 215 463 215 561 q 237 293 215 364 q 299 176 259 222 q 395 107 339 130 q 521 85 452 85 q 575 89 550 85 q 621 99 600 93 q 659 112 642 105 q 692 126 677 119 l 720 39 q 633 2 684 17 q 506 -14 582 -14 q 329 21 408 -14 q 196 117 251 55 q 112 268 141 180 q 82 463 82 355 m 424 1130 l 572 1130 l 572 1010 l 424 1010 l 424 1130 z "},"Ĉ":{"ha":761,"x_min":82,"x_max":757,"o":"m 82 463 q 112 657 82 570 q 196 807 141 745 q 329 902 251 869 q 506 936 408 936 q 569 932 541 936 q 620 922 597 928 q 663 908 644 916 q 701 891 683 900 l 663 803 q 592 828 630 819 q 506 837 553 837 q 387 815 441 837 q 295 748 334 793 q 236 631 257 702 q 215 463 215 561 q 237 293 215 364 q 299 176 259 222 q 395 107 339 130 q 521 85 452 85 q 575 89 550 85 q 621 99 600 93 q 659 112 642 105 q 692 126 677 119 l 720 39 q 633 2 684 17 q 506 -14 582 -14 q 329 21 408 -14 q 196 117 251 55 q 112 268 141 180 q 82 463 82 355 m 412 1010 l 271 1010 l 473 1168 l 557 1168 l 757 1010 l 618 1010 l 515 1090 l 412 1010 z "},"Ġ":{"ha":928,"x_min":88,"x_max":824,"o":"m 490 468 l 824 468 l 824 46 q 687 2 758 18 q 533 -14 616 -14 q 346 24 428 -14 q 206 127 263 62 q 118 279 149 193 q 88 461 88 365 q 121 658 88 570 q 215 808 154 746 q 365 903 277 869 q 565 936 454 936 q 630 932 600 936 q 685 924 660 929 q 729 911 709 918 q 764 898 749 905 l 736 804 q 663 826 705 816 q 565 837 620 837 q 420 813 484 837 q 312 742 356 789 q 244 624 267 694 q 221 461 221 553 q 242 321 221 389 q 302 201 262 253 q 400 117 342 149 q 533 85 458 85 q 616 90 577 85 q 691 109 654 95 l 691 369 l 490 369 l 490 468 m 456 1128 l 604 1128 l 604 1009 l 456 1009 l 456 1128 z "},"Ĝ":{"ha":928,"x_min":88,"x_max":824,"o":"m 490 468 l 824 468 l 824 46 q 687 2 758 18 q 533 -14 616 -14 q 346 24 428 -14 q 206 127 263 62 q 118 279 149 193 q 88 461 88 365 q 121 658 88 570 q 215 808 154 746 q 365 903 277 869 q 565 936 454 936 q 630 932 600 936 q 685 924 660 929 q 729 911 709 918 q 764 898 749 905 l 736 804 q 663 826 705 816 q 565 837 620 837 q 420 813 484 837 q 312 742 356 789 q 244 624 267 694 q 221 461 221 553 q 242 321 221 389 q 302 201 262 253 q 400 117 342 149 q 533 85 458 85 q 616 90 577 85 q 691 109 654 95 l 691 369 l 490 369 l 490 468 m 444 1009 l 303 1009 l 505 1166 l 589 1166 l 789 1009 l 650 1009 l 547 1088 l 444 1009 z "},"Ŭ":{"ha":964,"x_min":124,"x_max":843,"o":"m 710 922 l 843 922 l 843 279 q 817 155 843 209 q 743 63 791 100 q 629 6 696 25 q 482 -14 563 -14 q 336 6 402 -14 q 223 63 271 25 q 150 155 176 100 q 124 279 124 209 l 124 922 l 257 922 l 257 279 q 274 196 257 233 q 320 136 290 160 q 391 98 350 111 q 482 85 433 85 q 575 98 533 85 q 647 136 617 111 q 693 196 677 160 q 710 279 710 233 l 710 922 m 481 994 q 387 1004 430 994 q 314 1035 345 1015 q 266 1087 283 1056 q 249 1158 249 1118 l 353 1158 q 386 1091 353 1116 q 481 1066 418 1066 q 579 1091 547 1066 q 612 1158 612 1116 l 715 1158 q 699 1087 715 1118 q 650 1035 682 1056 q 576 1004 619 1015 q 481 994 533 994 z "},"Ŝ":{"ha":749,"x_min":75,"x_max":680,"o":"m 680 243 q 657 137 680 184 q 595 57 635 90 q 496 5 554 23 q 368 -14 439 -14 q 287 -10 328 -14 q 207 1 245 -6 q 135 17 169 7 q 78 39 102 27 l 111 137 q 169 117 140 127 q 229 101 198 108 q 294 90 260 94 q 366 85 328 85 q 441 96 408 85 q 498 126 475 106 q 534 175 522 146 q 547 239 547 203 q 532 298 547 272 q 489 344 517 323 q 422 381 461 365 q 334 412 382 398 q 233 453 280 429 q 150 511 185 477 q 95 586 115 544 q 75 678 75 627 q 97 784 75 736 q 159 866 119 832 q 256 918 199 899 q 384 936 313 936 q 466 930 427 936 q 539 917 505 925 q 601 899 573 909 q 648 882 629 890 l 619 780 q 566 800 591 790 q 512 819 540 810 q 454 832 485 827 q 387 837 424 837 q 309 826 342 837 q 253 794 275 814 q 219 746 231 774 q 208 685 208 718 q 253 587 208 629 q 399 514 298 545 q 522 465 469 492 q 609 406 574 439 q 662 333 644 373 q 680 243 680 292 m 297 1008 l 156 1008 l 358 1165 l 441 1165 l 642 1008 l 503 1008 l 399 1087 l 297 1008 z "},"ċ":{"ha":652,"x_min":78,"x_max":625,"o":"m 78 340 q 101 485 78 420 q 168 596 124 550 q 273 667 211 642 q 413 692 335 692 q 525 682 477 692 q 604 655 572 673 l 566 563 q 541 574 554 568 q 511 583 528 579 q 474 590 495 587 q 427 593 454 593 q 339 578 378 593 q 271 533 299 564 q 227 454 242 502 q 211 340 211 406 q 227 226 211 274 q 271 147 242 178 q 339 100 299 115 q 427 85 378 85 q 523 95 484 85 q 591 118 562 104 l 625 31 q 543 -1 592 11 q 427 -14 494 -14 q 281 12 346 -14 q 172 84 217 37 q 102 195 126 130 q 78 340 78 260 m 321 900 l 469 900 l 469 781 l 321 781 l 321 900 z "},"ĉ":{"ha":652,"x_min":78,"x_max":654,"o":"m 78 340 q 101 485 78 420 q 168 596 124 550 q 273 667 211 642 q 413 692 335 692 q 525 682 477 692 q 604 655 572 673 l 566 563 q 541 574 554 568 q 511 583 528 579 q 474 590 495 587 q 427 593 454 593 q 339 578 378 593 q 271 533 299 564 q 227 454 242 502 q 211 340 211 406 q 227 226 211 274 q 271 147 242 178 q 339 100 299 115 q 427 85 378 85 q 523 95 484 85 q 591 118 562 104 l 625 31 q 543 -1 592 11 q 427 -14 494 -14 q 281 12 346 -14 q 172 84 217 37 q 102 195 126 130 q 78 340 78 260 m 310 780 l 169 780 l 371 937 l 454 937 l 654 780 l 515 780 l 412 859 l 310 780 z "},"ġ":{"ha":807,"x_min":58,"x_max":761,"o":"m 96 445 q 118 551 96 505 q 179 629 140 597 q 274 676 219 660 q 397 692 330 692 q 510 678 458 692 l 761 678 l 751 591 l 652 591 q 686 526 674 562 q 698 445 698 490 q 676 341 698 387 q 614 263 654 295 q 519 215 574 232 q 397 198 464 198 q 277 214 332 198 q 260 185 266 201 q 254 148 254 170 q 256 133 254 142 q 261 115 258 124 q 269 98 264 106 q 277 85 273 90 l 478 85 q 593 70 543 85 q 675 28 642 55 q 724 -35 708 1 q 739 -113 740 -71 q 708 -198 734 -159 q 636 -266 682 -237 q 529 -311 591 -294 q 391 -327 467 -327 q 313 -323 353 -327 q 236 -311 273 -319 q 167 -288 199 -302 q 110 -252 134 -273 q 72 -202 86 -231 q 58 -136 58 -174 q 86 -42 58 -84 q 176 31 114 0 q 148 72 160 49 q 136 123 136 95 q 154 193 136 164 q 203 246 172 222 q 124 328 153 278 q 96 445 96 378 m 229 445 q 271 336 229 376 q 397 297 313 297 q 523 336 481 297 q 565 445 565 376 q 552 510 565 482 q 517 556 540 538 q 464 584 495 574 q 397 593 433 593 q 329 584 360 593 q 276 556 298 574 q 241 510 254 538 q 229 445 229 482 m 262 -14 q 231 -36 244 -25 q 209 -61 218 -47 q 196 -93 200 -75 q 191 -133 191 -110 q 202 -168 191 -153 q 230 -194 212 -183 q 269 -211 247 -204 q 313 -221 290 -218 q 356 -227 335 -225 q 394 -228 378 -228 q 481 -219 442 -228 q 548 -196 520 -211 q 591 -160 576 -180 q 606 -115 606 -139 q 600 -75 606 -94 q 577 -43 593 -56 q 531 -21 560 -29 q 454 -14 501 -14 l 262 -14 m 324 899 l 472 899 l 472 779 l 324 779 l 324 899 z "},"ĝ":{"ha":807,"x_min":58,"x_max":761,"o":"m 96 445 q 118 551 96 505 q 179 629 140 597 q 274 676 219 660 q 397 692 330 692 q 510 678 458 692 l 761 678 l 751 591 l 652 591 q 686 526 674 562 q 698 445 698 490 q 676 341 698 387 q 614 263 654 295 q 519 215 574 232 q 397 198 464 198 q 277 214 332 198 q 260 185 266 201 q 254 148 254 170 q 256 133 254 142 q 261 115 258 124 q 269 98 264 106 q 277 85 273 90 l 478 85 q 593 70 543 85 q 675 28 642 55 q 724 -35 708 1 q 739 -113 740 -71 q 708 -198 734 -159 q 636 -266 682 -237 q 529 -311 591 -294 q 391 -327 467 -327 q 313 -323 353 -327 q 236 -311 273 -319 q 167 -288 199 -302 q 110 -252 134 -273 q 72 -202 86 -231 q 58 -136 58 -174 q 86 -42 58 -84 q 176 31 114 0 q 148 72 160 49 q 136 123 136 95 q 154 193 136 164 q 203 246 172 222 q 124 328 153 278 q 96 445 96 378 m 229 445 q 271 336 229 376 q 397 297 313 297 q 523 336 481 297 q 565 445 565 376 q 552 510 565 482 q 517 556 540 538 q 464 584 495 574 q 397 593 433 593 q 329 584 360 593 q 276 556 298 574 q 241 510 254 538 q 229 445 229 482 m 262 -14 q 231 -36 244 -25 q 209 -61 218 -47 q 196 -93 200 -75 q 191 -133 191 -110 q 202 -168 191 -153 q 230 -194 212 -183 q 269 -211 247 -204 q 313 -221 290 -218 q 356 -227 335 -225 q 394 -228 378 -228 q 481 -219 442 -228 q 548 -196 520 -211 q 591 -160 576 -180 q 606 -115 606 -139 q 600 -75 606 -94 q 577 -43 593 -56 q 531 -21 560 -29 q 454 -14 501 -14 l 262 -14 m 313 779 l 172 779 l 374 936 l 457 936 l 657 779 l 518 779 l 415 858 l 313 779 z "},"ŭ":{"ha":817,"x_min":119,"x_max":701,"o":"m 701 0 l 583 0 l 572 86 q 466 13 523 39 q 344 -14 410 -14 q 251 -1 292 -14 q 180 41 210 11 q 135 124 151 72 q 119 256 119 176 l 119 678 l 252 678 l 252 256 q 259 176 252 208 q 281 123 266 143 q 318 94 296 103 q 373 85 341 85 q 479 107 431 85 q 568 162 527 128 l 568 678 l 701 678 l 701 0 m 408 764 q 314 774 357 764 q 240 805 271 785 q 193 857 210 826 q 176 928 176 888 l 280 928 q 313 861 280 886 q 408 836 345 836 q 506 861 474 836 q 538 928 538 886 l 642 928 q 625 857 642 888 q 577 805 608 826 q 503 774 546 785 q 408 764 460 764 z "},"ŝ":{"ha":659,"x_min":73,"x_max":588,"o":"m 586 189 q 568 105 586 142 q 516 41 550 68 q 435 1 483 15 q 326 -14 387 -14 q 254 -10 290 -14 q 185 1 218 -6 q 124 17 153 7 q 73 39 95 27 l 98 134 q 150 115 125 124 q 201 100 175 106 q 258 89 228 93 q 325 85 288 85 q 423 112 393 85 q 453 184 453 138 q 442 222 453 205 q 411 252 431 239 q 363 277 391 266 q 299 297 334 288 q 212 328 252 309 q 143 370 172 346 q 97 426 114 395 q 81 495 81 457 q 99 578 81 541 q 151 640 117 614 q 234 679 185 665 q 344 692 283 692 q 475 678 418 692 q 565 648 532 665 l 541 555 q 495 570 516 563 q 452 582 474 576 q 405 590 430 587 q 347 593 379 593 q 246 568 279 593 q 214 502 214 544 q 221 465 214 481 q 244 435 228 449 q 286 411 260 422 q 351 389 312 399 q 455 354 411 374 q 529 310 500 334 q 572 256 557 286 q 586 189 586 226 m 243 780 l 102 780 l 304 937 l 388 937 l 588 780 l 449 780 l 346 859 l 243 780 z "}}}
